<?xml version="1.0" encoding="UTF-8"?>
<svg xmlns="http://www.w3.org/2000/svg" width="64" height="64" viewBox="0 0 64 64"><rect x="0" y="0" width="64" height="64" rx="18" fill="#ffffff"/><g><path d="M42.31700603291881 7.635326274831726 C42.31700603291881 7.635326274831726, 42.31700603291881 7.635326274831726, 42.31700603291881 7.635326274831726 M42.31700603291881 7.635326274831726 C42.31700603291881 7.635326274831726, 42.31700603291881 7.635326274831726, 42.31700603291881 7.635326274831726 M42.182511944836214 25.071517320567377 C44.78089656882332 22.178676747113876, 47.76185992792835 19.205652877649197, 51.65318946699556 15.484915721072678 M42.26387128974332 26.36845533143134 C44.806781105991746 23.531945620034016, 46.38860519942942 21.056916887586734, 50.793991619338655 16.345611474579997" stroke="transparent" stroke-width="1.5" fill="none"/><path d="M42.275404794812204 7.984850379824638 C43.19372749134898 8.559738053363562, 45.12413820058107 8.589577778857947, 50.31544158756733 7.800873462557792 M41.7403835734725 7.895475091040135 C43.991758507341146 7.847845830148459, 45.668998614549636 7.681283969110251, 49.73412662118673 7.94613130480051 M50.40638461664319 8.911829983443022 C49.96662567962259 13.303993754498661, 50.00589506496042 19.372697289958598, 50.23463710859418 25.127868949621917 M50.45551057897508 8.591157706156373 C49.20583896344155 14.223329477421938, 50.417175988607106 22.37545524343848, 49.855588549003 26.154848924055695 M49.529998949170114 26.579275390505792 C48.566360557824375 25.51954001684785, 45.66422424167395 25.59563096304536, 42.40231723606586 26.09530213534832 M50.20500147432089 25.946166943609715 C47.41281573608517 25.85774349949956, 44.88272563993931 25.89855407498479, 41.75345338433981 25.748315466940404 M41.35378597810865 25.882949282377957 C42.500942131640016 20.05294417459518, 40.88773318445831 15.449390940591693, 42.83679097250104 8.737033597677947 M42.23094037614763 26.682897022143006 C41.65814216374307 19.01977033916861, 42.14455868719965 13.345782221257686, 42.5626630910486 8.470068006888033" stroke="#222222" stroke-width="3" fill="none"/></g><g><path d="M7.93585995288575 32.0737846838379 C7.93585995288575 32.0737846838379, 7.93585995288575 32.0737846838379, 7.93585995288575 32.0737846838379 M7.93585995288575 32.0737846838379 C7.93585995288575 32.0737846838379, 7.93585995288575 32.0737846838379, 7.93585995288575 32.0737846838379 M26.79041023153883 31.68787911242097 C32.01780517349299 25.607688563501046, 36.721070419760146 21.01676908794532, 38.604535576439915 18.130443212845293 M25.726758259274778 32.143525954394036 C29.399726576383003 28.63468576189417, 32.324532176678375 25.63550425306086, 39.419805613643945 16.8304090884411 M44.809340190348614 31.71351438544451 C46.40834611280222 29.933304801780814, 48.242785103020694 28.10375165134101, 50.63744943475436 25.81406724729392 M44.85940747952222 32.51163008443771 C46.424275058752016 30.766085646654744, 47.39770527009828 29.2429910420718, 50.108712297734726 26.343726172529195" stroke="transparent" stroke-width="1.8" fill="none"/><path d="M8.688511987030505 31.962125949561596 C11.793232351498304 28.99923133051246, 17.419780612693724 24.670962459614866, 32.78860396891832 9.502183656394482 M7.35095893368125 31.738687727600336 C13.932634076859058 26.78546501946002, 19.00255379938632 21.546553367081284, 31.335316552966834 9.865328262001276 M32.45153846293688 11.013144426047802 C39.351355379422 16.42580522557646, 46.776593220581105 23.783942919763923, 56.26070789843798 31.030965499579906 M32.50612286552787 10.656841895729304 C40.31128919067234 17.565685896115006, 50.86066455113143 27.390557191619276, 55.83954283222556 32.172054360061885 M54.82499737292528 33.44818847626448 C45.28985047936439 30.90680905787945, 30.908458773791786 31.097036423373222, 9.005793090164662 32.2382553383708 M56.51250368580222 31.865417359024285 C41.09102197065949 31.53762729613185, 26.324779360741374 31.63965373484492, 7.3836334608495235 31.370788667351007" stroke="#222222" stroke-width="3.6" fill="none"/></g><g><path d="M14.138540366347694 30.840627539428784 C14.138540366347694 30.840627539428784, 14.138540366347694 30.840627539428784, 14.138540366347694 30.840627539428784 M14.138540366347694 30.840627539428784 C14.138540366347694 30.840627539428784, 14.138540366347694 30.840627539428784, 14.138540366347694 30.840627539428784 M14.198018264251065 50.55857426690755 C19.921656855540093 44.1141911841371, 26.22525051506086 37.5645549584706, 34.01676360718949 29.77227977974891 M14.323186487185072 52.553863514390564 C19.574502065316395 46.66852045353994, 23.34106426064049 41.32735819316676, 32.69492076464041 31.09642709283709 M29.299577238879447 57.81002000532657 C35.55468940254359 49.38090570834303, 45.05036479765657 38.3613943164092, 49.44856432100869 31.22222809312829 M28.250150892607216 56.950859098505084 C34.36304158414566 50.19514658541411, 39.2839885659752 44.14286075412933, 50.4554174671147 31.430443776081887 M47.9781329313702 56.44934781114774 C48.35898770569887 55.03077183429425, 49.8057184241749 54.27292537057574, 50.37748845689338 53.25952841687714 M47.738951459456146 56.20051704789715 C48.292562878834154 55.40680126987204, 49.007832994194594 54.87830223714672, 50.343721971589744 53.07751632485305" stroke="transparent" stroke-width="1.8" fill="none"/><path d="M14.688511987030505 30.962125949561596 C20.18640468083322 32.41036266035736, 28.214517406374217 32.484961974093316, 50.78860396891832 30.502183656394482 M13.35095893368125 30.738687727600336 C22.486674086377022 30.573044350859522, 30.18705217242241 30.156639698264005, 49.33531655296683 30.865328262001277 M50.45153846293688 32.0131444260478 C49.97999933889135 38.43116080863401, 50.02363198926672 46.711999151669445, 50.26070789843798 55.03096549957991 M50.50612286552787 31.656841895729304 C49.09321137303487 39.8321949747391, 50.4391414009966 50.80749693680555, 49.83954283222556 56.172054360061885 M48.82499737292528 57.44818847626448 C42.343872300162914 54.86054090826809, 31.01650241538882 55.05076827376187, 15.005793090164662 56.2382553383708 M50.51250368580222 55.865417359024285 C38.70860084332526 55.58336934725344, 27.5599371060729 55.68539578596651, 13.383633460849524 55.37078866735101 M13.281984420120716 55.86994364708662 C14.583305831048637 47.804809131193906, 12.79085144529119 41.10239891950041, 14.929767747223377 31.81892621964216 M14.256600417941808 56.758774469047786 C13.624598598238082 46.49808040736243, 14.165061402078718 38.44754030685872, 14.625181212276221 31.522297785431146" stroke="#222222" stroke-width="3.6" fill="none"/></g><g><path d="M21.826961971032393 36.19905748177213 C21.826961971032393 36.19905748177213, 21.826961971032393 36.19905748177213, 21.826961971032393 36.19905748177213 M21.826961971032393 36.19905748177213 C21.826961971032393 36.19905748177213, 21.826961971032393 36.19905748177213, 21.826961971032393 36.19905748177213 M26.380202520637045 49.223268538478216 C30.377717326771055 44.772744579318974, 34.96381480231725 40.19886170321947, 40.950475631651415 34.47465069310176 M26.505370743571053 51.21855778596123 C30.417539691645548 46.85469669150381, 32.8511152200112 43.046960180046455, 39.62863278910233 35.798798006189934" stroke="transparent" stroke-width="1.6" fill="none"/><path d="M22.688511987030505 35.962125949561596 C24.984318728372454 37.3993451334089, 29.810345501452684 37.473944447144866, 42.78860396891832 35.50218365639448 M21.350958933681248 35.738687727600336 C26.979396268352865 35.619614575371145, 31.17249653637409 35.20320992277563, 41.33531655296683 35.86532826200128 M42.316076924055814 36.709201098233464 C41.974042195262015 40.125328475721176, 42.00458505052477 44.84543122552335, 42.182495528906585 49.32167584970593 M42.35428600586951 36.45978932701051 C41.38231919378788 40.84036737132818, 42.32447021336109 47.18090963378549, 41.88767998255789 50.12043805204332 M40.82499737292528 51.44818847626448 C38.41590139456093 48.798850042119625, 31.160560604184866 48.9890774076134, 23.005793090164662 50.2382553383708 M42.51250368580222 49.865417359024285 C35.53203934021294 49.64435874874889, 29.20681409984827 49.74638518746197, 21.383633460849524 49.37078866735101 M21.4973890940845 49.908960552960636 C22.389621657942236 45.374512135796245, 21.134903587912024 41.793970731571314, 22.650837423056362 36.57324835374951 M22.179620292559267 50.53114212833345 C21.734110571800173 44.57093248602003, 22.11243453448862 40.15783061653375, 22.437626848593354 36.365608449801805" stroke="#222222" stroke-width="3.2" fill="none"/></g><g><path d="M32.481958390921356 35.973488164693116 C31.28185745190531 39.77172646570951, 31.858250984658298 42.62577119372785, 32.55202277824283 49.651528559476134 M31.545671253576874 35.81708140932024 C32.368079435439405 38.84334723997861, 32.23438153228313 41.62073207393289, 31.534721587076785 49.90572978340089" stroke="#222222" stroke-width="2.6" fill="none"/></g><g><path d="M22.688511987030505 42.962125949561596 C24.984318728372454 44.3993451334089, 29.810345501452684 44.473944447144866, 42.78860396891832 42.50218365639448 M21.350958933681248 42.738687727600336 C26.979396268352865 42.619614575371145, 31.17249653637409 42.20320992277563, 41.33531655296683 42.86532826200128" stroke="#222222" stroke-width="2.6" fill="none"/></g></svg>
