<?xml version="1.0" encoding="UTF-8"?>
<svg xmlns="http://www.w3.org/2000/svg" width="400" height="300" viewBox="0 0 400 300"><g><path d="M15.236209678417623 17.582884017099893 C88.06226074653257 15.60297480528105, 162.7510200181318 16.154156625430407, 384.7165650926519 14.494113799942985 M16.70362390582119 15.465239014676497 C135.38595300025625 16.200574331203804, 254.64983938953063 16.81211441003566, 383.11616701988333 15.707473987142528 M385.4550415513011 17.750990535960625 C382.89630806899163 90.45190494330699, 386.17583540260256 169.14572114029866, 384.2440470312135 284.11405474685745 M383.3795255280887 15.366967931615228 C385.42978186227623 80.09055131001719, 384.81265274138764 145.71860521388277, 384.25819489035575 284.957103041602 M383.3471071601957 284.68921900647666 C248.91265933069246 283.225705911373, 111.88731061354555 285.2945656398294, 15.874427702626539 284.88233956564716 M384.45625448507354 284.07965898603015 C270.7756517170956 283.7089795992019, 158.6691380093256 284.76001606315145, 15.294234489235398 283.6353482418962 M17.508515260351697 284.62618363669316 C16.2033438326301 180.70995176157217, 16.875315424722935 80.47559367556427, 14.507641876178543 15.113732934451379 M16.585510839639156 285.01495226167657 C19.38575915866175 189.77959221289322, 18.673301699148627 93.57222815269112, 16.371744157048283 16.29412463769187" stroke="#222222" stroke-width="2.2" fill="none"/></g><g><path d="M32.03561680497881 26.21454641197878 C100.35157080966346 24.5011789631489, 167.6902516138034 22.25306277883975, 364.0316133431925 26.20705140261701 M33.1462472890566 26.160294051434263 C148.28610286101804 27.135831397296734, 262.64289364851396 27.24490094624096, 365.44434570009946 24.935452621279037 M366.96390326896733 27.618790401504924 C369.8844018676331 102.645914000948, 369.37034821892195 176.9650940485829, 365.5307350548163 275.96019775899714 M366.894287216429 25.07965112444842 C364.66106419470503 102.20184150108517, 365.23354701304135 179.01700437589406, 365.564827554275 274.7270490481484 M364.3500362645834 273.07361610744147 C238.2985719855982 275.2939646990814, 110.69538672152967 277.027187332908, 33.701030169387124 273.0980185660026 M366.55619295466516 275.4315952432624 C272.6698663733091 272.78725697305157, 178.56595644801862 271.700502447317, 33.16573208615021 275.12724643668787 M32.3411517915035 272.4443491055657 C34.06277921514671 207.18051941166408, 32.706209032445706 139.76106197171598, 35.522825469757905 25.520066363904494 M33.681160668673336 275.5537050504754 C30.94640614094253 196.45000038054937, 30.805717558407608 115.62989441669585, 33.723128761717994 25.791763129147608" stroke="#222222" stroke-width="2.2" fill="none"/></g><g><path d="M35.25404794812202 25.048503798246383 C32.636028313781324 24.232515318816898, 24.124526727344094 20.62817925674319, 14.854415875673293 14.708734625577927 M33.253835734725 25.404750910401344 C26.08549986567348 20.827301192981004, 21.524132437370714 19.579732338291407, 15.791266211867333 14.811313048005104" stroke="#222222" stroke-width="2.2" fill="none"/></g><g><path d="M365.59707994731144 23.546136670093983 C368.461740227107 23.220455467511808, 372.61214110242946 21.220739154468195, 384.60370362373067 18.17762110410258 M365.76327066808005 24.338418893376364 C373.9040756188042 23.09192837221576, 379.50986375153883 17.915491254171638, 384.3997234964278 17.352896064380182" stroke="#222222" stroke-width="2.2" fill="none"/></g><g><path d="M36.083143945690246 275.3414024137892 C28.379383647354622 279.105817044392, 24.62203042405315 278.32106311191404, 14.30227911984548 281.5153940611519 M34.78214053479023 274.1057548593264 C29.129819606016646 277.6586533229208, 25.47963807951219 279.6054380021866, 14.716638065548613 284.6360620971303" stroke="#222222" stroke-width="2.2" fill="none"/></g><g><path d="M366.4261759448797 273.8390352856368 C370.0477486753776 277.8082186339054, 373.15278343725345 278.6281698666144, 384.05156686790286 284.98428053967655 M367.2915754681453 275.93942284230144 C371.7498462947146 277.29030625854847, 376.27282464896 278.61390861959427, 383.32509535010905 284.2776451135054" stroke="#222222" stroke-width="2.2" fill="none"/></g><g><path d="M28.981650631353844 2.056473549799839 C28.981650631353844 2.056473549799839, 28.981650631353844 2.056473549799839, 28.981650631353844 2.056473549799839 M28.981650631353844 2.056473549799839 C28.981650631353844 2.056473549799839, 28.981650631353844 2.056473549799839, 28.981650631353844 2.056473549799839 M29.972227446020145 28.429045329627726 C33.1534449834548 18.88131497923092, 35.400490807394206 6.921575763603609, 39.473386121236565 0.5684809988974906 M29.7906286701863 27.274537054089045 C30.95627084218549 19.95855784859935, 32.49717187742789 12.835551248491349, 37.828233845227246 1.022965752953229 M36.795017171164595 27.970435086677508 C38.66453328761192 20.43218332397619, 40.01347343037725 14.849559005797929, 47.81455505780679 2.5927854898339846 M36.882709247877436 29.754670092503265 C38.87265310501401 21.35277889455163, 40.44148929209904 13.953878455555483, 44.75984307892424 2.190852850205336 M46.69672077570357 27.363697097145256 C46.16868599150976 23.996839569508303, 46.98103224970568 17.450597650486188, 55.056984946271506 3.4741068897682954 M46.13219567884006 29.17274639873975 C47.16182042245166 23.021245392482932, 49.439870025195475 15.893391776161922, 54.639881996205176 0.6976042380470564 M54.47898220713703 27.253429141610813 C54.857878889993856 22.893239366760632, 59.38719025656134 17.136211197922787, 62.8330812510058 2.4774000281657287 M52.79358835588662 29.206835433065844 C56.854541036570836 22.222773271218685, 58.19273655595037 14.8011188975535, 62.30439375675765 1.4033651756311962 M62.26170692984007 29.41708604953949 C64.67608604392677 23.751542352385773, 66.80842877480285 12.70948402986864, 73.10662991388456 0.09308116931097188 M63.15918043870471 28.96083245463435 C66.07261762077162 21.613361679043845, 66.93205556841585 14.465061857655845, 71.96533324776904 2.9617111069299424 M68.89618088568758 30.857584085215986 C74.97479063951015 17.451962296041494, 78.5761834549308 10.403733985805403, 78.05967839365786 0.6444236263741872 M70.69717681448174 29.132062907417478 C74.35879975824969 17.878174339280463, 77.5595624895085 8.087545900207592, 78.62244812330192 0.5020432748009582 M79.05195153342964 31.210696561810455 C82.23335324363143 20.061791917336546, 83.55915325754172 10.970710784275981, 86.66958664907575 0.5843882125255249 M78.26357513728024 29.89367803427287 C82.30326042269515 20.175611098733885, 84.55738679407155 11.181041720491741, 88.56532978741885 2.8014191721018933 M86.59387883181628 30.641884292493042 C92.79995377966223 17.67125729387075, 96.22889158204826 7.418131243042401, 98.48607812201313 0.7924536920496779 M87.4042168111628 28.86648532805818 C92.12175358721551 18.192192443545892, 93.64904051135709 8.502021468349499, 96.67546437730721 1.45638299280494 M96.3591862227224 27.743126041548443 C99.10387643553423 19.48068295482927, 101.85933234394645 12.052777754881022, 102.19106979372022 7.235181943297414 M94.85683797331677 28.690778982745602 C99.32779953854727 20.283582063385104, 100.71849712150757 11.86912600362181, 102.91106281952975 5.218530794948367" stroke="#f5edd9" stroke-width="0.85" fill="none"/><path d="M27.295265059173108 3.9396713450551033 C44.89745360277593 0.25653323125839234, 59.88211742714047 1.5043033022880552, 104.94730320423841 1.8729717925190925 M29.225687394291164 2.5562098287045956 C44.4872811909765 3.2049991395533084, 60.80755189806223 1.286928084141016, 103.83435650840401 2.823017170280218 M102.30697613209486 0.2448723509907722 C101.36968789233566 10.625554143823685, 103.33933038844467 23.227593663707378, 105.13138213604688 29.74708911925554 M103.77607460990548 2.297494747489691 C104.11099570994377 10.759924776665867, 103.57468787436484 19.925628579035404, 102.82464622035623 29.297702815383673 M102.38188758343458 28.89553997069597 C83.26555025614799 30.718933049702645, 66.9706530533731 30.871778193974496, 28.047362618148327 28.240940637886524 M103.88061603084206 28.41642477735877 C86.48337267227471 29.888223173648118, 71.32298005223274 29.988244464427233, 30.1648176766932 28.71407165750861 M27.128153710067274 28.307738657295705 C30.219838481885194 21.458033148013055, 27.411114889127017 13.467283022031188, 30.270586447417735 0.0784033015370369 M28.262187633663416 30.059264566749334 C28.862394773066043 23.17657407242805, 28.14190572410822 17.218202273175123, 29.106653103977443 2.251982095092535" stroke="#8d8074" stroke-width="1.7" fill="none"/></g><g><path d="M296.98710428406855 271.03968893262237 C296.98710428406855 271.03968893262237, 296.98710428406855 271.03968893262237, 296.98710428406855 271.03968893262237 M296.98710428406855 271.03968893262237 C296.98710428406855 271.03968893262237, 296.98710428406855 271.03968893262237, 296.98710428406855 271.03968893262237 M296.8280242598111 295.12698902687976 C301.3212234152985 292.80074408493954, 302.76957051012175 286.3764976482064, 305.05866851833287 272.66501642912834 M296.5836255396212 296.1563667388166 C298.5990022468958 290.1546632319945, 300.92535376842204 282.64660328563184, 306.55691841159586 270.68561412655026 M305.2781404384686 302.2747922798441 C307.18905105891196 292.4655730889975, 308.8142515406189 282.20772249261717, 315.80505031024217 269.5190609913616 M304.11527306412296 300.70376524048015 C307.00265699909176 289.50431215597854, 310.77633801182895 278.5602282658978, 313.3205786959559 271.98976777720435 M314.91046183217475 302.40896318711026 C314.90439843277807 293.4312275679981, 315.5508118901857 284.77786251775905, 323.42506777938775 271.3304894364695 M313.28391286727197 300.86387836604996 C314.43452560877466 293.6358404592395, 317.2927501155802 286.37887316521346, 322.82536924068205 269.6823275733064 M318.94939409624214 299.2564573060464 C323.1311586489017 292.43490285732764, 326.7874529147582 281.52836827571406, 328.7806918198322 273.31711303923 M321.4964823426622 300.15320024711303 C322.85813724707026 293.73625556951646, 326.76915922639927 285.4482710408552, 330.35524580311824 270.61244023885297 M327.5846751191085 299.96527939513504 C329.5095529036335 296.6551088388326, 331.86886108348125 289.12539817829145, 339.1332425531379 273.2417357592403 M329.88657924201243 299.97919609137057 C332.16662825102827 294.8637582471755, 334.58522927387327 288.8901219190584, 338.86734149310803 270.73166705766016 M336.0963750223361 297.7794834139734 C342.12581108569947 290.8128890297114, 342.5608190363267 281.67412698887046, 346.10527036774243 272.74454985498306 M338.25196167516634 300.5028021826386 C342.13006446120687 289.754948849115, 345.82435599245684 277.5838834387579, 348.16634781237036 271.0138794874292 M346.01677719998753 302.1715681373395 C347.01852555957237 291.35035968195336, 353.1927964350639 282.5199383382122, 357.1326069020834 271.56496633494083 M346.22892914946766 299.7583214949138 C347.3302171205792 294.8599418225249, 350.7815313491393 288.13922924627013, 355.5690656376239 270.6645896108616 M354.92751427362526 299.50902502483024 C355.9540201731862 290.8958926290668, 361.3065409911452 283.4317572595661, 362.11641602772306 268.9634454087109 M355.50195852476025 301.3074715620119 C358.69892276131486 289.6754047094736, 362.3803131163245 279.0800916419124, 364.9689562037123 271.13028058677327 M363.2214491316868 297.5867338349284 C366.27975152378843 291.1372113643835, 370.03618330763226 280.1066610541911, 371.38507488872415 272.253892101071 M363.7780850527628 298.9592800916345 C366.4279805979504 291.4434813373311, 368.9924725588685 280.8236028676922, 372.4105221429796 271.61830226416066" stroke="#f5edd9" stroke-width="0.85" fill="none"/><path d="M295.9814134709537 269.209656406194 C314.14733785744755 271.3224483781338, 328.2676682192832 271.7542079978466, 372.4903624407947 269.88537960126996 M296.09049136675895 271.30876482091844 C317.60943033602086 271.3246445549875, 337.3988042570651 272.1557520879656, 370.94500907696784 270.93315431438384 M368.63911141082644 270.14691200330856 C370.82591006926003 277.67217024127024, 370.48508176973763 280.75612064842136, 370.93735405132173 298.01741135194897 M371.64771436490116 272.0201081451029 C371.76789551494124 280.40355772105977, 370.11630095956326 288.1040662417188, 371.08940286673607 298.36578021608295 M371.7719733826816 299.52715542390945 C349.0958025405183 296.6011390974164, 329.1511372830719 299.5972953846097, 295.4586063735187 298.18825612142683 M372.08428039588034 298.098989539966 C345.91443506646897 298.1715060451776, 322.08311550915244 297.2942555764467, 297.94503666199745 299.06471127830446 M294.9339788787067 298.69445405080916 C295.7718675037891 285.72430738201365, 296.3263837477237 277.4521595230326, 298.0010676495731 271.93651254251597 M295.8468325261027 299.05286750160155 C297.45046726275086 290.95732743935656, 296.1517741661131 281.6463023765013, 297.49331915415826 271.2088903721422" stroke="#8d8074" stroke-width="1.7" fill="none"/></g></svg>
