<?xml version="1.0" encoding="UTF-8"?>
<svg xmlns="http://www.w3.org/2000/svg" width="480" height="360" viewBox="-40 -30 480 360"><g><path d="M15.236209678417623 17.582884017099893 C88.06226074653257 15.60297480528105, 162.7510200181318 16.154156625430407, 384.7165650926519 14.494113799942985 M16.70362390582119 15.465239014676497 C135.38595300025625 16.200574331203804, 254.64983938953063 16.81211441003566, 383.11616701988333 15.707473987142528 M385.4550415513011 17.750990535960625 C382.89630806899163 90.45190494330699, 386.17583540260256 169.14572114029866, 384.2440470312135 284.11405474685745 M383.3795255280887 15.366967931615228 C385.42978186227623 80.09055131001719, 384.81265274138764 145.71860521388277, 384.25819489035575 284.957103041602 M383.3471071601957 284.68921900647666 C248.91265933069246 283.225705911373, 111.88731061354555 285.2945656398294, 15.874427702626539 284.88233956564716 M384.45625448507354 284.07965898603015 C270.7756517170956 283.7089795992019, 158.6691380093256 284.76001606315145, 15.294234489235398 283.6353482418962 M17.508515260351697 284.62618363669316 C16.2033438326301 180.70995176157217, 16.875315424722935 80.47559367556427, 14.507641876178543 15.113732934451379 M16.585510839639156 285.01495226167657 C19.38575915866175 189.77959221289322, 18.673301699148627 93.57222815269112, 16.371744157048283 16.29412463769187" stroke="#222222" stroke-width="2.2" fill="none"/></g><g><path d="M32.03561680497881 26.21454641197878 C100.35157080966346 24.5011789631489, 167.6902516138034 22.25306277883975, 364.0316133431925 26.20705140261701 M33.1462472890566 26.160294051434263 C148.28610286101804 27.135831397296734, 262.64289364851396 27.24490094624096, 365.44434570009946 24.935452621279037 M366.96390326896733 27.618790401504924 C369.8844018676331 102.645914000948, 369.37034821892195 176.9650940485829, 365.5307350548163 275.96019775899714 M366.894287216429 25.07965112444842 C364.66106419470503 102.20184150108517, 365.23354701304135 179.01700437589406, 365.564827554275 274.7270490481484 M364.3500362645834 273.07361610744147 C238.2985719855982 275.2939646990814, 110.69538672152967 277.027187332908, 33.701030169387124 273.0980185660026 M366.55619295466516 275.4315952432624 C272.6698663733091 272.78725697305157, 178.56595644801862 271.700502447317, 33.16573208615021 275.12724643668787 M32.3411517915035 272.4443491055657 C34.06277921514671 207.18051941166408, 32.706209032445706 139.76106197171598, 35.522825469757905 25.520066363904494 M33.681160668673336 275.5537050504754 C30.94640614094253 196.45000038054937, 30.805717558407608 115.62989441669585, 33.723128761717994 25.791763129147608" stroke="#222222" stroke-width="2.2" fill="none"/></g><rect x="-10" y="9" width="82" height="26" fill="#f5edd9" fill-opacity="0.62" transform="rotate(-28 31 22)"/><g transform="rotate(-28 31 22)"><path d="M-10.108255269057976 9.333175459392212 C-10.108255269057976 9.333175459392212, -10.108255269057976 9.333175459392212, -10.108255269057976 9.333175459392212 M-10.108255269057976 9.333175459392212 C-10.108255269057976 9.333175459392212, -10.108255269057976 9.333175459392212, -10.108255269057976 9.333175459392212 M-8.808661460016726 34.75469072292495 C-5.740962453922704 25.57177259507355, -3.6123646344294276 13.976578852741369, 0.38348022082475075 7.845182908489864 M-8.990260235850572 33.60018244738627 C-7.904986394709687 26.554120944107392, -6.451436556264876 19.699953684335878, -1.2616720551845706 8.299667662545604 M-1.9858717348722774 34.29608047997473 C-0.11635561842495867 26.75782871727341, 1.232584524340383 21.175204399095147, 9.033666151769928 8.918430883131204 M-1.8981796581594306 36.08031548580048 C0.09176419897714011 27.67842428784885, 1.6606003860621692 20.2795238488527, 5.978954172887377 8.516498243502555 M7.915831869666703 33.68934249044247 C7.321649049432651 30.53890587468981, 8.063968638947319 24.20818388103119, 15.96707904585969 10.750808799360668 M7.351306772803195 35.49839179203696 C8.30187668164915 29.565703188772947, 10.50849588685789 22.65768973099955, 15.549976095793362 7.974306147639428 M15.698093301100164 33.57907453490803 C16.076989983956988 29.21888476005785, 20.606301350524472 23.461856591220005, 24.05219234496893 8.803045421462945 M14.012699449849753 35.532480826363056 C18.07365213053397 28.548418664515903, 19.411847649913494 21.12676429085072, 23.52350485072078 7.7290105689284125 M23.789835018178152 34.79167492654156 C26.03666516707826 29.6293264854426, 28.00430615588924 19.094168003023334, 34.01672401347275 7.369783078903348 M24.68730852704279 34.335421331636425 C27.40465803752574 27.534692514597364, 28.085091258076762 20.93731259486066, 32.87542734735723 10.238413016522319 M30.115291979650724 37.183229478513205 C36.075302737895434 24.13987313554798, 39.55857441527539 17.455184307252132, 38.969772493246055 7.921125535966563 M31.91628790844487 35.4577083007147 C35.45873314523509 24.557933355250412, 38.54521607500377 15.119021979855406, 39.532542222890115 7.778745184393334 M40.27106262739278 37.53634195510768 C43.452464337594556 26.387437310633764, 44.778264351504845 17.296356177573198, 47.88869774303888 6.910033605822747 M39.48268623124338 36.219323427570096 C43.52237151665827 26.501256492031114, 45.776497888034676 17.50668711378897, 49.78444088138198 9.127064565399115 M47.81298992577941 36.96752968579026 C53.90695740944298 24.347652052405877, 57.22178777288408 14.445712587887604, 59.39617222160131 8.069155601642056 M48.623327905125926 35.1921307213554 C53.21478438793475 24.885382307356238, 54.62192761608823 15.564975607397868, 57.58555847689539 8.733084902397318 M57.57829731668553 34.06877143484567 C60.67176235569092 24.699518849671485, 63.78740173402264 16.16308291398933, 64.3372318708082 10.707657787709177 M56.07594906727991 35.01642437604283 C60.90394128771019 25.596835146511353, 62.624617651464646 16.1668088254807, 65.05722489661773 8.69100663936013 M65.97246975886117 37.11490301544404 C68.44211495240226 31.00212706329694, 68.05317607886218 23.21492735074147, 72.21205518878499 13.224959091260342 M66.69107862176786 35.48332438449001 C67.22012912695617 28.332252585445534, 69.77694137494562 19.13974817968607, 71.6454438339869 15.128251633211281" stroke="#f5edd9" stroke-width="0.85" fill="none"/><path d="M-11.704734940826892 10.939671345055103 C7.499827272817492 7.227708308458329, 24.086864767223595 8.475478379487992, 73.94730320423841 8.872971792519092 M-9.774312605708838 9.556209828704596 C7.161080087348819 10.243918307501078, 25.155149690806866 8.325847252088785, 72.83435650840401 9.823017170280218 M71.30697613209486 7.244872350990772 C70.36463481023311 17.27040192745626, 72.33427730634212 29.51728923097253, 74.13138213604688 35.74708911925554 M72.77607460990548 9.29749474748969 C73.11314239012599 17.445804960653188, 72.57683455454706 26.29738894701004, 71.82464622035623 35.29770281538367 M71.38188758343458 34.89553997069597 C50.390482665970914 36.74128961617947, 32.22051787301898 36.89413476045132, -10.952637381851673 34.240940637886524 M72.88061603084206 34.41642477735877 C53.80152886547148 35.930793602257964, 36.959292438626285 36.03081489303708, -8.8351823233068 34.71407165750861 M-11.871846289932728 34.3077386572957 C-8.77153604259491 27.78744811452925, -11.580259635353089 20.126112955063583, -8.729413552582264 7.078403301537037 M-10.737812366336584 36.059264566749334 C-10.14140127196908 29.38514775969088, -10.861890320926905 23.635349647700785, -9.893346896022559 9.251982095092535" stroke="#8d8074" stroke-width="1.7" fill="none"/></g><rect x="328" y="261" width="82" height="26" fill="#f5edd9" fill-opacity="0.62" transform="rotate(-28 369 274)"/><g transform="rotate(-28 369 274)"><path d="M327.95926432854185 261.12537150542255 C327.95926432854185 261.12537150542255, 327.95926432854185 261.12537150542255, 327.95926432854185 261.12537150542255 M327.95926432854185 261.12537150542255 C327.95926432854185 261.12537150542255, 327.95926432854185 261.12537150542255, 327.95926432854185 261.12537150542255 M328.1092012986594 284.26161508338475 C332.52774410310286 282.168030307001, 333.9000163651358 275.9779181307399, 336.0308285628062 262.75069900192847 M327.8648025784695 285.2909927953216 C329.79887129438566 279.55162200870666, 332.0395196009758 272.3073294360359, 337.5290784560692 260.7712966993504 M336.5593174773169 291.4094183363491 C338.3550110537993 281.92523070434714, 339.8739187910448 271.9945155377168, 346.77721035471546 259.6047435641617 M335.39645010297124 289.83839129698515 C338.1795904430477 278.9837684518421, 341.841706403349 268.3830464869672, 344.2927387404292 262.0754503500045 M346.191638871023 291.54358924361526 C346.1173465195903 282.7987351622035, 346.6877410325186 274.3793323659017, 354.39722782386104 261.4161720092697 M344.5650899061202 289.99850442255496 C345.6500696769503 283.0031354066568, 348.4336169499692 275.9760010056578, 353.79752928515535 259.7680101461066 M350.23057113509043 288.3910833625514 C354.41233568775 281.56952891383264, 358.06862995360643 270.66299433221906, 360.06186885868044 262.451739095735 M352.7776593815105 289.28782630361803 C354.13931428591854 282.87088162602146, 358.05033626524755 274.5828970973602, 361.63642284196646 259.74706629535797 M358.86585215795674 289.09990545164004 C360.73516664112503 285.9867024394701, 363.03085469175693 278.6527944032496, 370.1054025976112 263.32741833204045 M361.16775628086066 289.11382214787557 C363.3766216220113 284.1935254296491, 365.73255369149507 278.41276430758387, 369.8395015375813 260.8173496304603 M367.3775520611843 286.9141094704784 C373.2944586537171 280.27855149079755, 373.62283179608585 271.4679776438234, 377.07743041221573 262.8302324277832 M369.53313871401457 289.6374282391436 C373.2895516699372 279.25938007071255, 376.8643688632657 267.4560188632913, 379.13850785684366 261.09956206022935 M377.2979542388358 291.3061941938445 C378.2026236316985 280.7802564460599, 384.2818785358358 272.2422641931243, 388.1047669465567 261.650648907741 M377.51010618831594 288.8929475514188 C378.5484968672258 284.2009899880448, 381.9325166410259 277.68738844734804, 386.5412256820972 260.75027218366176 M386.20869131247355 288.64365108133524 C387.1398613108622 280.31250448960725, 392.4011804421402 273.12905904976753, 393.0885760721964 259.04912798151105 M386.78313556360854 290.4420976185169 C389.87405079290704 279.1601024613514, 393.44107335645185 268.9167772627647, 395.94111624818566 261.2159631595734 M394.5026261705351 286.7213598914334 C397.5609285626367 280.2718374208885, 401.31736034648054 269.2412871106961, 402.66625192757243 261.388518157576 M395.05926209161106 288.0939061481395 C397.7091576367987 280.5781073938361, 400.27364959771677 269.9582289241972, 403.69169918182786 260.75292832066566 M403.235902951458 289.7834191326217 C405.46444479097084 280.4881058819331, 407.32418133126004 277.7255956562804, 409.75445290674736 260.50694321071376 M403.9326303990423 290.3140414729879 C404.43480054582625 282.32464355908843, 408.7705309440554 272.63324486180096, 412.1620864903675 261.7876581409352" stroke="#f5edd9" stroke-width="0.85" fill="none"/><path d="M326.9814134709537 259.209656406194 C346.74981942158195 261.32373141338826, 362.47263134755195 261.75549103310107, 411.4903624407947 259.88537960126996 M327.09049136675895 261.30876482091844 C350.79567463677375 261.34089641238745, 372.7712928585708 262.17200394536553, 409.94500907696784 260.93315431438384 M407.63911141082644 260.14691200330856 C409.8245545743346 267.464511105977, 409.4837262748122 270.34080237783496, 409.93735405132173 287.01741135194897 M410.64771436490116 262.0201081451029 C410.7705761351317 270.0842506406829, 409.1189815797537 277.465452080965, 410.08940286673607 287.36578021608295 M410.7719733826816 288.52715542390945 C385.84459551442416 285.6210209623694, 363.6487232308835 288.6171772495627, 326.4586063735187 287.18825612142683 M411.08428039588034 287.098989539966 C382.2106892684474 287.16364785690604, 355.6756239131093 286.28639738817515, 328.94503666199745 288.06471127830446 M325.9339788787067 287.69445405080916 C326.7725941372872 275.1141503015533, 327.32711038122176 267.2318453621119, 329.0010676495731 261.93651254251597 M326.8468325261027 288.05286750160155 C328.45478957930504 280.2571999305859, 327.1560964826673 271.2460473589599, 328.49331915415826 261.2088903721422" stroke="#8d8074" stroke-width="1.7" fill="none"/></g></svg>
