<?xml version="1.0" encoding="UTF-8"?>
<svg xmlns="http://www.w3.org/2000/svg" width="260" height="440" viewBox="0 0 260 440"><g><path d="M-2000.9129736888408 410.24706596255305 C-1148.5863817861825 422.98171467528493, -296.3160353983342 420.2214521725923, 2259.045690137148 399.14861026644706 M-1999.377481327653 410.3188328653574 C-454.0423740151376 424.28015540399406, 1092.2603385562597 420.8522957456559, 2260.0855277627707 400.5106367021799" stroke="#222222" stroke-width="2" fill="none"/></g><g><path d="M29.973440458553018 30.030553257390892 C29.973440458553018 30.030553257390892, 29.973440458553018 30.030553257390892, 29.973440458553018 30.030553257390892 M29.973440458553018 30.030553257390892 C29.973440458553018 30.030553257390892, 29.973440458553018 30.030553257390892, 29.973440458553018 30.030553257390892 M32.54421561303742 41.05821396742723 C30.589026366523473 39.11227679632367, 36.979958930197284 35.8607412605393, 38.77493960264238 30.894348492090415 M30.88462483826287 41.031924825057004 C32.0763418710529 38.99050648373918, 36.87129357837025 35.55780624306646, 40.28172604802163 30.26285339421482 M31.253175736350975 52.492505029603045 C35.83486048052923 47.331874221785505, 39.64428293072017 39.798940548755326, 50.05393445698544 32.553573383891575 M29.804504328353367 53.27496957705835 C34.193257422298935 48.70419688241473, 40.29354903761991 42.18736203029178, 50.629083878379305 29.191293487453454 M28.493468093324516 67.4051450737951 C36.185413481962634 57.68056760409789, 42.422030286916794 51.00870831926572, 61.40357491128979 26.746554006679318 M28.469287757027956 68.19613170262554 C40.36048910495639 52.9565276207596, 55.53380188531484 36.714809365380475, 60.55729713045893 30.471795520229602 M30.21034865409325 79.9268725348347 C40.62769119517465 64.63957943801688, 58.39512683560014 51.937285944860314, 70.81231875914884 27.919444907787387 M29.65576894760321 77.8098605541223 C41.99968569812174 66.3000721823758, 55.43371924882885 48.76537628941169, 73.37014325607372 31.0657359685331 M32.51836385841667 89.50897902419462 C43.31407246560799 77.71420677287422, 55.403387908969016 59.698073869958684, 84.17264646931255 30.396953118465756 M28.72961738671362 92.52804344614638 C48.97020936767205 68.61269479361881, 69.58975713302539 45.80721049727792, 83.85341327084863 28.69123006673894 M27.63499417504478 106.15117157312486 C53.44777430686891 73.0456409220164, 78.67448139271944 45.159607983188096, 95.12391351053097 26.706910669964447 M28.714124089984185 104.03129561307284 C48.88532204308576 80.95633060528968, 67.39338599941436 58.948767360634804, 95.24446069040873 31.239830549222127 M28.32459507272757 118.05628221287539 C47.931425625555505 96.70153089823343, 62.62849224323497 78.3915068201579, 106.95235035155406 28.88027459353345 M31.084142573039898 114.57366978927662 C59.29275282479314 83.52617875122408, 89.11362630977032 50.68697663895148, 105.88220153037896 29.326527650357654 M31.542337991224557 126.48497755491901 C59.26862071842518 90.47638700236291, 97.0490745860101 54.53156011224527, 112.89106246113187 28.95112692042276 M28.160029822515277 126.28736578935552 C55.44527358858975 96.81286902812197, 79.273058036255 70.01145184045848, 113.45711430638437 31.239749104520524 M26.958446457266717 141.63692047006015 C61.58637326233465 106.94248063211707, 89.56171872298687 66.29004195286342, 124.42003030801432 26.65667468188238 M29.181882412016304 141.11389218723897 C49.29232475482202 114.8852542200768, 69.99205547387753 92.13335856861951, 124.06124003404992 29.091360146085737 M27.721841910613584 150.87902756977164 C56.896349067080266 121.96415851355341, 76.92914635131027 98.583664366599, 138.7661093609515 28.337249909162313 M30.2231823281775 150.68232379752482 C66.11837849171602 109.50724633435098, 101.67112977099217 66.40108955421904, 137.23818222900064 30.56666350942829 M27.784379820015143 165.82663088530344 C74.34138936441283 110.44614640827915, 120.42152879500387 60.07514364797952, 148.00303008869335 29.836309633512574 M30.665033086623858 165.04046335458798 C60.82319607650888 126.35378755786915, 93.92762028680681 91.16806208957532, 145.43310690686152 28.274399428923207 M29.54479065422137 173.99818744790554 C62.62530030062051 139.3172393186078, 93.50547972425369 100.49093083111121, 157.09533893099936 28.955145466405906 M28.790100702980354 176.35955109280349 C59.62126737187307 139.6965420250436, 88.5527450125763 105.82365359530849, 156.78668355426703 29.051455219168222 M29.87436203103064 189.57148198254356 C75.17248719959926 137.16134950756174, 122.80677467642299 83.73412330187504, 169.7292557791749 30.864353845029807 M28.711872869792394 188.30745825125894 C80.7358573430519 126.60632267518432, 131.1799850140446 66.85108500904825, 168.30420657643154 29.945699418841343 M31.636687080670463 201.6296408603337 C91.79893299999272 135.80167425822205, 146.3367543881394 70.90066734562122, 178.8278670374242 32.33960305450401 M29.100899709089898 201.184280414853 C82.49181392551597 137.2174917877735, 135.38350864508436 74.58533501609328, 179.3003893898283 31.616024112599366 M28.13102077873071 215.1776657197425 C75.96097384754096 157.71662826095206, 125.76074635749514 102.8650624387402, 188.72687876823454 28.593610137706246 M30.50557029970455 213.77372960804783 C90.76509138202111 144.6002825106842, 153.49495263140028 72.86112533243018, 189.95213965184692 28.949564270528533 M29.483911957769962 226.32105875664882 C89.08216779763751 154.97692397390722, 149.24288182625168 80.23783958257714, 197.11519665853953 28.200986186140412 M31.211126549263298 224.62452153149783 C72.66542120950714 177.38639058530913, 115.26409737867876 127.51697043689329, 198.92710142792683 29.96622000047064 M29.28005372659681 238.50017127068168 C78.00421460538072 180.38350400962608, 122.88627119563918 129.94837334530064, 208.0736771115227 27.870546555060432 M30.456355897268093 237.5085928639823 C96.84316605324005 159.04064656734693, 164.8285441050351 78.84304248596054, 210.66690413538245 30.043785208392496 M27.75520935584849 249.24791513415835 C94.77966154127623 179.74809088596092, 158.14177012715263 105.1200375482196, 221.05342038669022 27.877781224360163 M29.638285966872864 250.3244714917046 C79.2145944207749 194.8727162282819, 127.1261819518538 138.14885127751526, 220.8147202292856 30.525835465974435 M28.25080293020179 261.36182341544367 C87.75512814138165 194.1405209874289, 146.9633914834997 127.2160140117396, 232.25331215843016 29.874127022556205 M30.58698550674965 262.2530559572468 C79.48017104092116 207.49549237223945, 125.40800711803749 153.52300403197617, 229.85392519424468 30.99545082542958 M30.551249381153024 274.2449238757051 C112.01364754434711 187.83416961549594, 187.11901358575776 96.00686585683695, 229.32469920947904 42.18402279678245 M29.21303594669167 274.1800689916278 C78.57746087651651 217.7738962216699, 126.77425220470197 162.73259648903525, 230.9055661739816 44.66357030048438 M28.86138705329568 285.2653784663376 C88.4375780149888 223.28598477177692, 140.75974558331222 160.58128512131805, 230.31541674734436 54.294503685754805 M30.48339502213175 285.53204215222945 C92.1233645203873 215.32009347579717, 152.55910525839514 145.56452733762939, 230.83756453140413 55.80078003457239 M31.42481432629345 296.48575593690475 C96.91755155225862 224.13400302510274, 159.80812619309688 152.8429134802482, 228.7598055084899 66.79526791711946 M31.10014076222562 298.3801729787765 C93.12244172117727 227.45419473009932, 153.36090324716358 157.43833135867177, 228.7468479438453 69.12622015805705 M31.71581409466464 310.0140595564386 C107.16578638020135 222.89354806305835, 180.72972202367453 135.66853498331787, 230.64260331703363 79.40736832566053 M28.879037019265482 311.03239696356763 C92.0768163788339 238.28893246507099, 154.35226868224893 166.6377880765185, 229.6958663190652 80.94413939132077 M31.606255274131488 321.8340121944344 C73.8636698191969 271.71245489232126, 117.70897732807585 220.52439036268146, 231.51910115909817 94.67452921512117 M29.633635329324672 322.9627684247065 C87.14118669709856 258.50894587791663, 141.40238818004312 195.58948061874472, 229.91575463766932 92.7843853243834 M27.760973237289768 334.8488944003013 C101.65180585623217 249.70333037902486, 175.98166192306593 161.32159541778762, 230.39829305047908 102.58697665682787 M30.06204699363194 334.50882679331596 C80.58090387537344 279.5504824296924, 126.90431974021396 226.79557511849677, 230.653532052709 104.70853329772919 M30.15177862476443 348.0888597834143 C84.39289658784145 278.92378613823576, 140.68191413974273 214.9246589236741, 228.71332013180137 117.6369017601557 M29.261364066874727 347.1562798897087 C107.6575733455447 257.1248726232737, 184.0860714927707 166.938626436139, 231.30646936887172 115.89034838167073 M28.55410305102032 356.6664031354749 C99.616853720852 281.97045647170347, 171.54889161879703 197.5798915443895, 231.62936390612325 130.06369982506828 M31.152778897142255 359.47303656735374 C80.28214228604268 298.7131612204214, 130.97253100918658 239.48151605076404, 230.6916129081583 128.66580697843912 M30.98617170617248 372.63816359910123 C109.93374460157202 283.54121337079306, 191.48429531127647 191.74638334275727, 231.72464189777978 143.78862646939734 M29.497647379926455 371.1559953773164 C73.24293673258276 326.476551938649, 113.32256752630381 278.25082106697425, 230.4201996443258 140.70256199281363 M28.81303221034633 384.0192751702025 C107.66191850144524 294.1940335332244, 184.4412647222402 202.82250487837635, 230.25373439267628 154.64049821383847 M29.861744508100855 384.4836880789337 C74.77617814596229 334.14843302329007, 116.05803927349191 285.79927615456603, 230.58463299198263 152.80819333041728 M31.92531970133664 398.0033953560498 C101.69950681868406 319.91906264995356, 169.26620607972075 241.1656705459754, 230.08628364001424 165.08488305740062 M29.021242763960856 395.89102328958415 C95.54968608543057 322.3897157445686, 160.42759607711739 244.8939847420434, 230.80199695951254 165.74870455986658 M29.22342931976836 409.28224526601826 C85.81423706936489 349.8047909336164, 139.10182082694118 288.7934210592398, 232.3903672804186 177.2284836094589 M29.957433952193906 406.69492907958045 C90.82624404881908 335.7398181800002, 152.595209693759 264.86350801086337, 229.17029810160298 177.33289700147412 M35.63913158850702 416.3750192176613 C80.91557312395037 361.3366237167738, 127.49360781991032 306.83554634995954, 230.9896570233277 188.09829278966563 M33.11929529087243 415.6636164183545 C87.97753670642848 353.75497891918855, 138.9147323136034 294.37483254187043, 229.32444768972647 189.93947084355173 M44.64462332672949 417.62351209263653 C115.3096429973706 339.29895537323534, 184.06174883906056 260.12581407398756, 230.81247954001833 202.23747631755884 M46.00083275084114 415.5817139462946 C90.81958846303614 363.4628166494231, 137.68465256177905 311.2278792750415, 228.71739124973286 201.50788186666358 M55.05713117493733 416.8424273505171 C103.12374887192392 363.1033182179969, 149.16733009371498 308.6800335191777, 229.6025720131006 216.75077922445115 M55.88042990984064 414.83046178813373 C115.76032071549793 347.5545605536691, 176.5622579494737 276.36609670921524, 229.55115595931693 214.70520287187753 M67.91040972861879 413.8911666861271 C130.6881004472121 340.6605759050174, 195.62063096898999 268.43454456736293, 232.48327853118775 228.65416984204168 M65.39291034934548 414.65751618474087 C112.12793223985422 363.547898660463, 157.31948842774017 308.5648061267462, 228.9410966483907 227.55288934662516 M75.95958917451216 414.62885318304086 C131.83864506490676 355.0563826909085, 181.20219746537222 296.8403095601126, 230.37359929414302 240.30798153077964 M76.29547636520532 415.23712345261026 C114.11480211141976 372.4130434558811, 152.36104979115942 331.0258979147488, 228.96231124124137 238.69720615396312 M89.7626387321666 414.1992190574374 C117.2635987717069 384.4637407091708, 142.51219506738056 347.8046374093768, 227.1612586961563 251.77080340737922 M87.39748713236355 415.25590912477713 C134.61004827729585 361.8721808823321, 184.71241914792358 303.3729191728772, 230.79622375102443 252.26711478691547 M97.04191117292865 414.37716261943666 C130.60161675496786 380.9702298676106, 157.91434239706524 345.5138693778613, 232.70470474037796 262.0069557448246 M99.32160910470235 415.7626730275137 C129.93697475032468 379.08767704960684, 158.87931498821962 341.58864822722774, 229.59820996741885 263.89663487501474 M105.73308587137942 417.9302670728444 C132.29044153141496 385.5479763236277, 158.25376969151188 357.0470219732047, 232.4548060812724 275.5683923337129 M109.94556153331283 414.34294426106203 C151.62692020836525 365.82560915448084, 194.11523973836114 318.6145887644483, 229.49866940609343 274.2949447679785 M120.427953376465 417.5782159573509 C146.5625063203559 381.02162660383243, 180.75625159813302 340.79945990661406, 227.8050698207521 286.7295393504166 M119.05379797875182 415.3230129442288 C158.70711754966095 373.70764227686954, 193.455613330369 331.41066093868596, 230.8887959213757 286.8721425525807 M132.4745024001053 413.84474699517773 C165.1001174077329 374.6395407233313, 202.56899109951505 325.68830009809403, 230.45496429753646 299.9660068016905 M130.77225323522597 414.17530910542297 C156.6993058215152 382.7936714200859, 184.40135913225646 351.66351791902275, 231.07844788831815 300.1424174245853 M142.77771341105023 417.44206721757485 C162.85394400789247 388.66940514058206, 186.1253274993468 363.96611527767067, 227.27528595138494 311.2728362990076 M139.48046831836024 414.5241979790194 C172.305070468664 379.71969167119073, 204.25506412265275 342.14700250005626, 228.20516979355517 311.29578169859 M148.3894418780499 416.0855086557923 C165.86776368312013 391.3522488498622, 188.58220715632004 371.1174051840257, 230.7518833090287 326.2840657131722 M150.20954674377973 415.16748229939327 C172.26133418606204 392.4050160732021, 192.37372851752224 367.2463487827852, 229.67624571069294 324.18155644852425 M164.40841826985428 414.99352834108004 C179.5967614475506 388.6359829441383, 203.4252534615304 369.9878321119407, 229.74930281022714 338.1009866556571 M162.09215452710936 414.6264023009194 C177.3637383852505 393.5238156569068, 195.93450710556274 373.68926255141946, 230.08234512636588 337.5866289889858 M171.6241890262228 417.3424178849109 C184.0147332902164 402.403231078163, 200.56198483605337 381.26745607264667, 233.23502492373024 345.5733061577123 M171.95646115498363 414.85034529819563 C194.14256872117107 388.9423901781217, 213.9649877769871 365.32384918674705, 229.27175905619893 349.96661455434975 M179.44135267388654 416.9474651580893 C200.62269871404425 395.1742659921238, 217.49163655139864 375.5934849642929, 230.72340511828804 359.3538562505879 M182.80037570100856 416.34800736515155 C192.35331511833377 403.2924409456168, 204.71317616532207 389.9283821635985, 229.54434101581717 359.9505658789911 M195.84320565260495 414.4912117720879 C202.5512867477452 406.4423300829564, 208.59405011060963 398.08705710928416, 232.71961483366002 372.7533035457565 M194.50519265181865 416.0656508163847 C205.78587891474612 400.78114155273187, 219.80414502517127 385.0883301955141, 231.24544799185503 374.8456827775075 M200.71597843112806 416.60461475815697 C206.16595754929997 407.3963583738501, 217.42528429077484 400.1711105436641, 228.0438775965772 383.22131091402264 M202.7098280230389 415.31826588627024 C212.63638114020114 405.0104218668943, 222.39921883443182 392.87309870795593, 230.04017655791858 384.96847382382845 M215.0927764782058 416.32175614754624 C221.02959281996658 407.9664095667121, 225.6368670351938 400.92226833727864, 227.39511484679903 398.9747949668592 M215.20476033029425 417.0942803091831 C219.3371124774213 409.21307471283455, 224.5879377425206 403.090782739671, 231.62700870064225 398.3230138325518 M225.77322259836077 415.0350330465458 C225.72380130690462 412.99212932376867, 226.36772783910524 411.951582831355, 228.93094665371015 409.3721249670805 M225.2646027290094 415.1253195857427 C226.4261744185112 412.82510219637766, 228.98452105452995 410.77138797423567, 230.02569300674034 409.07333208809507" stroke="transparent" stroke-width="1" fill="none"/><path d="M27.945868543397825 30.55588235645674 C67.94777111971403 31.272336766254806, 107.83880562212278 29.563515064686776, 227.85286483872386 28.084428439838582 M31.4006265490672 30.7173532229179 C101.83425255717223 31.662511137510627, 174.42777084798297 32.116912411037866, 230.1924319069294 31.148899388519155 M228.22417905158005 28.352592420478057 C229.30112649844185 145.4181415846372, 229.07026386116158 259.2060554183276, 229.65857776473922 416.1557489272408 M229.1107027688694 30.39031609480858 C227.74504337769883 169.06144034651447, 227.17712508598743 309.7399434322047, 230.8679303812351 414.9887766006069 M232.73250449358056 415.5349696267269 C178.89840284571474 418.3886878782402, 122.53281946105082 416.60325523076153, 28.876489994411962 416.6416978598768 M229.94491927352723 414.3614588330068 C152.626056382949 415.5421867773212, 73.11864694714679 414.6567643922608, 29.94549067482814 416.02431982909513 M29.763097986882784 414.2569728187691 C30.12656011847925 306.95643416832337, 28.752716601511477 201.7761784374089, 28.164197260979464 29.523514339594268 M29.72101050473366 415.91799079839745 C29.096855984989908 267.9856527104378, 27.774405220622235 119.95427473146256, 29.51969269913063 30.753966134664534" stroke="#222222" stroke-width="2" fill="none"/></g><g><path d="M35.84165449429523 80.18215566718821 C35.84165449429523 80.18215566718821, 35.84165449429523 80.18215566718821, 35.84165449429523 80.18215566718821 M35.84165449429523 80.18215566718821 C35.84165449429523 80.18215566718821, 35.84165449429523 80.18215566718821, 35.84165449429523 80.18215566718821 M37.6057211029109 88.64157859477116 C36.13932916802544 87.1821257164435, 40.932528590780805 84.74347406460521, 42.27876409511462 81.01867948826855 M36.36102802182999 88.62186173799348 C37.254815796422506 87.09079798200513, 40.85102957691053 84.51627280150059, 43.40885392914906 80.54505816486186 M36.422754212345296 97.486962543241 C38.454460627532434 95.37392883791308, 39.8553473864512 91.55690686275827, 44.07238947326917 89.86927086511426 M35.40868422674697 98.03468772645972 C37.092128971075205 96.59971658265312, 39.89774898906792 93.72274347917173, 44.474994068244875 87.51567493760757 M41.965107723641374 100.39248494634673 C42.631311501408995 99.46439402250294, 42.953155744662716 99.19466410412406, 44.74198671908949 96.63808229821564 M41.96027165638206 100.55068227211281 C42.891118686718514 99.24565344411498, 44.43084391559079 97.71703846502477, 44.57273116292332 97.3831306009257" stroke="transparent" stroke-width="0.75" fill="none"/><path d="M35.087026311159136 80.24706596255302 C36.68168979689479 79.92632290923595, 38.227077159583565 79.1668246563673, 43.0456901371479 79.14861026644706 M36.62251867234707 80.3188328653574 C38.56510095849634 79.97763658189774, 41.46766310304403 80.1795985379219, 44.08552776277065 80.51063670217991 M40.99835543930531 77.21541070640087 C41.938442209661005 87.41380542032421, 41.54821842044592 92.07206036373972, 43.422898915410045 101.95354575812817 M42.49683370441198 80.65974567085505 C43.97575584232807 86.25935916639864, 43.01581173717975 95.25201618000865, 45.46705021709204 99.98102924972773 M45.214481526613234 100.23777114748955 C42.839603664428 100.56447664129733, 39.33959030419588 99.77092809545994, 35.50064779400825 100.72966457247735 M43.97551896989346 99.7161957269907 C41.19982628449797 100.30341129755973, 37.451418145000936 99.90987886881828, 35.97577293336391 100.45526640951634 M35.599567940831186 98.74407186210155 C38.18485899716615 91.31287306435406, 35.86267109662294 87.46555793359876, 32.89696908295154 79.19460315406323 M35.52842807620764 101.55166661888362 C37.152558497190476 93.73233922086656, 34.91723902583122 85.74560612216592, 35.18814349025488 81.2744180932641" stroke="#222222" stroke-width="1.5" fill="none"/></g><g><path d="M35.98893374855996 340.01273026604304 C35.98893374855996 340.01273026604304, 35.98893374855996 340.01273026604304, 35.98893374855996 340.01273026604304 M35.98893374855996 340.01273026604304 C35.98893374855996 340.01273026604304, 35.98893374855996 340.01273026604304, 35.98893374855996 340.01273026604304 M37.753000357175615 348.47215319362596 C36.28660842229016 347.01270031529833, 41.07980784504552 344.57404866346, 42.426043349379334 340.84925408712337 M36.508307276094705 348.4524363368483 C37.40209505068723 346.92137258085995, 40.998308831175244 344.3468474003554, 43.55613318341378 340.3756327637167 M36.570033466610006 357.3175371420958 C38.601739881797144 355.2045034367679, 40.00262664071591 351.38748146161305, 44.219668727533886 349.6998454639691 M35.55596348101168 357.8652623253145 C37.23940822533992 356.43029118150787, 40.04502824333263 353.5533180780265, 44.62227332250959 347.3462495364624 M41.395160474973565 361.002634469144 C42.22791519718309 359.8425208143393, 42.63022050125023 359.50535841636577, 44.8662592192837 356.3096311589802 M41.38911539089943 361.20038112635166 C42.55267417881999 359.56909509135437, 44.47733071491032 357.6583263674916, 44.65468977407598 357.2409415373678" stroke="transparent" stroke-width="0.75" fill="none"/><path d="M35.087026311159136 340.24706596255305 C36.68168979689479 339.926322909236, 38.227077159583565 339.16682465636734, 43.0456901371479 339.14861026644706 M36.62251867234707 340.3188328653574 C38.56510095849634 339.97763658189774, 41.46766310304403 340.1795985379219, 44.08552776277065 340.5106367021799 M40.99835543930531 337.21541070640086 C41.938442209661005 347.4138054203242, 41.54821842044592 352.07206036373975, 43.422898915410045 361.95354575812814 M42.49683370441198 340.65974567085505 C43.97575584232807 346.25935916639867, 43.01581173717975 355.25201618000864, 45.46705021709204 359.9810292497277 M45.214481526613234 360.2377711474895 C42.839603664428 360.56447664129735, 39.33959030419588 359.7709280954599, 35.50064779400825 360.72966457247736 M43.97551896989346 359.7161957269907 C41.19982628449797 360.3034112975597, 37.451418145000936 359.9098788688183, 35.97577293336391 360.45526640951635 M35.599567940831186 358.7440718621016 C38.18485899716615 351.31287306435405, 35.86267109662294 347.46555793359875, 32.89696908295154 339.1946031540632 M35.52842807620764 361.5516666188836 C37.152558497190476 353.73233922086655, 34.91723902583122 345.7456061221659, 35.18814349025488 341.2744180932641" stroke="#222222" stroke-width="1.5" fill="none"/></g><g id="leaf"><rect x="45" y="45" width="170" height="355" class="leaf-bg"/><g><path d="M45.28819020232478 44.66847509597495 C45.28819020232478 44.66847509597495, 45.28819020232478 44.66847509597495, 45.28819020232478 44.66847509597495 M45.28819020232478 44.66847509597495 C45.28819020232478 44.66847509597495, 45.28819020232478 44.66847509597495, 45.28819020232478 44.66847509597495 M46.707762780052754 56.65665117796225 C45.771425187437465 54.390794040625195, 51.485903412315544 51.084538206433116, 54.46112183247886 45.34980516135645 M45.38527638140428 56.635702017635985 C47.18008127383698 54.036706726335396, 51.84621379753365 50.32903367148637, 55.66184228114046 44.84658250523683 M45.65850532211655 68.29007773232135 C50.30020598140729 63.03290786839505, 54.36270992020755 55.99651085555926, 65.00754659451646 47.29820235625556 M44.57200176611834 68.87692614291282 C49.258408598703205 63.84426443811614, 55.22846932231961 57.35205611520995, 65.43890866056185 44.77649243392697 M44.114055206806476 81.91874019378055 C51.685016047918744 72.5540855681492, 58.157589009314115 65.4851528615751, 76.17729939642363 42.93431411593753 M44.095919954584055 82.51198016540337 C55.92013182707453 67.7495917466684, 70.19977933148017 52.232622441368825, 75.54259106080049 45.72824525110024 M45.435001972599935 94.32025040304251 C56.322349388430865 79.319575760231, 72.71507426332444 66.26450531457857, 85.89137974349686 43.805358584359745 M45.01906719273241 92.7324914175082 C57.2498295162933 80.68178617191347, 70.29197691925242 64.1180557512171, 87.80974811619052 46.16507687991903 M47.1992997210594 104.51704488354468 C58.53768795673329 91.95019889239612, 70.84431231160227 74.71132227106024, 98.56914798729858 45.65486603495968 M44.357739867282106 106.78134320000851 C64.26622957654862 83.397173238653, 84.4618045579879 60.85076583242185, 98.32972308845065 44.37557374616457 M42.91399977475688 120.76361348894739 C68.46819115615786 88.80838613801743, 93.58282775307865 60.76778207129759, 109.44012072939132 42.87871049117486 M43.723347210961435 119.17370651890838 C63.549099925997226 96.46379483610453, 82.1275021434533 74.55443447564689, 109.53053111429963 46.27840040061812 M43.46448679323587 132.70266108224254 C62.36711700005593 111.85791781823544, 77.58742425551463 93.29671998165313, 120.96897082133758 44.50010972644279 M45.53414741847012 130.09070176454347 C73.75544587356795 98.67791386642513, 103.18594175358375 65.92134266264178, 120.16635920545626 44.83479951906094 M46.403124599068406 141.46836501709043 C75.04877946743846 105.42617742607545, 111.23633555933918 69.43461640063181, 128.08052736469986 44.54462526420093 M43.866393472536444 141.3201561929178 C70.40642648832342 112.23013323303734, 94.35474458770742 85.13772962667892, 128.50506624863922 46.26109190227425 M42.99849229381692 155.84253681692857 C76.38798986671615 121.29917243555454, 104.7817282234213 82.28304905693233, 139.38477571104065 42.81516237788681 M44.666069259879116 155.45026560481267 C64.85720467478161 129.91188695621935, 85.48149546346042 106.98166986587877, 139.11568300556735 44.64117647603933 M43.60432522904398 165.78433175519442 C71.48850828507241 137.18337482134913, 92.51975053389313 112.738150391509, 152.80185746192245 44.06697009093792 M45.48033054221692 165.6368039260093 C81.44214435245827 124.36513024750619, 117.13889782001421 81.64516662907306, 151.6559121129593 45.739030291137404 M43.02845597732152 180.7599584355483 C89.5824421222577 125.83864487236247, 135.7787756818389 74.67444259672011, 162.38707046890775 45.18264117679178 M45.188945927278056 180.1703327875117 C75.62184428576194 142.1660295707438, 108.2644385595555 106.78743910029468, 160.45962808253387 44.01120852334976 M44.382050448193105 189.89884047098212 C77.26070825163359 154.59849702528805, 108.49388582815438 116.19179203221036, 172.3558688335591 43.947112158885865 M43.816032984762344 191.66986320465557 C74.61335251113407 155.3353335417451, 103.9892648888159 121.09893907593047, 172.12437730100984 44.0193444734576 M45.15455959775985 204.02299380027577 C90.69136043976422 151.4134464646807, 137.98028301295997 98.0410788310569, 184.4888289308697 45.37039473544494 M44.282692726831165 203.0749760018123 C96.40648301173265 141.72262382823786, 147.34538069493402 81.82969508711733, 183.42004202881213 44.681403915803585 M46.50958973020661 216.07682757210063 C106.11451022369977 150.0447954296693, 161.50111231881127 84.70798305437113, 193.97030983573558 46.468207935141756 M44.607749201521194 215.7428072379901 C98.13234882250912 152.25912306496005, 151.2825338208538 89.77641278347944, 194.32470160003865 45.925523728713266 M43.913626348968705 229.2480608301395 C91.6752926836108 172.4753209053603, 140.91432359911084 117.65968470801502, 204.0520910950223 43.65008954013461 M45.694538489699084 228.19510874636853 C106.1356834143498 158.77592677128513, 168.4295834642975 87.43246223553398, 204.97103675773155 43.91705513975132 M44.30653619420008 241.36839368800722 C104.57966988453234 169.93458911256542, 165.28094766948732 95.96529124706724, 213.00440576160807 43.35016063977551 M45.59925923537269 240.09863093127672 C87.55109273292946 192.17811536122292, 130.35828898179028 142.2864790302414, 214.36051464080205 44.67133893231688 M44.16363476055167 253.54912688036623 C90.11262229959627 199.13990605957343, 133.07458844776855 150.64159115605955, 213.99228813137705 54.358719732290915 M45.07236939571862 252.78309782412708 C108.40249130206793 178.3880129282927, 172.9265292536327 102.62473781447366, 215.9956468534709 56.037622725081796 M43.464521221476765 263.99226238881346 C102.67666693899672 201.8014519011681, 159.1678072672988 135.42209149903638, 215.95216131200888 66.36492540411244 M44.9743504281335 264.85543291608747 C89.12440967332539 215.2331633479231, 131.9821210077091 164.64181983247394, 215.7607742663767 68.4881048920811 M43.84625346813643 276.07971949011494 C94.62335630879626 218.58738132133365, 145.0886062569448 161.51595100955998, 217.65295675879517 78.77829821883707 M45.77967044738082 276.81730059617877 C87.22879618292005 230.03160728065959, 126.41963560880316 184.00543798643324, 215.66723203723302 79.70630209210877 M45.77397972458769 288.8182670834284 C114.60852089638833 215.1194939124468, 178.4419597741566 137.18558340661326, 214.59478768646102 91.79394079123914 M44.66417113259827 288.76448156183073 C86.58992323435596 241.11774312447054, 127.51374464090159 194.37429448666742, 215.9058339626504 93.8502817701817 M43.74142124884856 300.76869981419895 C94.14522970978595 247.88038372234809, 138.80493140466024 194.42392516461564, 215.43901129977036 103.89499840116389 M45.08378968310485 300.98938979931694 C97.65858800267382 241.11056592380967, 149.205013709027 181.621018891144, 215.87113908015462 105.14158772918704 M45.88368352820019 312.1333073888875 C101.52260761104928 250.24807094417514, 155.3281860815099 189.22396941572615, 214.7193230736334 115.69514593629714 M45.615601124324066 313.6975242846702 C98.47159173270995 252.92858686520142, 150.0205615274659 193.03423994252495, 214.70862403477486 117.61980919573158 M46.69259732590353 324.7777989206883 C110.91202075259483 250.7365764869349, 173.65012354632069 176.4134021686359, 216.29865151501807 128.20549460984137 M44.34488999387959 325.62057159321307 C98.15375451153508 263.8129694150196, 151.23178684544382 202.74421721800576, 215.51513510447458 129.47732126473815 M46.62488151183166 336.6358364514469 C82.99100856865948 293.64684576183515, 120.40364301711361 249.9879944664432, 217.04699293598497 142.91643029645473 M44.99234776503805 337.56999137706947 C93.70227949929999 282.78784242274315, 139.9757065396887 229.14330586681575, 215.72006865392666 141.35215345942447 M42.80943448155462 350.2375033235443 C106.03276968191658 277.6985931176024, 169.40283809751094 202.4203140234232, 215.48631152429164 152.29533902133076 M44.71379551723178 349.95606449593004 C87.44810411791242 303.08918677192116, 126.96279755968992 258.0747402978109, 215.69754647896968 154.05113228557494 M44.8110118223015 363.2707387090056 C91.30857960043149 304.6460596076376, 139.28387768828503 250.08078392388987, 214.1147882093546 166.82649108930707 M44.07410767702095 362.49893867116066 C110.92845610304363 285.9703216485092, 176.1022151281842 209.12171983167363, 216.26086994757 165.3810492856492 M43.51502728901727 372.4496231408369 C104.25172428737424 308.22726392786717, 165.715862260532 236.1648823174464, 217.0903976383064 178.5610402162021 M45.660749469150296 374.7670555421394 C87.90226401923216 323.0093384084183, 131.27156302095992 272.35983092445304, 216.31609825087872 177.40680249511897 M46.090414470325065 387.11483384213375 C113.17417136548154 311.021673863181, 182.6311909822332 232.79089022554595, 217.1958098419576 191.99674445792414 M44.85851665751154 385.88819632036535 C81.95879944328486 347.46001691181453, 116.1633580512819 306.3581732846387, 216.11625774419372 189.44272769657718 M44.314886109535394 398.6096879563046 C111.48568157610843 322.2491393028079, 176.96134203572984 244.40632554377103, 216.0014463558063 203.05360144069382 M45.18279694115248 398.99403454468126 C83.13621990403276 356.255959499774, 118.34771215933529 315.038196948975, 216.2752969429691 201.5371919749603 M56.1473721295842 401.75024059138406 C111.95521841144595 338.6920813223317, 166.1821665169438 275.43478185761916, 215.22864377859503 214.5146574486745 M53.668852063436034 399.9474107536054 C107.27759032888014 340.752516094278, 159.3365088152465 278.4227730902787, 215.8394780857567 215.0812040483969 M64.33189929712364 401.1055938659961 C107.26996890626233 356.2832986996967, 147.2379906222173 310.55995830545163, 217.27330808042217 226.63187626168144 M64.97859569038403 398.8260332582321 C110.92085453111247 345.47820553877955, 157.22229104925935 292.37375163142997, 214.4362590592088 226.7238699100065 M77.04765956406096 400.71489553606864 C108.98220547441159 360.68070554867865, 142.14573450479747 321.70845478754586, 216.6495656866375 236.94520703375233 M74.79429606197145 400.0787236130167 C114.35998213362024 355.8245021742309, 150.60796328929948 313.42523037528326, 215.1604523108209 238.59168043020657 M86.20555888653578 402.03263729469313 C136.19082006759558 347.0010225358193, 184.157664927814 291.7400327391455, 216.58820453587524 250.8414743032078 M87.53814353921297 400.02640667477084 C118.26815924114378 363.5212748405287, 151.286969109722 327.18541539771337, 214.52961207072786 250.124589174218 M96.63635752584534 401.21236630291025 C129.83621968175441 364.3295956916374, 161.07447669721674 327.0115591400943, 215.41507400064333 265.237586715839 M97.4180046809067 399.3021882700203 C138.31652330808856 353.93256196849984, 179.58427631849852 305.27853354158077, 215.36625914102956 263.29549829924764 M108.66572741570536 399.2050286157153 C149.19508545088627 350.67824435315293, 192.35118792390108 303.30156144076375, 217.4280391300244 277.8376236439955 M106.35364570657376 399.90884712432546 C137.67677536120308 366.498660682806, 167.2899692638405 329.68089789287643, 214.17488482577332 276.82620314036427 M116.94858446565945 399.8962978461005 C153.15113562845696 362.113940969053, 183.95062981490273 325.4115668326224, 215.49842208356196 289.47335245066955 M117.24730918591399 400.4372692530222 C141.703150443997 372.7692721937511, 166.151582466353 346.96591383385385, 214.24327856965894 288.04079283790367 M130.3318237482795 399.53832009772583 C147.0319075265821 381.7332334914966, 161.60506038410472 358.41735602266334, 213.31452418382807 300.31801298952143 M128.29673247665554 400.4475475371145 C157.1663097719691 367.841142202009, 188.16131131334282 331.4428381768355, 216.4422246054147 300.74506339786984 M138.10355561512813 399.7058756440289 C158.09151435067872 380.56088071587993, 173.1132048558117 359.9101770193419, 218.03086203238522 310.84247928398844 M140.00688384051725 400.8626434023834 C157.7856509255388 379.69231874708805, 174.0529565225123 357.46842564171334, 215.43723806975936 312.420179371044 M147.36204666776777 402.4260885084472 C162.15289225604968 383.3674391463303, 176.57769254244056 367.79843319984167, 217.6371084807959 324.1449691075082 M150.52140341421781 399.7355963996104 C172.80638971767058 373.5474020984665, 196.1151717508201 347.9833656916201, 215.42000597441162 323.1898834332074 M161.04071975776085 402.1534264644182 C173.41058343783791 383.9821822434198, 191.22128515083446 362.8282418785257, 213.52703360163198 336.2807535637409 M160.01010320947597 400.4620242045766 C179.78021668847842 379.8053379761573, 196.6334315971101 358.67537478995797, 215.8398281770997 336.38770596536403 M172.73315398666998 399.3447010353795 C186.09992710690886 383.14388419425705, 202.498151394571 359.8937109821637, 215.54774080443715 349.2183187656787 M171.4564671130105 399.5926226180634 C182.59130775965107 385.7791868672451, 195.1748614417617 371.85652434284975, 216.01535349752342 349.3506267328498 M183.1180847060577 402.03406749476846 C190.41087078258528 390.2738722379564, 199.5299165466433 381.33414096046823, 213.68831266178333 360.14262331698166 M180.6451508865402 399.8456655658519 C193.73671306470555 387.22493593075825, 206.16676622782515 372.31197607632237, 214.385725543411 360.15983236666847 M189.98440351748636 401.0080248660227 C195.63954485020145 391.6489656894916, 204.5990106865416 385.763630115795, 216.32904702523305 374.4112599910873 M191.3494821667837 400.3195050987234 C198.73053534550476 393.53291620796824, 204.48555485486943 385.396020388004, 215.52231882648124 372.8343780426014 M204.65615827251855 400.1804159225797 C205.274123516378 393.59227026244275, 212.20081293063174 392.19657077295517, 215.6103979963488 386.28416531143324 M202.91896046545986 399.9050713924592 C204.89907569703678 395.7958542541855, 208.9110020099731 392.3271653678109, 215.86017973345287 385.8983970614298 M213.3099985876267 400.28487740477374 C213.63182587721667 399.88880011576254, 214.4064306704227 398.76143102848107, 215.64060368530036 397.50325326677614 M213.3473792021123 400.0045192387683 C214.19099777120513 399.08370697633745, 214.75395706173092 398.3443575540424, 215.1947362752031 397.9975004613978" stroke="transparent" stroke-width="1" fill="none"/><path d="M43.28817433342338 45.46324867978692 C77.29001424144954 45.860568633936346, 111.19946141876281 44.43650940980762, 213.21066900715232 43.403644249588254 M46.16722251065075 45.59781162254512 C106.07179931979627 46.14756640892476, 167.77633836343884 46.52624507647008, 215.16036455519497 45.95744381658733 M213.5555636127253 43.66001386308069 C214.3967266875716 151.330446355427, 214.20894514684446 256.3348804881084, 214.72229030157905 400.94007552199764 M214.27665383106861 45.317479513000514 C213.315633122953 173.2894761995504, 212.85369362039404 302.8942563226466, 215.70596657021795 399.9908709904077 M217.27715286239982 400.4458209015429 C171.52728130239993 402.5297224063054, 123.66778068356216 401.04181888286024, 44.06371461376548 401.368121073395 M214.95409806855022 399.4678669881076 C149.22001816425472 400.4713455033675, 81.66209678351879 399.73347219947726, 44.95457425005734 400.8536245178431 M44.80730608664708 399.3956285411212 C45.18089714221688 300.5793736197368, 44.06342549165697 203.4877372771641, 43.506774977252526 44.61243095678253 M44.77307251669226 400.7466852520061 C44.371355706845 264.3504670866588, 43.29568644743485 127.873690787057, 44.609322469663 45.61326910275009" stroke="#222222" stroke-width="2" fill="none"/></g><g><path d="M59.946880917106036 60.061106514781784 C59.946880917106036 60.061106514781784, 59.946880917106036 60.061106514781784, 59.946880917106036 60.061106514781784 M59.946880917106036 60.061106514781784 C59.946880917106036 60.061106514781784, 59.946880917106036 60.061106514781784, 59.946880917106036 60.061106514781784 M62.51765607159044 71.08876722481813 C60.562466825076484 69.14283005371458, 66.9533993887503 65.8912945179302, 68.74838006119539 60.924901749481315 M60.85806529681589 71.06247808244791 C62.04978232960591 69.0210597411301, 66.84473403692327 65.58835950045736, 70.25516650657465 60.293406651605714 M61.226616194904 82.52305828699393 C65.80830093908226 77.36242747917638, 69.6177233892732 69.82949380614622, 80.02737491553846 62.58412664128246 M59.77794478690639 83.30552283444923 C64.16669788085196 78.7347501398056, 70.26698949617294 72.21791528768266, 80.60252433693233 59.22184674484434 M58.46690855187754 97.43569833118599 C66.15885394051566 87.71112086148878, 72.39547074546982 81.03926157665661, 91.37701536984281 56.77710726407021 M58.442728215580985 98.22668496001643 C70.33392956350941 82.9870808781505, 85.50724234386784 66.74536262277135, 90.53073758901195 60.50234877762049 M60.18378911264627 109.9574257922256 C70.60113165372766 94.67013269540779, 88.36856729415315 81.96783920225121, 100.78575921770184 57.94999816517828 M59.62920940615623 107.8404138115132 C71.97312615667475 96.3306254397667, 85.40715970738187 78.7959295468026, 103.34358371462672 61.096289225924 M62.49180431696969 119.53953228158551 C73.287512924161 107.74476003026513, 85.37682836752204 89.72862712734958, 114.14608692786558 60.42750637585665 M58.70305784526664 122.55859670353728 C78.94364982622507 98.6432480510097, 99.56319759157842 75.83776375466883, 113.82685372940166 58.72178332412984 M57.608434633597795 136.18172483051575 C83.42121476542192 103.0761941794073, 108.64792185127246 75.190161240579, 125.09735396908397 56.737463927355336 M58.687564548537196 134.06184887046373 C78.85876250163876 110.98688386268056, 97.36682645796736 88.97932061802568, 125.21790114896173 61.27038380661302 M58.2980355312806 148.08683547026627 C77.90486608410853 126.7320841556243, 92.601932701788 108.42206007754878, 136.9257908101071 58.910827850924335 M61.05758303159293 144.6042230466675 C89.26619328334617 113.55673200861496, 119.08706676832335 80.71752989634237, 135.85564198893198 59.35708090774854 M61.51577844977757 156.5155308123099 C89.2420611769782 120.5069402597538, 127.02251504456311 84.56211336963617, 142.8645029196849 58.98168017781366 M58.13347028106829 156.31791904674643 C85.41871404714277 126.84342228551286, 109.246498494808 100.04200509784937, 143.4305547649374 61.270302361911426 M56.931886915819746 171.66747372745107 C91.55981372088768 136.97303388950797, 119.53515918153988 96.32059521025433, 154.39347076656736 56.68722793927328 M59.15532287056933 171.1444454446299 C79.26576521337503 144.91580747746772, 99.96549593243056 122.16391182601042, 154.03468049260294 59.12191340347663 M57.695282369166605 180.90958082716253 C86.86978952563328 151.99471177094432, 106.90258680986328 128.61421762398987, 168.7395498195045 58.36780316655321 M60.19662278673052 180.7128770549157 C96.09181895026902 139.53779959174187, 131.64457022954517 96.43164281160993, 167.21162268755364 60.597216766819194 M61.03811542352068 192.08363624158048 C106.33705445240291 138.20119063487954, 151.10975242382113 89.33422722350323, 177.97647054724635 59.866862890903455 M63.91876869012939 191.29746871086502 C93.19035886454576 153.66824777905055, 125.41677452247629 119.49255561067002, 175.40654736541453 58.30495268631409 M73.29547072157503 188.17983952061823 C103.22471900541584 157.34115047378128, 130.8265053290304 122.28620183499748, 187.7248384185429 58.23098914357403 M72.54078077033401 190.54120316551618 C100.34385040797429 157.61254184601714, 126.15764108536608 127.32614200248028, 187.41618304181057 58.32729889633635 M84.79630441318407 191.0215780779763 C121.58838378185979 148.39965529789714, 161.03561725582298 104.57151615068356, 199.99607487315362 60.96459853603768 M83.4802382240738 189.59056353569466 C126.4226395003193 138.85797484984036, 167.1192056564361 90.0880135739067, 198.38276170337622 59.92458021148371 M97.33309696709779 191.03355894490468 C140.3019828509137 144.4637288235164, 177.3531419081883 99.31693326303358, 201.04394508992343 71.76761890177214 M94.37293206697372 190.51366505577553 C132.67669657163384 144.8831344280564, 169.6471520126437 100.26716717425077, 201.59554657583146 70.92294516835892 M103.64520385206622 192.84361415265334 C132.04875145075476 157.11986412577164, 163.04948827585042 124.39327290260458, 200.32209274053594 79.41304021046797 M106.50621581465882 191.15206046013367 C141.59710231369164 149.8323987754055, 179.9874000079391 106.17942462046047, 201.79836687773485 79.84191693977753 M115.06279650784882 192.53741031269513 C145.0862550012483 157.47088541426703, 174.270253599333 117.01181518709946, 197.66285940970312 90.94110617248415 M117.21294645376356 190.425449563367 C136.71596438457786 167.8922635524655, 157.8887177197854 142.45867847973318, 199.9184372406734 93.13858493922352 M125.2310984611766 192.7396102958344 C147.0285332067037 165.8732204394695, 163.51505632578906 148.44733331084066, 197.46516653718444 103.26873339929338 M126.74572055789396 191.46284093940483 C153.2068074907238 159.8475529627537, 180.93483441394045 125.38856401679439, 200.80423965128156 106.06702398129458 M134.47403115180904 190.04213071354405 C159.34161715464103 169.80265899656075, 181.573481315603 141.9048306373005, 200.642987649711 115.25183476170018 M136.99052011368448 191.48080940284507 C154.02641831499267 172.94874226574973, 169.28223191325003 153.2502009703174, 200.3239956831654 118.79061763992026 M145.51845004849622 190.085303597074 C162.34488752019996 171.60614492108382, 178.20597535593802 154.9971182978853, 203.38899418704221 127.9135768711773 M148.7409486367602 191.31465768806262 C161.48283339363132 175.91640592395976, 171.76631715565554 162.51610139759683, 200.0793123229594 129.46031572969827 M159.1380856199881 191.21258597767425 C178.04095422844273 174.5836065123662, 190.53582818489457 152.721949336783, 199.29879161792817 140.32554175897468 M157.2921721427461 191.12312602943254 C169.54126772175974 179.88682474562768, 179.88706009397137 168.540922485451, 201.47941808628858 143.7457959850036 M167.2535433350346 189.7705598865948 C180.21435407389012 180.7578452366707, 185.6373106649542 171.05038544539326, 200.61486041111874 152.46243645634243 M169.4909191472671 190.1383921613298 C179.61711518456622 179.68814264233458, 187.77992317439353 169.97761361267027, 201.33510398877786 154.54017364021132 M181.23230366238587 188.6089323550857 C187.20847254786662 182.24883433956563, 192.8636549424431 177.19691308173648, 198.67049700637358 164.85680257475326 M180.78548066594834 191.2160713181294 C186.40768446485134 182.0833027535187, 191.29047919409768 175.47618013504905, 198.65266451706188 168.06471100991914 M192.31271062839872 189.83219965878047 C196.1476682476483 185.90705160470236, 198.66129931022246 180.3262818840037, 200.94192788183696 178.0767706609061 M189.37795173611588 190.88571027363753 C193.50384328451966 187.1068657857359, 196.9327159107738 183.15057268820064, 199.96249074257918 179.6666215481898" stroke="transparent" stroke-width="1" fill="none"/><path d="M57.71756577789783 60.61766490638256 C85.71339549012482 60.88110133081675, 113.58603489473462 58.982355698645115, 197.61422534286976 57.87152566611767 M61.556296680867675 60.7970821633935 C109.97061176858843 61.21288912713528, 160.78487650230528 61.7177940171957, 200.21381940692663 61.27659175544977 M196.9983554393053 57.215410706400874 C198.20372664228083 100.14311821740121, 197.81350285306573 137.53068595789372, 199.42289891541003 191.95354575812817 M198.49683370441198 60.659745670855045 C198.8343848337233 106.15942062009125, 197.874440728575 155.05213908739387, 201.46705021709204 189.98102924972773 M203.0362038165331 190.59442786872387 C165.12715710811318 192.98060888737442, 124.40527165457607 190.9967375227809, 58.75161948502064 191.82416143119335 M199.93879742473365 189.29048931747676 C146.13789645768702 190.6544741857052, 89.9052068553865 189.67064311385155, 59.93943233340978 191.13816602379083 M59.599567940831186 188.74407186210155 C61.59087820872664 150.9794490130618, 59.26869030818343 116.79870983101426, 56.89696908295154 59.19460315406322 M59.52842807620764 191.55166661888362 C60.34514951273799 141.48941808175294, 58.109830041378736 91.25976384393871, 59.18814349025488 61.2744180932641" stroke="#222222" stroke-width="2" fill="none"/></g><g><path d="M60.08231579679649 209.90530650795012 C60.08231579679649 209.90530650795012, 60.08231579679649 209.90530650795012, 60.08231579679649 209.90530650795012 M60.08231579679649 209.90530650795012 C60.08231579679649 209.90530650795012, 60.08231579679649 209.90530650795012, 60.08231579679649 209.90530650795012 M62.6530909512809 220.93296721798643 C60.69790170476695 218.9870300468829, 67.08883426844076 215.73549451109852, 68.88381494088584 210.76910174264964 M60.99350017650635 220.9066780756162 C62.18521720929637 218.8652597342984, 66.98016891661374 215.4325594936257, 70.3906013862651 210.13760664477405 M60.70599204560392 233.12196786038498 C65.42761404046524 227.782836116836, 69.38771612830081 220.07656534904794, 80.1628097952289 212.4283266344508 M59.25732063760631 233.90443240784032 C63.81139306743685 229.12359188671525, 70.08603993427354 222.40618426161555, 80.73795921662277 209.06604673801266 M58.60234343156799 247.27989832435432 C66.2942888202061 237.5553208546571, 72.53090562516027 230.88346156982493, 91.51245024953326 206.62130725723853 M58.578163095271435 248.07088495318476 C70.46936444319986 232.83128087131882, 85.6426772235583 216.58956261593966, 90.6661724687024 210.34654877078881 M60.31922399233673 259.8016257853939 C70.73656653341813 244.51433268857608, 88.50400217384362 231.81203919541954, 100.92119409739232 207.7941981583466 M59.76464428584669 257.6846138046815 C72.10856103636522 246.17482543293502, 85.54259458707233 228.64012953997093, 103.4790185943172 210.9404892190923 M62.62723919666013 269.3837322747538 C73.42294780385144 257.5889600234334, 85.51226324721247 239.5728271205179, 114.28152180755602 210.27170636902497 M58.83849272495708 272.4027966967056 C79.0790847059155 248.487448044178, 99.69863247126884 225.68196374783713, 113.9622886090921 208.56598331729813 M57.743869513288246 286.025924823684 C83.55664964511237 252.92039417257556, 108.78335673096291 225.03436123374726, 125.23278884877442 206.58166392052365 M58.82299942822765 283.906048863632 C78.99419738132922 260.8310838558488, 97.50226133765781 238.82352061119394, 125.35333602865218 211.11458379978131 M57.777411381980535 298.68574504365745 C77.54224875357782 277.1624578819466, 92.38789970018469 258.68150708606487, 137.06122568979754 208.75502784409267 M60.536958882292865 295.2031326200587 C89.00751955224278 263.87159734991, 119.07847589620344 230.7447078174754, 135.99107686862243 209.20128090091688 M61.65121332946803 306.3597308054782 C89.37749605666866 270.3511402529221, 127.15794992425357 234.40631336280444, 142.99993779937535 208.82588017098195 M58.26890516075875 306.1621190399147 C85.55414892683322 276.68762227868115, 109.38193337449846 249.88620509101764, 143.56598964462785 211.1145023550797 M57.06732179551019 321.5116737206194 C91.49488435396444 287.06310509504453, 119.26143462415985 246.65085780647203, 153.8728466172673 207.28613751266437 M59.29075775025977 320.98864543779825 C79.26930028786555 294.9244487983912, 99.82538332383974 272.3378009033212, 153.51405634330288 209.72082297686774 M57.83071724885701 330.75378082033086 C86.84870199875682 302.00724300946143, 106.72943233904635 278.8016818705987, 168.2189256702044 208.9667127399443 M60.33205766642093 330.557077048084 C96.00955969776457 289.6450202562133, 131.333647938861 246.80191021110247, 166.69099853825355 211.19612634021027 M57.89325515825858 345.70138413586267 C104.19865059955318 290.620507432903, 150.01730173830964 240.55031254238804, 177.45584639794626 210.46577246429453 M60.773908424867294 344.9152166051472 C90.75475685165858 306.44003178140923, 123.68357935148303 271.456312973098, 174.88592321611443 208.90386225970516 M58.997606963474325 354.6276502786875 C92.23567967800138 319.75458919526676, 123.2797787566355 280.7397127153345, 187.2042142692428 208.82989871696512 M58.242917012233306 356.98901392358545 C89.22548853268864 320.13928746841253, 118.31285052155744 286.0870746093675, 186.89555889251048 208.9262084697274 M59.983237369274065 369.4462352331027 C105.28136253784268 317.03610275812093, 152.91565001466643 263.60887655243425, 199.83813111741833 210.739107095589 M58.820748208035816 368.1822115018181 C110.84473268129534 306.4810759257434, 161.28886035228803 246.72583825960743, 198.41308191467496 209.8204526694005 M61.786829124772886 381.52220798921866 C118.82176139489678 319.1975893303344, 170.20422461366735 257.8759164757488, 201.080126789573 221.31843938206097 M59.191833718926 381.06644883412514 C109.82658123448654 320.4350167249389, 159.8308248631484 261.08276266123823, 201.56368205425764 220.57796561401008 M64.6576701768683 387.67856463086025 C104.96334201741513 338.64879276700503, 147.4666871239974 292.37674760064056, 200.46290751884533 229.47246404045106 M67.21343161793361 386.16748821476733 C117.729317409206 327.8227785400156, 171.0159421999819 266.9791255552817, 201.78167324426926 229.85558253910503 M76.4907486770993 386.909475539007 C119.61699333492405 335.44920626733233, 162.59602145943938 279.1207698962779, 197.14223526040303 241.54001574587525 M78.64089862301405 384.79751478967887 C107.86878280898715 351.3726337793717, 138.65618698414576 314.87865813389874, 199.3978130913733 243.7374945126146 M86.65905063042707 387.1116755221463 C118.44396566987376 348.4395848809309, 145.05045240765457 319.37201132312885, 197.60060141687487 253.1129333924617 M88.17367272714444 385.8349061657167 C129.0008188045313 337.13723926458596, 171.3831297020318 285.8204250041654, 200.93967453097198 255.91122397446293 M95.90198332105956 384.4141959398559 C134.03183155569673 349.4607339129255, 168.84260847719705 307.0925217167527, 200.7784225294014 265.09603475486847 M98.418472282935 385.85287462915693 C125.41373276558315 356.180048318624, 150.49438859955242 325.179318909298, 200.45943056285583 268.6348176330886 M106.94640221774674 384.4573688233858 C135.02286562821675 353.25156331061095, 162.28002824022718 323.5328522984604, 203.52442906673267 277.75777686434554 M110.16890080601073 385.68672291437446 C132.52844357537248 359.95684595314754, 152.0016486837232 335.9849763188061, 200.21474720264985 279.30451572286654 M120.56603778923858 385.5846512039861 C155.11546121621546 352.16933049414325, 182.67893252475284 312.97323498358674, 199.4342264976186 290.169741752143 M118.72012431199659 385.4951912557444 C140.18244703870457 363.09011827595236, 159.8131197914955 341.06318296113113, 201.614852965979 293.58999597817194 M128.68149550428512 384.14262511290667 C152.5866225372496 363.2497097143003, 168.396859039455 341.59305127628454, 200.0942362618187 303.0613460297335 M130.91887131651762 384.5104573876417 C152.67937506391607 360.62285650676506, 172.54471212735896 337.450107746228, 200.81447983947783 305.13908321360236 M142.6602558316363 382.98099758139756 C161.66218966083832 362.41424714710723, 179.63855863914756 343.1884221038766, 198.80593188606395 314.70100256792153 M142.21343283519877 385.5881365444412 C160.08931394128214 363.0607796802974, 176.85502597456252 342.7839244096471, 198.78809939675224 317.9089110030874 M154.41667424004223 383.9526006407087 C172.911920979214 363.1169720707547, 189.48627809624142 340.464797994789, 201.34948481011395 327.52437797817987 M150.5036623836651 385.35728146051815 C167.02984800353877 367.3804361122745, 182.5617070201531 349.49730771960714, 200.0435686244369 329.64417916122477 M164.71198119825286 383.61339132209025 C171.5712247110267 374.50987464896684, 178.17238547839438 365.8818329028785, 202.50800050271863 344.0155542917586 M161.9909759775416 385.17038237024747 C173.63897605252976 372.69411168594695, 183.09763732422888 361.1247240008731, 200.2963660381567 341.40831542238953 M169.8542821750181 384.9224516567921 C181.24900876421458 374.6384833855515, 191.13937313377807 359.2951614250572, 200.911459432628 350.36173853990755 M173.02835213245325 384.4533670080041 C181.44212964452413 376.0181191614644, 186.52858920054908 370.90352889776034, 201.26353265353663 353.2881850209566 M183.5985576390881 386.54198867606414 C188.09742226039893 376.86056346968144, 193.1695807966163 372.06574267369734, 197.88065803960154 367.30797233409965 M182.37033186402508 385.25560060816304 C190.76270066278036 378.42381540820156, 195.90032767524593 369.3889047124351, 201.45761295721124 364.8988002715238 M193.15914169377888 383.4335035498563 C195.83414104880754 383.87210344956736, 199.09431329583816 379.1046767390434, 201.31378569330272 378.3931227380458 M194.76850172668003 385.17165172213055 C195.76992235764672 383.03324197749976, 196.95793318609037 381.0974406123021, 200.73303647089003 377.5274076543424" stroke="transparent" stroke-width="1" fill="none"/><path d="M57.71756577789783 210.61766490638257 C85.71339549012482 210.88110133081673, 113.58603489473462 208.9823556986451, 197.61422534286976 207.87152566611766 M61.556296680867675 210.7970821633935 C109.97061176858843 211.21288912713527, 160.78487650230528 211.7177940171957, 200.21381940692663 211.27659175544977 M196.9983554393053 207.21541070640086 C198.3122520919889 263.53238254347815, 197.9220283027738 314.30921461004766, 199.42289891541003 386.95354575812814 M198.49683370441198 210.65974567085505 C198.36746033020316 272.48217303296553, 197.40751622505485 337.6976439131424, 201.46705021709204 384.9810292497277 M203.0362038165331 385.59442786872387 C165.12715710811318 387.9806088873744, 124.40527165457607 385.99673752278085, 58.75161948502064 386.8241614311934 M199.93879742473365 384.2904893174767 C146.13789645768702 385.65447418570517, 89.9052068553865 384.6706431138515, 59.93943233340978 386.13816602379086 M59.599567940831186 383.7440718621016 C61.34788606800139 333.5703209920786, 59.025698167458174 286.9804537890479, 56.89696908295154 209.19460315406323 M59.52842807620764 386.5516666188836 C60.014845837280156 319.2082230702974, 57.7795263659209 251.69737382102758, 59.18814349025488 211.2744180932641" stroke="#222222" stroke-width="2" fill="none"/></g><g><path d="M182.32922700578152 223.56155106940878 C183.6269361721511 224.09705128069706, 186.13998153179534 224.8968613595679, 186.88681688825721 226.48352163826848 C187.6336522447191 228.07018191696906, 187.3484213640307 231.67404162262554, 186.81023914455272 233.0815127416122 C186.27205692507474 234.48898386059884, 184.66161717399825 234.55156436999854, 183.65772357138928 234.9283483521884 C182.65382996878031 235.30513233437827, 182.13374290748783 235.44590022707024, 180.78687752889894 235.3422166347513 C179.44001215031005 235.23853304243238, 177.032117979706 235.12680450075084, 175.57653129985593 234.3062467982748 C174.12094462000587 233.48568909579876, 171.99022529116226 231.64750741311332, 172.05335744979865 230.418870419895 C172.11648960843505 229.19023342667668, 174.78974913156034 228.18997660176763, 175.95532425167423 226.9344248389649 C177.1208993717881 225.67887307616218, 177.49350652344316 223.1017050599349, 179.04680817048194 222.8855598430786 C180.60010981752072 222.6694146262223, 184.10597478477757 225.37438720350173, 185.27513413390693 225.6375535378272 C186.4442934830363 225.90071987215265, 186.19798843456056 224.72206384589518, 186.06176426525803 224.46455784903145 M185.9610099573957 222.96772174494978 C186.967242863819 224.49918491332866, 186.72421631675957 229.45762057212445, 186.63815460058882 230.75630819077207 C186.55209288441807 232.0549958094197, 186.4508406748954 229.8179087244109, 185.44463966037117 230.75984745683547 C184.43843864584693 231.70178618926005, 181.49804845367336 235.3015594731309, 180.60094851344337 236.40794058531958 C179.70384857321338 237.51432169750825, 181.08010102452465 238.01009978387964, 180.0620400189912 237.39813412996742 C179.04397901345777 236.7861684760552, 175.37305637173995 234.4484787678894, 174.49258248024273 232.73614666184622 C173.6121085887455 231.02381455580303, 174.6395949819813 228.53559266867842, 174.77919667000788 227.12414149370835 C174.91879835803445 225.71269031873828, 174.80579965831208 225.08996715976136, 175.33019260840223 224.26743961202578 C175.85458555849237 223.4449120642902, 176.31017646636587 221.99615858879565, 177.92555437054867 222.1889762072949 C179.54093227473146 222.38179382579415, 184.0421701989447 225.34157631013147, 185.0224600334989 225.42434532302136 C186.00274986805312 225.50711433591124, 184.00791790428613 222.62303919799533, 183.80729337787398 222.6855902846343" stroke="none" stroke-width="0" fill="#e2c6ff"/><path d="M179.77287701472375 222.01330249835655 C181.07349834350572 221.99577249384478, 182.37750071115937 223.02980029563923, 183.6564944496384 224.36942559536183 C184.9354881881174 225.70905089508443, 187.39648877599544 228.12782791995738, 187.4468394455979 230.0510542966921 C187.49719011520037 231.9742806734268, 184.85927042571487 234.92377838670615, 183.95859846725324 235.90878385577005 C183.0579265087916 236.89378932483396, 183.26503117985138 236.07458250864738, 182.04280769482818 235.96108711107553 C180.820584209805 235.84759171350368, 177.92721864954078 235.76836164729878, 176.62525755711414 235.22781147033888 C175.3232964646875 234.68726129337898, 174.4716699921521 233.96925685936003, 174.23104114026833 232.71778604931623 C173.99041228838456 231.46631523927243, 174.73508956547323 229.1942764682053, 175.18148444581155 227.71898661007617 C175.62787932614987 226.24369675194706, 176.069513889834 224.83234087818732, 176.90941042229818 223.86604690054156 C177.74930695476235 222.8997529228958, 179.48474793241056 221.82661267928177, 180.22086364059658 221.92122274420163 C180.9569793487826 222.0158328091215, 181.3129969827686 224.07600913261965, 181.32610467141427 224.43370729006068 M177.5176107271827 223.02404464760548 C178.1831287118031 222.6473239931731, 179.6538626983335 224.53659532117038, 181.13272912650586 225.08796663191714 C182.61159555467822 225.6393379426639, 185.7766619817268 224.89963058503346, 186.39080929621687 226.33227251208606 C187.00495661070696 227.76491443913866, 185.00765176745995 232.05867659389799, 184.8176130134464 233.68381819423274 C184.62757425943283 235.3089597945675, 186.40607372030155 235.3890739888348, 185.25057677213545 236.08312211409458 C184.09507982396934 236.77717023935435, 179.27553854298608 237.766191797155, 177.88463132444974 237.84810694579133 C176.4937241059134 237.93002209442767, 177.55118186746606 237.61416216149715, 176.90513346091737 236.57461300591268 C176.25908505436868 235.5350638503282, 174.1498526123639 233.6006460400803, 174.00834088515762 231.61081201228453 C173.86682915795134 229.62097798448875, 175.3160634523081 226.2046123974854, 176.05606309767975 224.63560883913806 C176.7960627430514 223.06660528079072, 177.7142382240786 222.0622674056939, 178.4483387573875 222.19679066220053 C179.18243929069638 222.33131391870717, 180.35306761311432 225.1939300100699, 180.46066629753315 225.44274837817795" stroke="#222222" stroke-width="2" fill="none"/></g><g><path d="M179.16894337030587 225.97487494784042 C179.16894337030587 225.97487494784042, 179.16894337030587 225.97487494784042, 179.16894337030587 225.97487494784042 M179.16894337030587 225.97487494784042 C179.16894337030587 225.97487494784042, 179.16894337030587 225.97487494784042, 179.16894337030587 225.97487494784042" stroke="transparent" stroke-width="1" fill="none"/><path d="M179.20684326335675 225.93127610823768 C179.76003951618142 225.83963312547783, 180.12533643768364 226.2788380602179, 180.88541914780782 226.97876115976013 C181.645501857932 227.67868425930234, 183.73285057666203 229.0570001775753, 183.76733952410177 230.13081470549102 C183.8018284715415 231.20462923340673, 181.49841533079507 233.0983151114245, 181.09235283244618 233.4216483272544 C180.6862903340973 233.74498154308426, 181.77954064000195 232.348638254735, 181.33096453400836 232.07081400047022 C180.88238842801476 231.79298974620545, 179.01217019774563 231.88534714041901, 178.40089619648464 231.75470280166576 C177.78962219522364 231.6240584629125, 177.61940274111282 231.74607774218117, 177.6633205264424 231.28694796795074 C177.70723831177196 230.8278181937203, 178.47274437879838 229.671182957539, 178.66440290846197 228.99992415628319 C178.85606143812555 228.32866535502737, 178.71783167011031 227.80237086157234, 178.8132717044238 227.25939516041578 C178.9087117387373 226.7164194592592, 179.04499955633835 225.613227132723, 179.2370431143429 225.7420699493438 C179.42908667234744 225.8709127659646, 179.93602835503452 227.73843468945194, 179.9655330524511 228.0324520601406 M178.04673887637327 226.9480011913569 C177.97768384483172 226.7374209635287, 178.38881463853676 228.3558242642334, 179.19702708656993 228.46033913155452 C180.0052395346031 228.56485399887563, 182.52902185345766 226.94922139036603, 182.8960135645723 227.57509039528364 C183.26300527568696 228.20095940020124, 181.29702648023513 231.37960294502048, 181.3989773532578 232.21555316106011 C181.50092822628048 233.05150337709975, 183.96870608502005 232.29908199311998, 183.50771880270838 232.59079169152145 C183.04673152039672 232.8825013899229, 179.25189996452 233.71112305083352, 178.63305365938783 233.96581135146894 C178.01420735425566 234.22049965210437, 179.9523330993932 234.491428398042, 179.79464097191533 234.1189214953339 C179.63694884443746 233.7464145926258, 177.85226830744216 232.8714090927321, 177.68690089452065 231.73076993522028 C177.52153348159914 230.59013077770845, 178.58734215904335 228.21009033847426, 178.80243649438626 227.27508655026287 C179.01753082972917 226.34008276205148, 178.61467100835245 225.78522399915337, 178.97746690657806 226.12074720595194 C179.34026280480367 226.4562704127505, 180.88043200180758 229.10480669867545, 180.9792118837399 229.28822579105432" stroke="#222222" stroke-width="2" fill="none"/></g></g></svg>
