<?xml version="1.0" encoding="UTF-8"?>
<svg xmlns="http://www.w3.org/2000/svg" width="64" height="64" viewBox="0 0 64 64"><g><path d="M24.938185022757033 13.728355545397076 C24.938185022757033 13.728355545397076, 24.938185022757033 13.728355545397076, 24.938185022757033 13.728355545397076 M24.938185022757033 13.728355545397076 C24.938185022757033 13.728355545397076, 24.938185022757033 13.728355545397076, 24.938185022757033 13.728355545397076 M27.318246237492943 32.003197172562 C32.86138172103192 27.659036217952842, 36.883683561323444 22.94126315931432, 40.28861867595974 15.069116802016472 M26.92964536429086 32.250446834693065 C31.099202817864317 28.36696350879001, 34.90130707734433 23.589362420322573, 41.780388062042626 16.269152409086203" stroke="transparent" stroke-width="1.7" fill="none"/><path d="M30.935946023575983 10.359565464498678 C33.16367090826139 10.01679964002929, 36.08874595566618 10.575509346504859, 38.250395041785715 11.990720271410273 C40.412044127905254 13.405931196315688, 43.22746515950105 16.326304950989247, 43.905840540293205 18.85083101393116 C44.58421592108536 21.375357076873073, 43.556439346104845 24.800987666752253, 42.32064732653865 27.13787664906174 C41.08485530697245 29.47476563137123, 38.73092989257254 31.968878055038385, 36.49108842289602 32.87216490778809 C34.2512469532195 33.7754517605378, 31.354187063672086 33.21686913712107, 28.88159850847951 32.557597765559976 C26.409009953286933 31.89832639399888, 23.064359460599338 30.95410994023908, 21.655557091740558 28.916536678421515 C20.24675472288178 26.878963416603952, 19.912833775974256 22.827682983227383, 20.428784295326835 20.3321581946546 C20.944734814679414 17.836633406081816, 22.76279377239954 15.657406909684383, 24.751260207856042 13.94338794698481 C26.739726643312544 12.229368984285237, 30.975706399189335 10.503820017255316, 32.35958290806585 10.048044418457165 C33.74345941694237 9.592268819659013, 33.22890886669296 11.01307668712383, 33.054519261115146 11.208734354195897 M30.31272009395667 10.573754261211285 C32.44690103455144 10.189438577220582, 34.89401762520301 11.41733659686478, 37.20922856649567 12.811412544657236 C39.52443950778832 14.20548849244969, 43.148831840131514 16.823507041207996, 44.203985741712586 18.93820994796602 C45.25913964329366 21.052912854724042, 44.91252099832277 23.44049559791036, 43.540151975982106 25.49962998520537 C42.16778295364144 27.55876437250038, 38.18814478728623 30.055831856677575, 35.969771607668605 31.293016271736086 C33.75139842805098 32.53020068679459, 32.3185240187736 33.42570711894079, 30.229912898276382 32.922736475556434 C28.141301777779162 32.419765832172075, 25.04894857812853 30.408492861769773, 23.438104884685288 28.275192411429916 C21.827261191242044 26.14189196109006, 20.44025506242138 22.340762956844802, 20.564850737616922 20.122933773517303 C20.689446412812465 17.905104590189804, 22.415754939617717 16.592141335378596, 24.18567893585854 14.968217311464926 C25.955602932099364 13.344293287551258, 29.981518059412213 11.082919363054113, 31.18439471506186 10.379389630035293 C32.3872713707115 9.675859897016473, 31.610983873128454 10.501764999489215, 31.40293886975642 10.747038913352005" stroke="#222222" stroke-width="3.4" fill="none"/></g><g><path d="M21.774998052418233 34.73098828047514 C20.450742502682655 38.41088565974459, 18.13446406068727 43.371626131282746, 12.90959816724062 54.81313087195158 M21.999499329179525 34.8321188248694 C19.03511951348856 43.2747358746089, 15.064377141065151 50.60284645708352, 14.42092111930251 55.88334985151887" stroke="#222222" stroke-width="3.4" fill="none"/></g><g><path d="M13.774998052418232 55.73098828047514 C21.3412749376148 55.3310144287318, 27.832315311580896 56.088261829015615, 48.90959816724062 54.81313087195158 M13.999499329179525 55.8321188248694 C28.248515213653445 56.090849689027664, 41.43865277171135 55.22854030468166, 50.42092111930251 55.88334985151887" stroke="#222222" stroke-width="3.4" fill="none"/></g><g><path d="M49.77499805241823 55.73098828047514 C48.61716974062398 51.0038995172359, 46.3008912986286 47.557653846265374, 40.90959816724062 33.81313087195158 M49.99949932917953 55.8321188248694 C47.1401510528557 47.893895940967646, 43.169408680432284 38.84116658980101, 42.42092111930251 34.88334985151887" stroke="#222222" stroke-width="3.4" fill="none"/></g></svg>
