<?xml version="1.0" encoding="UTF-8"?>
<svg xmlns="http://www.w3.org/2000/svg" width="128" height="128" viewBox="0 0 128 128"><g><path d="M81.06943642142683 10.916512447969659 C89.61176854622781 13.230000107237329, 99.07500183539106 19.86471212244034, 104.99724864881568 26.877598655866386 C110.9194954622403 33.890485189292434, 114.90539537802913 43.763248901588156, 116.60291730197457 52.993831648525926 C118.30043922592002 62.2244143954637, 118.15422112779665 73.18671903059465, 115.18238019248834 82.261095137493 C112.21053925718003 91.33547124439136, 105.4002943838561 101.2466160107098, 98.77187169012471 107.44008828991605 C92.14344899639332 113.6335605691223, 83.98448779492043 117.8378918005174, 75.41184403009996 119.42192881273044 C66.83920026527949 121.00596582494349, 55.874538265087146 119.8500508557166, 47.336009101201924 116.94431036319432 C38.7974799373167 114.03856987067203, 30.12139855126282 108.97835204509647, 24.180669046788616 101.98748585759672 C18.23993954231441 94.99661967009698, 13.645035790609048 84.29969243150464, 11.691632074356697 74.99911323819579 C9.738228358104346 65.69853404488694, 9.68686859229605 55.055159564794835, 12.460246749274503 46.18401069774366 C15.233624906252958 37.31286183069248, 21.421383659114447 27.974196223013937, 28.33190101622742 21.772220035888758 C35.24241837334039 15.570243848763578, 43.948940998196704 10.47190821824898, 53.92335089195234 8.972153574992575 C63.89776078570797 7.472398931736169, 81.38676403075866 11.240063334424596, 88.17836037876123 12.773692176350323 C94.9699567267638 14.30732101827605, 94.97332073844508 17.106830901894558, 94.67292897996776 18.173926626546944 M55.73068615435234 6.877456712314988 C63.750124279601316 4.613323996317041, 73.8455749339045 6.3273842217172565, 82.04264768633797 9.652873119647502 C90.23972043877144 12.978362017577748, 99.00747159170585 19.193104286325052, 104.91312266895316 26.830390099896462 C110.81877374620048 34.46767591346787, 116.07783482301093 45.93364683869963, 117.47655414982188 55.47658800107596 C118.87527347663283 65.01952916345229, 116.58087081679116 75.40953539904429, 113.30543862981882 84.08803707415446 C110.03000644284649 92.76653874926463, 104.53206247884893 101.67707207559762, 97.82396102798788 107.547598051737 C91.11585957712683 113.41812402787637, 81.96677604222047 117.55877104307663, 73.05682992465256 119.3111929309907 C64.14688380708465 121.06361481890477, 52.79500593844869 121.05190513797524, 44.364284322580424 118.06212937922137 C35.93356270671216 115.07235362046751, 28.119210124196115 108.86000401627193, 22.472500229442957 101.37253837846747 C16.8257903346898 93.885072740663, 11.863039834675869 82.82695436081185, 10.484024954061475 73.1373355523946 C9.105010073447081 63.44771674397736, 10.899630799861875 52.13400206057138, 14.198410945756592 43.23482552796399 C17.49719109165131 34.3356489953566, 23.36465062664708 25.661243322741587, 30.27670582942978 19.742276356750253 C37.18876103221248 13.823309390758919, 51.41948884836213 9.671233591555623, 55.6707421624528 7.721023732015993 C59.921995476543465 5.770813872476364, 55.877083817819596 6.948316274153471, 55.784225713973775 8.041017199512474" stroke="#111111" stroke-width="3" fill="none"/></g></svg>
