<?xml version="1.0" encoding="UTF-8"?>
<svg xmlns="http://www.w3.org/2000/svg" width="360" height="400" viewBox="0 0 360 400"><g><path d="M17.905443725229638 58.4074125599312 C84.6592411309221 60.43695064196374, 146.51948317616 63.04066638101425, 340.7024334992757 58.4020915374587 M19.743864031810542 60.11879152670033 C114.39931780460653 62.05029522987993, 210.5987149421696 62.12772829139925, 340.6554546352689 60.64914106446875 M338.46874904503204 60.549952741748136 C338.8435908468093 168.98527528353682, 339.9402577963594 275.6030538007093, 340.4231305727593 381.5613536636535 M339.47761834347745 59.40204999991406 C339.86732518933945 148.15770510308224, 340.9050006075403 234.63236542513204, 340.09326332201783 379.7839611216764 M338.12866332771364 381.0872240645067 C258.7037256888809 383.83145411655016, 173.97740803944717 380.8621937836478, 19.08779073912694 381.1045483964882 M339.3449277784106 381.0113576568379 C215.00971213952062 379.4369137739675, 91.9199409307053 380.06529701471277, 20.457655109022696 380.7952876346278 M19.721375034333963 378.08737833472543 C20.644100778171264 303.18106137961166, 19.84383679637822 224.20327070237187, 18.798466822719472 59.3118794917001 M20.161890218384823 380.97157765378284 C17.619207162814263 290.49269570841665, 16.836254558710518 201.10115324670252, 19.48668991516783 60.52209506627471" stroke="#111111" stroke-width="3" fill="none"/></g><g><path d="M43.00025403392434 83.67849236178424 C95.22412771591296 77.41252897551497, 152.4077427156731 81.57272310948002, 320.17539688488085 83.00964768412616 M42.12455588737629 81.2782123408227 C130.84409671910907 81.34236925612426, 217.27776966774042 80.76712613203885, 316.8909824091908 82.43043565062828 M315.770911852403 82.89821854555453 C317.60070365622255 180.36259821086037, 319.6144197609841 278.3120224267846, 317.7605331710456 356.39665074270914 M318.92812079321465 81.57223006393343 C316.9874948918317 174.97820763457992, 317.0012438095131 269.2840332572091, 317.41504442210714 357.00996313491356 M319.47367549235497 356.6336690675866 C242.75679841215862 359.374583441815, 166.3404809420922 360.1035382162517, 40.80251109810506 356.43232222931226 M317.3419136744278 357.7906571037256 C217.7263288820918 360.19022880219075, 117.19955074270169 360.5695679203024, 42.434791624613375 357.76720651238793 M43.1762115432212 357.8803844304318 C42.46720482145884 264.1514746407457, 44.21334630131272 173.99225530658512, 43.678922206672 82.16068386406481 M41.2717249281898 359.07131504984164 C41.29006183770342 291.0834810812544, 41.01206985550344 223.6074542143446, 43.10408801642261 82.5629139357796" stroke="#111111" stroke-width="2" fill="none"/></g><g><path d="M17.007597206160426 57.724738569930196 C52.80008403509855 51.44446842260659, 81.68699343055486 47.15673293806613, 181.0035366397351 17.717136653140187 M19.634069518186152 60.16971236374229 C67.02301746364684 48.97493899371475, 116.26493710037323 37.21438598390668, 180.93641994986683 20.92740002181381" stroke="#111111" stroke-width="2" fill="none"/></g><g><path d="M337.0075972061604 57.724738569930196 C308.73966334313155 49.10000512488186, 273.56615204662086 44.8122696403414, 181.0035366397351 17.717136653140187 M339.63406951818615 60.16971236374229 C292.0535910105333 44.80883572306484, 246.32608419414612 33.04828271325677, 180.93641994986683 20.92740002181381" stroke="#111111" stroke-width="2" fill="none"/></g></svg>
