<?xml version="1.0" encoding="UTF-8"?>
<svg xmlns="http://www.w3.org/2000/svg" width="300" height="430" viewBox="0 0 300 430"><g><path d="M47.556302136855614 148.14194415731637 C51.13571774705124 198.64242117000956, 48.568791318618416 251.72735395484702, 50.81952214025343 398.1357361736005 M49.70116872691443 150.13859288645233 C47.53421242584592 223.18474178279024, 48.96920692540836 297.4699465779376, 50.76471236933955 400.7573463894139" stroke="#222222" stroke-width="2" fill="none"/></g><g><path d="M47.306915288017024 397.95232386973436 C90.80769887967645 399.7705776571343, 128.01657268250608 403.11831633364955, 250.90315688380895 397.9454823422732 M49.67067208056007 400.1527367148466 C108.62287189368692 401.23015664938123, 169.56020350866888 401.32971654027153, 250.84275360796144 400.83463590723187" stroke="#222222" stroke-width="2" fill="none"/></g><g><path d="M247.5563021368556 398.1419441573164 C250.2615578904746 348.5480138388111, 247.69463146204177 301.53853929245014, 250.81952214025344 148.1357361736005 M249.70116872691443 400.13859288645233 C251.13550745430433 324.7950129498003, 252.57050195386677 250.69048891195771, 250.76471236933955 150.7573463894139" stroke="#222222" stroke-width="2" fill="none"/></g><g><path d="M52.18917012434045 154.64156938842794 C49.92839789445261 146.9654420210762, 51.005498243250706 138.82407813154464, 54.075961968727825 130.53221979710167 C57.14642569420494 122.24036146265871, 63.85993061788357 112.15370466035102, 70.61195247720318 104.89041938177019 C77.36397433652277 97.62713410318935, 85.60035550789942 91.6393642787291, 94.58809312464544 86.95250812561662 C103.57583074139146 82.26565197250413, 113.61507700882473 78.85969855492219, 124.53837817767925 76.76928246309524 C135.46167934653377 74.67886637126828, 148.9446212756216 73.32563613284692, 160.1279001377726 74.41001157465487 C171.31117899992358 75.49438701646282, 181.7436816205694 79.2540009882568, 191.6380513505851 83.27553511394296 C201.5324210806008 87.29706923962912, 211.304559803213 92.46528829947947, 219.49411851786692 98.53921632877186 C227.68367723252084 104.61314435806425, 236.08273797884158 111.91416846018336, 240.77540363850852 119.7191032896973 C245.46806929817546 127.52403811921124, 246.36220771229742 140.32200918747168, 247.65011247586867 145.36882530585547 C248.93801723943992 150.41564142423925, 248.3607122625914 149.22813755097587, 248.50283221993595 149.99999999999997 M53.96553813737343 159.55312097590206 C51.373001754123585 151.63658941806855, 52.90420815990386 141.26181331847187, 55.53570728042395 132.6105722274359 C58.16720640094404 123.95933113639994, 63.63904729148005 114.77915865879055, 69.75453286049397 107.64567442968624 C75.8700184295079 100.51219020058193, 83.63964934762447 94.98944704533776, 92.22862069450747 89.80966685281001 C100.81759204139047 84.62988666028227, 110.90394810692301 78.70730690775716, 121.28836094179192 76.56699327451982 C131.67277377666085 74.42667964128248, 143.08473393380328 76.14117095235167, 154.53509770372096 76.96778505338598 C165.98546147363865 77.79439915442029, 179.36395818759868 78.48326997027726, 189.990543561298 81.52667788072563 C200.61712893499734 84.570085791174, 210.39436977704793 89.37201891247126, 218.294609945917 95.22823251607619 C226.19485011478605 101.08444611968112, 232.24956215709494 109.2369858426029, 237.39198457451238 116.6639595023552 C242.5344069919298 124.09093316210749, 247.29733650951758 134.2340677249825, 249.14914445042152 139.79007447458997 C251.00095239132546 145.34608122419743, 248.61055092501687 148.29834574576498, 248.50283221993595 149.99999999999997" stroke="#222222" stroke-width="2" fill="none"/></g><g><path d="M116.6793185766757 105.4028231961851 C116.6793185766757 105.4028231961851, 116.6793185766757 105.4028231961851, 116.6793185766757 105.4028231961851 M116.6793185766757 105.4028231961851 C116.6793185766757 105.4028231961851, 116.6793185766757 105.4028231961851, 116.6793185766757 105.4028231961851 M100.32032382718114 134.3295065394612 C113.14357648316 122.45483330818848, 121.31471848601859 112.49966160828436, 134.9008915896576 97.43146191425808 M102.7395069296175 132.7170442451732 C116.42842187044712 120.13946190726011, 126.62062169850867 106.49133635212316, 133.5285557952758 99.41033131051995 M92.11945504942838 156.01467788797308 C100.19770220205163 148.07336614649003, 114.49415278542483 132.7825727885813, 149.1421923283989 95.25754268767072 M90.78251654623006 159.6561900015964 C112.4016173397475 134.33103609431504, 130.29265437167527 113.96546247713869, 145.7988272822032 95.6833977757184 M93.26689583402974 172.34877401081368 C106.21104617297028 155.6125550881927, 123.62656905948047 134.25047428525414, 159.17671714753183 95.46389391314568 M92.3767671293105 170.94606850811735 C116.77295542155285 141.16579199134884, 140.12444952159842 113.48985749886928, 156.49887852121415 97.5155629324201 M96.31882589969679 180.90485847518445 C111.90010246905995 158.56723879809851, 133.62135903203378 138.87056405757255, 164.9796996155307 100.2695115273151 M95.23740446202352 179.61064054873438 C110.91854624468783 162.5049609979038, 126.10394742475611 144.5368447396388, 166.40841695773605 98.88433712155404 M93.79888158297979 186.89272885949967 C121.85741726366271 159.06421713379785, 149.66675795100156 127.16777107453919, 176.5290903099078 102.56652666270217 M97.12222625787251 189.06353060615865 C126.3760435448709 156.4974083609847, 156.6002869182833 120.27663373410448, 174.1663123587343 99.9120455674403 M103.60612457735297 193.63880297539146 C131.042824042986 160.087899832456, 164.60969554087248 125.03701030171352, 182.49382070125125 102.62654396861227 M100.77090089978483 197.55666308381916 C132.87445496192277 159.37590062798824, 163.3034989452891 122.52146401304478, 180.4901106967502 104.54091669868113 M103.86242038239514 200.61310089194242 C127.26152923552303 182.29907354599794, 152.01375196514186 153.9853066372661, 188.01142470404494 107.44865958690032 M105.28359588929241 204.1759943300954 C133.75729407729185 168.22295900741375, 164.38404690688773 131.99865811621078, 186.48490570072073 109.84985012392833 M110.72188276763751 211.04139165212132 C129.44744204473778 185.0521641757135, 150.0904444216494 164.1481421492676, 193.50359421282008 114.52231443553505 M111.46167231037958 209.42240935475297 C139.12071920421658 177.7022639727033, 168.0459030215951 143.77716796603215, 192.99014439213022 115.78601991544751 M117.05913765660179 218.6115315936741 C142.10164527552843 185.79014793727717, 162.40048808882742 159.69753479246071, 199.26897424710788 121.74124630748518 M117.02719871352119 215.88681014983473 C138.3957440382638 189.80882234315146, 164.24125765915943 163.26384602038462, 198.70367222996302 122.04757670800426 M124.43788215579083 220.40625476890128 C141.2635358582173 197.02013816990646, 164.46363674094167 168.78214799631235, 204.82748586446814 131.35511861138784 M124.1227601446732 219.15165610943805 C148.6733756211283 191.0086047285359, 171.3011188489305 164.13468966952766, 202.05730602373205 128.00402643953257 M131.8627942647833 220.13776874688534 C151.2859235082703 199.81113104445538, 167.55247391187376 175.83842841091987, 203.48129839241307 139.61934372976617 M130.5946178553674 221.9943098319423 C156.4495242367125 191.61063254613293, 181.46567979068737 163.86330962287025, 207.30905616540264 136.31480370935247 M140.276859282101 225.2693204903724 C164.9471806796625 196.72251340926294, 190.3434802941644 169.86131758754502, 210.34703428345497 142.25613092014345 M140.02128570857872 227.47735299689046 C166.8759224336758 194.25239319294147, 193.89433207686852 163.92721258024062, 210.10658148444023 145.35906967928412 M142.62539757328454 230.7403729975539 C166.5345759363784 205.96904267335842, 190.44662712224445 177.258815700686, 214.35615105712503 149.65140547548836 M145.30880794680093 230.64251300677086 C172.62456721082165 203.61572458544066, 197.2071280739764 174.39891560652637, 215.0188211898291 151.40138123409307 M157.04127291877992 229.5975903393936 C176.3425429187929 206.97390495530152, 197.02835113011938 181.051266462143, 216.3189690680495 164.5799853659974 M158.4072175399331 228.11039802434414 C173.84494692747444 209.71663408046106, 190.59301115414067 191.10726630859412, 213.1312726381487 164.28561762327269 M171.72409387614675 225.28594842452867 C184.97432775094984 206.0867144459693, 199.97933668884644 191.9988769693233, 210.63864723071217 183.02534173352547 M172.720987547488 223.3403577375443 C181.58095310088328 214.48527260175413, 189.80814655299747 204.69893925055294, 211.29121705833583 180.22349095547474" stroke="transparent" stroke-width="1" fill="none"/><path d="M116.465757690734 105.64849689239058 C123.45613590866465 99.57726935712522, 135.90312224215353 94.58534366219075, 145.36695055981284 93.40272371407787 C154.83077887747214 92.22010376596498, 164.96156738583193 94.48086369393867, 173.24872759668992 98.55277720371325 C181.5358878075479 102.62469071348782, 189.1266150655732 109.97185702376848, 195.0899118249608 117.83420477272533 C201.05320858434843 125.69655252168218, 207.10932723107612 135.54781414844496, 209.0285081530156 145.72686369745438 C210.94768907495506 155.9059132464638, 209.36843720276218 168.82783061210844, 206.6049973565977 178.90850206678192 C203.8415575104332 188.9891735214554, 198.5067843890618 198.90601336235744, 192.4478690760286 206.21089242549527 C186.3889537629954 213.5157714886331, 178.9830434628063 219.47845684962607, 170.25150547839849 222.73777644560886 C161.51996749399066 225.99709604159165, 149.59740239242566 227.37190925427876, 140.05864116958168 225.76681000139192 C130.5198799467377 224.16171074850507, 120.37617329114826 219.11677083282422, 113.01893814133452 213.10718092828776 C105.66170299152077 207.0975910237513, 99.61801729515207 198.81145439476563, 95.91523027069918 189.70927057417327 C92.2124432462463 180.60708675358092, 90.44198482958979 168.6874783174642, 90.80221599461723 158.49407800473364 C91.16244715964467 148.30067769200306, 93.36468671993944 137.67730609521786, 98.07661726086386 128.54886869778983 C102.78854780178827 119.4204313003618, 115.04574409625033 108.0450226148721, 119.07379924016375 103.72345362016549 C123.10185438407717 99.40188462545888, 121.8102878627814 101.93997435110704, 122.24494812434438 102.61945472955017 M186.89299354683283 107.48907443969108 C194.23135407302996 112.55284813658834, 199.6251280162339 123.48148901347359, 203.69087153025436 132.4698109461993 C207.7566150442748 141.45813287892497, 211.42223113309996 151.00422229435847, 211.2874546309556 161.41900603604523 C211.15267812881126 171.833789777732, 207.48618026706816 186.00527696571007, 202.88221251738827 194.95851339631992 C198.27824476770837 203.91174982692976, 191.96485352289082 210.2042677115276, 183.6636481328763 215.1384246197043 C175.36244274286176 220.072581527881, 162.52591524395896 223.40047331315515, 153.07498017730111 224.56345484538008 C143.62404511064327 225.726436377605, 135.66753043781367 226.12546607687858, 126.95803773292921 222.11631381305395 C118.24854502804476 218.10716154922932, 107.0545868999003 208.43736766060658, 100.81802394799442 200.50854126243223 C94.58146099608854 192.57971486425788, 91.19356601154867 184.43551535915825, 89.53866002149391 174.5433554240079 C87.88375403143915 164.65119548885755, 87.79616683240206 151.0029174765418, 90.88858800766585 141.15558165153013 C93.98100918292963 131.30824582651846, 101.13854700248352 122.4607806276264, 108.09318707307658 115.45934047393796 C115.04782714366964 108.45790032024951, 124.10950413083052 102.70407904728694, 132.61642843122422 99.14694072939942 C141.12335273161793 95.5898024115119, 149.98309338478845 92.69875101989138, 159.13473287543886 94.1165105666128 C168.28637236608927 95.53427011333423, 183.39706943975992 105.37054467267782, 187.5262653751266 107.65349800972797 C191.65546131049328 109.93645134677811, 184.3213154509311 107.23638191856836, 183.90990848763897 107.81423058891369" stroke="#222222" stroke-width="2" fill="none"/></g><g id="record"><g><path d="M113.37404315365875 133.00488995314922 C113.37404315365875 133.00488995314922, 113.37404315365875 133.00488995314922, 113.37404315365875 133.00488995314922 M113.37404315365875 133.00488995314922 C113.37404315365875 133.00488995314922, 113.37404315365875 133.00488995314922, 113.37404315365875 133.00488995314922 M106.28977697053458 153.93331873152903 C119.03486761155389 137.95631703901523, 129.71453454388916 124.73070939427049, 140.04808656995345 114.9109952496113 M105.42499970169271 154.26977446597567 C112.4393417048858 146.45084564948849, 119.13949610055873 138.756307482307, 138.41871444818725 115.48930547290759 M107.01102147572196 164.72690924513546 C119.71346536668642 151.0735993550381, 132.74131715040943 134.66902963732113, 152.80036725230565 112.39022800807321 M107.27835545823432 165.20557909901646 C121.8956649677403 149.74807268212183, 136.11158977826707 132.9024998228173, 150.47339256048252 114.99487901401186 M106.91341403766968 173.9581516737358 C123.49512733058299 157.1070325684968, 137.24256897483335 141.58082842161835, 163.49127374264364 112.0360340102326 M109.32355377532043 175.81342781318887 C124.10200472821667 156.8891361055551, 141.19696222619817 137.45550090284962, 161.14407799626653 114.55016064073256 M110.2667457780842 183.47447787308812 C125.24177427888918 166.98788508260242, 143.35623045721377 147.86848983608968, 167.24625688368337 118.62633594207031 M110.87646731762628 185.34291310878217 C131.1885951161733 162.0333213603472, 151.383099707074 137.95637540065462, 168.11597501622396 116.79031180858178 M116.63224880059603 189.23017430716823 C135.16203675470166 170.24434900372196, 155.07625668402488 147.73867687047874, 177.7011494710744 121.92562067800773 M117.01120660675112 189.90243521930347 C130.36294705193686 176.47377857927927, 143.56627771219672 162.08388506485346, 175.2389667089731 121.90151128651215 M124.61641561094969 193.50557365262534 C144.4510984342965 171.41800140382134, 164.93113272938913 149.32614769503476, 181.31657596349473 125.35703508313463 M122.00143944140821 195.99089371593323 C145.64130758250684 169.9902189499097, 168.3919569194615 143.8597633956149, 182.52952470116074 127.6055509591447 M127.89900260984214 201.20199193499462 C142.6133714684693 182.4359348463222, 159.39663583341206 162.96225313518445, 184.94083442466982 132.63680517365452 M129.03589439026328 202.10512464373784 C142.20903062357783 186.36979670701038, 155.16287037035804 170.77930993404442, 187.42109109948106 135.10675498721417 M136.7640891219134 204.2120189484748 C148.43483337856912 188.25466171222794, 163.48188984757175 170.5565767951652, 188.55760487125872 143.8427211542117 M135.43691982092508 204.42269094144729 C152.1547724904749 186.0227542590237, 168.46472183082832 167.2521121305352, 189.19928683856187 142.47296484489613 M145.79025098987944 205.11045237904665 C162.62553483797052 187.42970799368604, 180.27601451552766 166.4345379939548, 192.2564180119394 151.3315236398958 M144.03815749407835 205.80531656457362 C160.54623392135028 187.78299971863822, 177.3880657415724 168.52687725131702, 193.6598804200499 149.86542554181148 M153.94220989342784 209.97749242202266 C169.73427182874667 191.5377908699231, 185.0733505753098 173.72030314240592, 194.48341913144682 163.8827419771332 M154.9636918823794 207.93458110296055 C165.8604067559221 194.86143202649865, 179.81622373951785 179.7863851852229, 193.04705179664884 162.9951239439178 M170.0382465521511 200.24077472048768 C177.7346420322689 192.4108180645264, 183.98178408016443 184.48522178211084, 194.75725352543057 176.50305054034536 M170.7829633733895 200.46645271922418 C177.82003833990512 192.14609282338694, 186.0662563089732 185.1762130752909, 192.45677780697704 176.23964507016782" stroke="transparent" stroke-width="1" fill="none"/><path d="M132.53105744906492 116.22617255915577 C139.48244576957427 112.53992582654325, 150.84047110084333 110.84308880952898, 158.94572160865198 112.27902888897319 C167.05097211646063 113.7149689684174, 175.48580301501858 118.79640744293924, 181.16256049591672 124.84181303582102 C186.83931797681487 130.88721862870278, 191.07718740614493 140.16252926325055, 193.00626649404091 148.55146244626383 C194.9353455819369 156.9403956292771, 195.40205038463424 166.8874242628379, 192.7370350232927 175.1754121339007 C190.07201966195115 183.4634000049635, 183.56108484820902 192.76632503064283, 177.0161743259917 198.27938967264055 C170.47126380377438 203.79245431463826, 161.32442889753824 207.49418815025038, 153.4675718899888 208.253799985887 C145.61071488243934 209.01341182152365, 137.0381938721918 206.80703345613364, 129.87503228069497 202.83706068646035 C122.71187068919811 198.86708791678706, 114.76845939886007 191.92185564994347, 110.48860234100763 184.4339633678472 C106.2087452831552 176.94607108575096, 103.71778265770192 166.47799874313552, 104.19588993358029 157.90970699388285 C104.67399720945866 149.34141524463018, 108.20592149322674 140.07370551899228, 113.3572459962779 133.02421287233128 C118.50857049932905 125.97472022567028, 131.2941723144602 118.40555867750048, 135.10383695188725 115.61275111391686 C138.91350158931428 112.81994355033324, 136.10248289056497 115.57219962045569, 136.21523382084015 116.26736749082954 M152.84644146888996 113.67129925872658 C160.76108151492235 113.92627155848486, 171.33118183749704 117.4609148882223, 177.97633725774307 122.49108390047063 C184.6214926779891 127.52125291271895, 190.1674397504873 135.76224739490132, 192.71737399036607 143.85231333221654 C195.26730823024485 151.94237926953176, 195.04465642284703 162.81603264572857, 193.27594269701575 171.03147952436188 C191.50722897118447 179.2469264029952, 187.7333907319906 187.0012480095759, 182.10509163537833 193.14499460401643 C176.47679253876606 199.28874119845696, 167.38611366061662 206.09240527045216, 159.5061481173421 207.893959091005 C151.62618257406757 209.69551291155784, 142.63481797869025 207.39273310416877, 134.82529837573125 203.9543175273335 C127.01577877277225 200.51590195049823, 117.49988033410473 193.95506156104582, 112.64903049958812 187.26346562999342 C107.79818066507151 180.57186969894101, 106.26417560876457 172.3539615447858, 105.7201993686316 163.80474194101913 C105.17622312849862 155.25552233725247, 105.63622202421466 143.43265858001627, 109.38517305879029 135.9681480073935 C113.13412409336591 128.50363743477072, 120.93437026015236 122.93248854762116, 128.21390557608538 119.01767850528245 C135.49344089201838 115.10286846294373, 148.6547725144028 113.26059119439877, 153.06238495438836 112.4792877533612 C157.46999739437393 111.69798431232364, 154.44624443379797 113.36656781904077, 154.65958021599877 114.32985785905703" stroke="#222222" stroke-width="2" fill="none"/></g><g><path d="M140.34816407795677 145.85303159010218 C140.34816407795677 145.85303159010218, 140.34816407795677 145.85303159010218, 140.34816407795677 145.85303159010218 M140.34816407795677 145.85303159010218 C140.34816407795677 145.85303159010218, 140.34816407795677 145.85303159010218, 140.34816407795677 145.85303159010218 M134.90614342796337 160.7151002186762 C141.50043406159688 156.5018560431284, 148.35833749919988 149.27712593568597, 157.1282864859935 139.1399109232252 M134.66211399263423 162.17022744579631 C142.00813875936393 156.74053524319345, 147.61541160599438 147.63519531497153, 154.77701091995948 142.71706289509436 M140.3332296600721 171.05439700834177 C147.60114102537884 163.0380888110282, 150.6625640587105 157.3104744635351, 159.80120755915954 148.89223250389298 M138.9608938656903 173.03326640460364 C144.9198745373969 164.97228615424035, 152.20885328783643 155.57726393518624, 159.50051681601866 145.24937035065344 M146.70182205092732 177.93699274442767 C153.90319615473683 166.89677687492, 162.69955247394293 158.7026424900559, 165.84167780194824 156.5110108449276 M143.35845700473163 178.36284783247535 C148.2289224008224 173.64597146638658, 152.02785109059576 167.540060885495, 165.8152857565174 154.54058585289525 M158.2668147104931 175.4360775815956 C160.89544253212813 171.5942748307816, 163.44875464679492 168.57982984689926, 166.29456922336865 166.21299282569802 M156.6601115347025 176.66707899316026 C158.58210194482623 172.5865308305347, 161.5504961681159 171.2524817626565, 165.0024133657982 166.1575920415706" stroke="transparent" stroke-width="1" fill="none"/><path d="M140.13562620229644 146.09752844759967 C142.8131800946731 143.9211617614533, 148.96702738868376 141.14384686878807, 152.58956678110798 141.31892496802084 C156.2121061735322 141.4940030672536, 159.82386981755292 144.22872095053003, 161.8708625568418 147.1479970429963 C163.91785529613065 150.06727313546259, 164.67838784693058 155.03747412890078, 164.8715232168412 158.83458152281852 C165.06465858675185 162.63168891673627, 165.12622186813985 166.70228820931123, 163.0296747763056 169.93064140650284 C160.93312768447134 173.15899460369445, 155.89373007094974 177.0867771522632, 152.29224066583578 178.20470070596815 C148.6907512607218 179.3226242596731, 144.13950526525934 178.45213865795452, 141.42073834562171 176.63818272873255 C138.70197142598408 174.82422679951057, 137.22256514606215 170.83090661921656, 135.97963914801008 167.32096513063635 C134.736713149958 163.81102364205614, 133.14006014658182 159.29733398013008, 133.96318235730934 155.57853379725125 C134.78630456803685 151.85973361437243, 139.40768415686946 146.6470072465857, 140.91837241237516 145.00816403336344 C142.42906066788086 143.36932082014118, 142.56206572439893 145.41868897483903, 143.02731189034358 145.74547451791767 M152.935451204667 142.92350119282466 C155.75906395322036 143.1313819530351, 159.14047705982418 143.93017780244824, 161.03583412049755 147.0354181026679 C162.93119118117093 150.14065840288757, 163.9822034977649 157.49750941279405, 164.3075935687072 161.55494299414266 C164.6329836396495 165.61237657549128, 164.8088400660952 168.82601065266365, 162.9881745461513 171.38001959075964 C161.1675090262074 173.93402852885563, 156.99898628094886 176.20113235227186, 153.38360044904383 176.87899662271866 C149.7682146171388 177.55686089316546, 144.16726916831684 177.52176707032243, 141.2958595547211 175.44720521344047 C138.42444994112535 173.3726433565585, 137.06679872825745 167.70966662458522, 136.1551427674694 164.43162548142695 C135.24348680668137 161.15358433826867, 134.56703331190835 159.16861142819852, 135.8259237899929 155.77895835449078 C137.08481426807748 152.38930528078305, 141.11525639834184 146.4673923080398, 143.70848563597687 144.09370703918054 C146.3017148736119 141.7200217703213, 149.74134536493688 141.41056826331885, 151.38529921580306 141.5368467413352 C153.02925306666924 141.66312521935157, 153.7964193844652 144.46931356181133, 153.572208741174 144.8513779072787" stroke="#222222" stroke-width="2" fill="none"/></g></g><g id="arm"><g><path d="M197.00759720616043 212.7247385699302 C191.75067260288634 203.9416025491897, 179.5988749925513 198.65292299133725, 156.0035366397351 167.7171366531402 M199.63406951818615 215.1697123637423 C186.22732789623552 199.82213179762476, 174.62945871143603 186.5776814994868, 155.93641994986683 170.9274000218138" stroke="#222222" stroke-width="3" fill="none"/></g><g><path d="M199.90937923681088 214.85397492944742 C199.90937923681088 214.85397492944742, 199.90937923681088 214.85397492944742, 199.90937923681088 214.85397492944742 M199.90937923681088 214.85397492944742 C199.90937923681088 214.85397492944742, 199.90937923681088 214.85397492944742, 199.90937923681088 214.85397492944742 M199.96151902572342 224.29380613796783 C203.3904742760818 222.88389959756418, 206.9887381511514 219.24285952505076, 212.69177214530296 212.6406716477162 M199.77849694922656 225.3851515583079 C203.97239757440352 222.84551143299757, 206.86797194567075 217.5233513594404, 210.92831547077745 215.32353562661808" stroke="transparent" stroke-width="1" fill="none"/><path d="M200.11875641525694 214.61311403817 C201.27332844243043 213.65359247234062, 204.73968051221618 211.44576277927194, 206.3965390889706 211.34157831576326 C208.05339766572502 211.23739385225457, 209.35440390103543 212.66303167543072, 210.05990787578344 213.9880072571178 C210.76541185053145 215.31298283880488, 210.52602677904443 217.65767194311482, 210.62956293745876 219.29143180588574 C210.7330990958731 220.92519166865665, 211.57345710971197 222.28235343531287, 210.6811248262694 223.7905664337433 C209.78879254282685 225.29877943217372, 206.94249530584096 227.69484639290957, 205.27556923680334 228.3407097964682 C203.6086431677657 228.9865732000268, 201.63862715314696 228.48280069523076, 200.67956841204366 227.665746855095 C199.72050967094037 226.84869301495922, 200.0026767809576 224.94892548273103, 199.52121679018364 223.43838675565348 C199.0397567994097 221.92784802857594, 197.63053859927044 220.20901038211454, 197.7908084674001 218.60251449262972 C197.95107833552976 216.9960186031449, 199.76835332100927 214.46533172514694, 200.48283599896155 213.79941141874457 C201.19731867691382 213.1334911123422, 201.68853276227892 214.42672790089316, 202.0777045351138 214.60699265421545 M206.54262728647015 212.91534550591095 C207.48680077532975 212.94106710910768, 208.5039397777906 212.2321664574869, 209.08995380514878 213.71152300819804 C209.67596783250696 215.1908795589092, 209.7797128584353 219.8990190160929, 210.05871145061923 221.7914848101778 C210.33771004280317 223.6839506042627, 211.346343713903 224.20334817103287, 210.7639453582525 225.0663177727075 C210.181547002602 225.9292873743821, 208.23618030925562 226.71729293603732, 206.56432131671622 226.96930242022543 C204.89246232417682 227.22131190441354, 201.86481231020798 227.61434458347483, 200.7327914030161 226.57837467783605 C199.60077049582424 225.54240477219727, 199.9624805677895 222.0144541574565, 199.77219587356504 220.7534829863928 C199.58191117934058 219.49251181532912, 198.96637656563516 220.35046218939436, 199.5910832376693 219.01254765145387 C200.21578990970343 217.67463311351338, 202.62020389578038 213.97330519158857, 203.52043590576986 212.72599575874983 C204.42066791575934 211.4786863259111, 204.37800773167766 211.20912612519592, 204.9924752976062 211.5286910544215 C205.60694286353475 211.84825598364708, 207.40823821266233 214.42785172718735, 207.20724130134107 214.64338533410327" stroke="#222222" stroke-width="2" fill="none"/></g></g><g><path d="M65.31914802950057 239.63286218963572 C65.31914802950057 239.63286218963572, 65.31914802950057 239.63286218963572, 65.31914802950057 239.63286218963572 M65.31914802950057 239.63286218963572 C65.31914802950057 239.63286218963572, 65.31914802950057 239.63286218963572, 65.31914802950057 239.63286218963572 M65.50103863644598 251.6346266258008 C68.51439566756883 249.4237477102798, 72.08503813315333 243.61490469027265, 77.41078126656912 238.33955760393997 M65.82183941546081 252.20903045045802 C68.94013976049976 249.44234846776834, 71.99751311992704 245.33481625258977, 74.61841163638137 241.46513881106634 M73.49241259409199 250.94554705457304 C79.72911853119997 247.02537988936612, 82.29290310298872 244.42218519599766, 88.11385108603154 237.9214237724583 M76.38458027927288 253.17187842191672 C77.85002796497366 249.70687324271788, 81.56141287573914 245.7156498852465, 85.297216190379 240.93837572905824" stroke="transparent" stroke-width="1" fill="none"/><path d="M62.007597206160426 237.7247385699302 C69.8592853937298 238.4263183163479, 70.71976073645055 242.14613541830332, 86.0035366397351 237.7171366531402 M64.63406951818615 240.1697123637423 C70.12109935749322 239.0234471194446, 77.81389492098242 239.13407241627573, 85.93641994986683 240.9274000218138 M83.68742042668164 240.4714163493365 C85.06798218842596 245.5249198872596, 86.00803883429617 249.02043506763874, 85.36270511038602 253.33838344328106 M84.55221742745489 239.48744067493826 C84.2886606926471 244.05901688206941, 85.17815013475716 246.67533739004284, 85.0799447869882 251.8148127073422 M82.32650148682296 253.55327043123543 C81.75210590846837 255.003862904571, 73.60385588370264 250.76180790569634, 63.696765718981624 253.5780209619552 M84.06412638816983 253.4448833456263 C76.19740703422576 252.06276762373744, 70.11000076774508 252.96051183231174, 65.65383224282414 253.1361933639273 M64.76116427071392 250.36051163189114 C64.15042904753237 250.67530803121625, 63.464447332806884 247.50006040893496, 63.970052622631194 239.41014703027903 M65.13877137061209 252.83283081594854 C65.22524673506618 248.24292221087964, 64.55410423442721 244.58507480118425, 64.55999352689832 240.44753690902144" stroke="#222222" stroke-width="2" fill="none"/></g><g><path d="M94.30227954424116 239.6522671621558 C94.30227954424116 239.6522671621558, 94.30227954424116 239.6522671621558, 94.30227954424116 239.6522671621558 M94.30227954424116 239.6522671621558 C94.30227954424116 239.6522671621558, 94.30227954424116 239.6522671621558, 94.30227954424116 239.6522671621558 M94.48417015118656 251.6540315983209 C97.49752718230941 249.4431526827999, 101.06816964789392 243.63430966279273, 106.39391278130972 238.35896257646004 M94.80497093020139 252.22843542297812 C97.92327127524035 249.46175344028845, 100.98064463466761 245.35422122510985, 103.60154315112196 241.48454378358642 M102.47554410883258 250.96495202709315 C108.71225004594055 247.04478486188623, 111.2760346177293 244.44159016851776, 117.09698260077211 237.9408287449784 M105.36771179401347 253.19128339443682 C106.83315947971424 249.72627821523798, 110.54454439047971 245.7350548577666, 114.28034770511958 240.95778070157834" stroke="transparent" stroke-width="1" fill="none"/><path d="M91.00759720616043 237.7247385699302 C98.8592853937298 238.4263183163479, 99.71976073645055 242.14613541830332, 115.0035366397351 237.7171366531402 M93.63406951818615 240.1697123637423 C99.12109935749322 239.0234471194446, 106.81389492098242 239.13407241627573, 114.93641994986683 240.9274000218138 M112.68742042668164 240.4714163493365 C114.06798218842596 245.5249198872596, 115.00803883429617 249.02043506763874, 114.36270511038602 253.33838344328106 M113.55221742745489 239.48744067493826 C113.2886606926471 244.05901688206941, 114.17815013475716 246.67533739004284, 114.0799447869882 251.8148127073422 M111.32650148682296 253.55327043123543 C110.75210590846837 255.003862904571, 102.60385588370264 250.76180790569634, 92.69676571898162 253.5780209619552 M113.06412638816983 253.4448833456263 C105.19740703422576 252.06276762373744, 99.11000076774508 252.96051183231174, 94.65383224282414 253.1361933639273 M93.76116427071392 250.36051163189114 C93.15042904753237 250.67530803121625, 92.46444733280688 247.50006040893496, 92.97005262263119 239.41014703027903 M94.13877137061209 252.83283081594854 C94.22524673506618 248.24292221087964, 93.55410423442721 244.58507480118425, 93.55999352689832 240.44753690902144" stroke="#222222" stroke-width="2" fill="none"/></g><g><path d="M123.28541105898177 239.67167213467593 C123.28541105898177 239.67167213467593, 123.28541105898177 239.67167213467593, 123.28541105898177 239.67167213467593 M123.28541105898177 239.67167213467593 C123.28541105898177 239.67167213467593, 123.28541105898177 239.67167213467593, 123.28541105898177 239.67167213467593 M124.12336069491765 250.9187269906182 C127.1367177260405 248.70784807509722, 130.707360191625 242.89900505509007, 136.0331033250408 237.62365796875739 M124.44416147393248 251.49313081527544 C127.56246181897144 248.72644883258576, 130.6198351783987 244.6189166174072, 133.24073369485305 240.74923917588376 M131.45867562357319 250.98435699961325 C137.6953815606812 247.06418983440633, 140.25916613246991 244.46099514103787, 146.08011411551274 237.96023371749848 M134.3508433087541 253.21068836695693 C135.81629099445485 249.74568318775806, 139.5276759052203 245.75445983028672, 143.26347921986022 240.97718567409842" stroke="transparent" stroke-width="1" fill="none"/><path d="M120.00759720616043 237.7247385699302 C127.8592853937298 238.4263183163479, 128.71976073645055 242.14613541830332, 144.0035366397351 237.7171366531402 M122.63406951818615 240.1697123637423 C128.12109935749322 239.0234471194446, 135.81389492098242 239.13407241627573, 143.93641994986683 240.9274000218138 M141.68742042668163 240.4714163493365 C143.06798218842596 245.5249198872596, 144.00803883429617 249.02043506763874, 143.362705110386 253.33838344328106 M142.55221742745488 239.48744067493826 C142.28866069264708 244.05901688206941, 143.17815013475715 246.67533739004284, 143.0799447869882 251.8148127073422 M140.32650148682296 253.55327043123543 C139.75210590846837 255.003862904571, 131.60385588370264 250.76180790569634, 121.69676571898162 253.5780209619552 M142.06412638816983 253.4448833456263 C134.19740703422576 252.06276762373744, 128.11000076774508 252.96051183231174, 123.65383224282414 253.1361933639273 M122.76116427071392 250.36051163189114 C122.15042904753237 250.67530803121625, 121.46444733280688 247.50006040893496, 121.97005262263119 239.41014703027903 M123.13877137061209 252.83283081594854 C123.22524673506618 248.24292221087964, 122.55410423442721 244.58507480118425, 122.55999352689832 240.44753690902144" stroke="#222222" stroke-width="2" fill="none"/></g><g><path d="M152.26854257372233 239.691077107196 C152.26854257372233 239.691077107196, 152.26854257372233 239.691077107196, 152.26854257372233 239.691077107196 M152.26854257372233 239.691077107196 C152.26854257372233 239.691077107196, 152.26854257372233 239.691077107196, 152.26854257372233 239.691077107196 M153.10649220965823 250.93813196313835 C156.11984924078106 248.72725304761735, 159.69049170636558 242.91841002761018, 165.0162348397814 237.6430629412775 M153.42729298867306 251.51253578779557 C156.54559333371202 248.7458538051059, 159.60296669313928 244.6383215899273, 162.22386520959364 240.76864414840387 M160.44180713831378 251.00376197213336 C166.6785130754218 247.08359480692644, 169.2422976472105 244.48040011355798, 175.06324563025333 237.97963869001862 M163.33397482349469 253.23009333947704 C164.79942250919544 249.7650881602782, 168.51080741996088 245.77386480280683, 172.2466107346008 240.99659064661856" stroke="transparent" stroke-width="1" fill="none"/><path d="M149.00759720616043 237.7247385699302 C156.8592853937298 238.4263183163479, 157.71976073645055 242.14613541830332, 173.0035366397351 237.7171366531402 M151.63406951818615 240.1697123637423 C157.12109935749322 239.0234471194446, 164.81389492098242 239.13407241627573, 172.93641994986683 240.9274000218138 M170.68742042668163 240.4714163493365 C172.06798218842596 245.5249198872596, 173.00803883429617 249.02043506763874, 172.362705110386 253.33838344328106 M171.55221742745488 239.48744067493826 C171.28866069264708 244.05901688206941, 172.17815013475715 246.67533739004284, 172.0799447869882 251.8148127073422 M169.32650148682296 253.55327043123543 C168.75210590846837 255.003862904571, 160.60385588370264 250.76180790569634, 150.69676571898162 253.5780209619552 M171.06412638816983 253.4448833456263 C163.19740703422576 252.06276762373744, 157.11000076774508 252.96051183231174, 152.65383224282414 253.1361933639273 M151.76116427071392 250.36051163189114 C151.15042904753238 250.67530803121625, 150.46444733280688 247.50006040893496, 150.9700526226312 239.41014703027903 M152.1387713706121 252.83283081594854 C152.22524673506618 248.24292221087964, 151.5541042344272 244.58507480118425, 151.55999352689832 240.44753690902144" stroke="#222222" stroke-width="2" fill="none"/></g><g><path d="M181.25167408846292 239.71048207971612 C181.25167408846292 239.71048207971612, 181.25167408846292 239.71048207971612, 181.25167408846292 239.71048207971612 M181.25167408846292 239.71048207971612 C181.25167408846292 239.71048207971612, 181.25167408846292 239.71048207971612, 181.25167408846292 239.71048207971612 M182.08962372439882 250.95753693565842 C185.10298075552166 248.74665802013743, 188.67362322110617 242.93781500013029, 193.99936635452198 237.6624679137976 M182.41042450341365 251.53194076031565 C185.5287248484526 248.76525877762597, 188.58609820787987 244.6577265624474, 191.20699672433423 240.78804912092397 M190.20186715904495 250.35898163565437 C196.0487789750837 246.68382491827288, 198.45232701113562 244.24332989323995, 203.90946574523826 238.14886605867179 M192.91327436390205 252.44616729253906 C194.2871315692465 249.19772493704014, 197.76655492308913 245.45595303941073, 201.26887053056402 240.97725851798424" stroke="transparent" stroke-width="1" fill="none"/><path d="M178.00759720616043 237.7247385699302 C185.8592853937298 238.4263183163479, 186.71976073645055 242.14613541830332, 202.0035366397351 237.7171366531402 M180.63406951818615 240.1697123637423 C186.12109935749322 239.0234471194446, 193.81389492098242 239.13407241627573, 201.93641994986683 240.9274000218138 M199.68742042668163 240.4714163493365 C201.06798218842596 245.5249198872596, 202.00803883429617 249.02043506763874, 201.362705110386 253.33838344328106 M200.55221742745488 239.48744067493826 C200.28866069264708 244.05901688206941, 201.17815013475715 246.67533739004284, 201.0799447869882 251.8148127073422 M198.32650148682296 253.55327043123543 C197.75210590846837 255.003862904571, 189.60385588370264 250.76180790569634, 179.69676571898162 253.5780209619552 M200.06412638816983 253.4448833456263 C192.19740703422576 252.06276762373744, 186.11000076774508 252.96051183231174, 181.65383224282414 253.1361933639273 M180.76116427071392 250.36051163189114 C180.15042904753238 250.67530803121625, 179.46444733280688 247.50006040893496, 179.9700526226312 239.41014703027903 M181.1387713706121 252.83283081594854 C181.22524673506618 248.24292221087964, 180.5541042344272 244.58507480118425, 180.55999352689832 240.44753690902144" stroke="#222222" stroke-width="2" fill="none"/></g><g><path d="M210.23480560320348 239.72988705223622 C210.23480560320348 239.72988705223622, 210.23480560320348 239.72988705223622, 210.23480560320348 239.72988705223622 M210.23480560320348 239.72988705223622 C210.23480560320348 239.72988705223622, 210.23480560320348 239.72988705223622, 210.23480560320348 239.72988705223622 M211.0727552391394 250.97694190817853 C214.08611227026225 248.76606299265754, 217.65675473584676 242.9572199726504, 222.98249786926255 237.6818728863177 M211.39355601815424 251.55134573283576 C214.5118563631932 248.78466375014608, 217.56922972262043 244.67713153496751, 220.1901282390748 240.80745409344408 M219.18499867378554 250.37838660817448 C225.0319104898243 246.70322989079298, 227.43545852587621 244.26273486576005, 232.89259725997886 238.16827103119186 M221.89640587864264 252.46557226505917 C223.2702630839871 249.2171299095602, 226.74968643782972 245.47535801193084, 230.2520020453046 240.99666349050432" stroke="transparent" stroke-width="1" fill="none"/><path d="M207.00759720616043 237.7247385699302 C214.8592853937298 238.4263183163479, 215.71976073645055 242.14613541830332, 231.0035366397351 237.7171366531402 M209.63406951818615 240.1697123637423 C215.12109935749322 239.0234471194446, 222.81389492098242 239.13407241627573, 230.93641994986683 240.9274000218138 M228.68742042668163 240.4714163493365 C230.06798218842596 245.5249198872596, 231.00803883429617 249.02043506763874, 230.362705110386 253.33838344328106 M229.55221742745488 239.48744067493826 C229.28866069264708 244.05901688206941, 230.17815013475715 246.67533739004284, 230.0799447869882 251.8148127073422 M227.32650148682296 253.55327043123543 C226.75210590846837 255.003862904571, 218.60385588370264 250.76180790569634, 208.69676571898162 253.5780209619552 M229.06412638816983 253.4448833456263 C221.19740703422576 252.06276762373744, 215.11000076774508 252.96051183231174, 210.65383224282414 253.1361933639273 M209.76116427071392 250.36051163189114 C209.15042904753238 250.67530803121625, 208.46444733280688 247.50006040893496, 208.9700526226312 239.41014703027903 M210.1387713706121 252.83283081594854 C210.22524673506618 248.24292221087964, 209.5541042344272 244.58507480118425, 209.55999352689832 240.44753690902144" stroke="#222222" stroke-width="2" fill="none"/></g><g><path d="M69.75135528910604 275.286033020035 C69.75135528910604 275.286033020035, 69.75135528910604 275.286033020035, 69.75135528910604 275.286033020035 M69.75135528910604 275.286033020035 C69.75135528910604 275.286033020035, 69.75135528910604 275.286033020035, 69.75135528910604 275.286033020035 M70.58930492504196 286.53308787597734 C73.60266195616481 284.32220896045635, 77.17330442174931 278.5133659404492, 82.49904755516509 273.2380188541165 M70.91010570405679 287.10749170063457 C74.02840604909574 284.34080971794486, 77.08577940852301 280.2332775027663, 79.70667792497734 276.36360006124283 M67.6002565108395 297.55726450341916 C77.38838952830119 290.22123578604624, 82.65220577032454 284.59853548097817, 93.74976297365002 272.22059543810246 M71.21546611731563 300.34017871259874 C75.39913361133871 293.1732994183776, 82.52150229957076 285.3277472334928, 90.22896935408436 275.9917853838524 M69.61141580057019 309.20751768648563 C77.30886854222305 301.85348786759266, 89.25242556907929 290.69235147658674, 98.98763548028057 276.4629738990059 M70.5259981098833 312.0101705400267 C81.78410502961852 299.1341615080128, 92.60609098571246 285.4161519424717, 100.29221267909145 273.70893769877307 M70.23630075253232 322.0092124436487 C83.10286869869984 310.70624205024643, 97.97068381471371 294.20730324823296, 115.25946069992384 274.63676219572477 M70.80473746176494 323.0176038118516 C80.54003861249167 314.3133656764864, 90.33382581044087 304.24510371776455, 111.5661865567719 274.6005981084814 M72.63312235726664 333.3451711481 C89.53765612634665 314.8579952344107, 107.46261594217256 296.43928384621455, 121.27208677711104 273.0087449962278 M68.71065810295443 337.07315124306183 C90.06854837064274 314.1255492920001, 110.20117202601563 291.02737411444093, 123.09150988361006 276.3815188102429 M69.61772181728537 347.9258843073627 C84.93078456294866 327.44351271084287, 103.41003974246874 305.9354444398437, 131.23431498137342 272.6250038434838 M71.32305948791708 349.28058337047753 C85.52763471129778 332.19152706050306, 99.32294889283745 315.2886352942725, 134.95469999359028 276.3299285638233 M71.03971637312935 360.00526804462834 C86.59338816439507 338.2261164027713, 107.4226512973117 313.6821503487933, 142.16939970724223 276.9984171554614 M69.04896242164688 360.3212760340871 C91.99699059931112 335.1702872514989, 114.4513013367777 309.32727004723773, 143.13192265819697 274.9437826914881 M71.71923541932975 370.04932577786565 C101.50289097552046 339.0514425693968, 132.25651424921875 302.63752223819796, 153.22754847424878 275.79616022512954 M69.09109517562811 371.0916220561561 C97.31367296490095 339.2277916345798, 126.57169726483235 305.7475679898219, 155.33274208641453 273.59701307800304 M74.03971564936089 382.6501003187068 C109.85551483197892 341.51902076051516, 144.90367736454863 300.94287763950626, 166.99842192692424 276.52720522045684 M75.57193863278823 379.5857333401136 C101.70750600681671 348.9796642900049, 132.84527504593632 314.628684686474, 164.84387092472727 275.19577817063373 M84.01192882371606 378.2508505142294 C113.56984987121228 345.3843409600132, 141.0589964006333 312.65307309845633, 178.82363383479992 276.229821184412 M85.12900405557366 378.58936751233415 C115.19302890355229 344.44217178035046, 146.03254404783203 312.73983118822434, 175.37292025711963 275.8347129791457 M92.7137734220214 377.89006620962994 C119.48365749631208 356.1631498552689, 142.04158279314572 328.25903293383175, 184.10925109240702 275.1590740349639 M94.88587473806365 380.392692884811 C128.74680233837847 342.4018562996559, 159.96453966716135 306.37629403175356, 186.89214960507593 274.4531790758047 M105.34819133880822 378.7759383228771 C143.94323033575358 338.01491701850864, 179.15809523960684 298.13201415114474, 197.63829371927687 272.4743265650812 M107.04137270174263 378.3335085298098 C125.8679310764825 358.68146398632115, 143.98416790957668 337.7698302993274, 196.48221692758062 273.49151459537626 M117.9950775936077 381.5209546469397 C145.20093913212514 347.25646604802597, 172.6526972958245 317.3260766344812, 206.8832348599406 273.9267384427327 M117.15271840559492 379.0005900820962 C142.60045628107434 351.1071329365321, 170.13161879386143 318.98921715240033, 208.17592862111795 273.5472842351261 M124.92378033095113 379.82939984978657 C161.95511097421732 339.04113819474384, 197.04558418245512 303.48987693134495, 221.31850078392952 275.5467662108871 M126.97928074610493 378.88993973893594 C152.95968356185674 352.0503994880459, 177.89126632889588 321.75916479202226, 218.8019895196724 274.0315292548197 M137.24954179137927 380.93956505460903 C167.3422278980746 349.26363666029454, 194.5548640220539 310.47916463931557, 231.73297088577493 277.3316632875132 M138.67026802826655 380.81574584031716 C167.01975305077573 345.3071936026423, 197.9207986574953 308.60965139165324, 227.82875289472832 273.82501747672285 M150.87023442740434 380.2924095189304 C176.51937845927384 349.35384028808, 204.94493269624775 310.30416155711066, 231.7015922501504 284.2536236689213 M149.2327140815451 379.5477945480601 C164.24143045686623 360.3701747231328, 183.1184887809825 339.98110996144857, 231.36708502041247 286.25513698894264 M155.84250672956716 379.7473181159423 C183.7978252999043 352.4483533773816, 204.4929235906332 324.62062069585755, 229.76447692745435 298.7400603999614 M159.43887408593457 378.9959773271532 C176.54504799413027 362.51630992936805, 191.33288933851907 343.2419274538353, 230.88071244907636 297.544924615626 M170.31851934239887 380.2507630136133 C190.06557111486936 357.90118858796234, 210.89705197249182 332.61436990690686, 229.18492271620846 312.0589079433793 M168.2942106879192 380.847702624862 C190.27831441144141 357.1194520977566, 211.22051878195498 331.71344142720517, 230.4754927936948 311.16711828631554 M181.2023860354308 378.27851325491224 C201.76401052910268 356.7359664813666, 218.80259771492783 338.0318939739111, 231.13462151094404 320.94960721714403 M179.22508497148343 379.9788554509521 C193.17199291029294 366.7043840547218, 205.46610360746297 351.96116440491613, 230.61587307575223 321.4438920732772 M193.46267370319418 379.52313475780784 C200.6107826625375 371.05141152359346, 210.3682970429113 355.91618660577905, 230.0061593022018 335.3106055944469 M191.92250645811163 380.11004737768917 C200.73563252451683 367.3916967620409, 210.60636483409965 356.02587337955407, 228.9686397252425 335.20310619149916 M201.44490236522023 382.581490315269 C208.26133842889124 371.5681746696919, 221.85158485716235 358.5273753866798, 229.349752292494 346.8680185828112 M200.18588310678814 379.46286653983896 C211.887348897833 366.1247587120913, 224.00284397428007 355.0824761759022, 229.87090469663096 348.41571867780164 M214.18404516604022 380.6422395952642 C214.95371290280454 375.6565125792746, 225.1330376441863 369.3805602235065, 227.24939272236134 359.3913873054284 M210.76677131399737 380.41612763466685 C218.2929048865215 371.0230893828104, 224.58894129310036 365.41450471845957, 229.23750129491145 360.3802928721729 M221.38828008866994 380.7648007523014 C223.71366856164886 380.1358196455055, 225.08106063399043 378.10182357511025, 231.46289739451424 370.05559539093514 M222.8856386117929 380.75807042100723 C224.60449777768582 377.3342141782174, 225.4853166652121 375.4249198865791, 230.12452857765422 371.25443674090195" stroke="transparent" stroke-width="1" fill="none"/><path d="M67.00759720616043 272.7247385699302 C102.88571944646537 274.45202100910245, 131.7726288419217 278.17183811105787, 231.0035366397351 272.7171366531402 M69.63406951818615 275.1697123637423 C116.6702234307304 275.84611730035397, 165.91214306745678 275.9567425971851, 230.93641994986683 275.9274000218138 M227.81236737780273 275.78569391556084 C229.61310248984955 312.6914333337918, 231.1798635662999 347.0005254894495, 230.60450851731002 382.2306390721351 M229.25369571242481 274.14573445823044 C229.0966397848446 304.9378727301955, 230.57912218836137 332.4712515035644, 230.133241311647 379.691354512237 M227.32650148682296 381.55327043123543 C190.5979441087693 384.1565162274986, 146.2955322843045 379.91446122862396, 68.69676571898162 381.5780209619552 M229.06412638816983 381.4448833456263 C166.83141918573529 379.6580627238378, 106.37802507076411 380.5558069324121, 70.65383224282414 381.1361933639273 M69.60194045118988 377.2675193864852 C69.24595779688097 356.88291595410556, 68.10265493900515 330.68157248571515, 68.28342103771865 274.01691171713173 M70.23128561768681 381.38805135991424 C69.30533264498226 350.0926269646734, 68.18676181058399 320.3506378950551, 69.26665587816387 275.74589484836906" stroke="#222222" stroke-width="2" fill="none"/></g><g><path d="M87.00759720616043 272.7247385699302 C91.08030205531978 294.2996148997918, 87.93700110479259 319.03925754129887, 91.0035366397351 377.7171366531402 M89.63406951818615 275.1697123637423 C88.259425867768 304.9249087199569, 90.0166322779376 336.1973770717159, 90.93641994986683 380.9274000218138" stroke="#222222" stroke-width="2" fill="none"/></g><g><path d="M117.00759720616043 272.7247385699302 C121.08030205531978 294.2996148997918, 117.93700110479259 319.03925754129887, 121.0035366397351 377.7171366531402 M119.63406951818615 275.1697123637423 C118.259425867768 304.9249087199569, 120.0166322779376 336.1973770717159, 120.93641994986683 380.9274000218138" stroke="#222222" stroke-width="2" fill="none"/></g><g><path d="M147.00759720616043 272.7247385699302 C151.08030205531978 294.2996148997918, 147.93700110479259 319.03925754129887, 151.0035366397351 377.7171366531402 M149.63406951818615 275.1697123637423 C148.25942586776802 304.9249087199569, 150.01663227793762 336.1973770717159, 150.93641994986683 380.9274000218138" stroke="#222222" stroke-width="2" fill="none"/></g><g><path d="M177.00759720616043 272.7247385699302 C181.08030205531978 294.2996148997918, 177.93700110479259 319.03925754129887, 181.0035366397351 377.7171366531402 M179.63406951818615 275.1697123637423 C178.25942586776802 304.9249087199569, 180.01663227793762 336.1973770717159, 180.93641994986683 380.9274000218138" stroke="#222222" stroke-width="2" fill="none"/></g><g><path d="M207.00759720616043 272.7247385699302 C211.08030205531978 294.2996148997918, 207.93700110479259 319.03925754129887, 211.0035366397351 377.7171366531402 M209.63406951818615 275.1697123637423 C208.25942586776802 304.9249087199569, 210.01663227793762 336.1973770717159, 210.93641994986683 380.9274000218138" stroke="#222222" stroke-width="2" fill="none"/></g></svg>
