<?xml version="1.0" encoding="UTF-8"?>
<svg xmlns="http://www.w3.org/2000/svg" width="56" height="56" viewBox="0 0 56 56"><g><path d="M12.622434648685157 8.142926681227982 C24.303781031731514 11.643493106157333, 36.700758439868686 21.522209619299325, 40.775753930024806 30.8179562272504 C35.035358719218515 36.35002212184444, 22.007089404359455 39.11652916069105, 12.959203946776688 47.93371485751122 C18.956073590956628 33.53010752890259, 12.049346092186868 23.739765019901093, 15.3482625214383 7.780172348208725" stroke="none" stroke-width="0" fill="#ffffff"/><path d="M15.954132361523808 10.123223115690053 C21.618269960228357 10.961731954777985, 26.95477001324296 17.24243634242788, 44.59889961611479 29.483369477279485 M15.949769840482622 8.539969936665148 C20.62607542824 11.201536972609162, 26.84735866745934 17.235363675814867, 44.7350042113103 27.988284159358592 M42.481846822611985 27.227974303252996 C37.33704949093982 34.22707042717561, 27.65247016482055 39.9379220216088, 13.016215021722019 45.915313543565574 M43.23286585891619 28.06787574356422 C38.56779653148353 33.19382350421697, 31.272453117441383 36.84132671966404, 15.642985121253878 47.93478804593906 M16.63695061933249 50.0433457987383 C14.476051815651356 34.26540572885424, 15.915018906496465 22.959427824802695, 15.108691979758442 9.870554919727146 M14.789616147521883 47.76105702882633 C15.637146163079889 34.364273053314534, 14.67209505746141 19.079571654554456, 14.79179864609614 7.5124457067809995" stroke="#111111" stroke-width="5" fill="none"/></g></svg>
