<?xml version="1.0" encoding="UTF-8"?>
<svg xmlns="http://www.w3.org/2000/svg" width="56" height="56" viewBox="0 0 56 56"><g><path d="M11.371762910857797 7.36747001670301 L22.145176270976663 8.803776314482093 L22.086476365104318 47.30061995051801 L13.225631454959512 47.45596235059202" stroke="none" stroke-width="0" fill="#ffffff"/><path d="M12.005486871115863 7.856755633838475 C14.455292001366615 8.893370843539014, 17.52255452144891 7.246572083840147, 22.891443128697574 7.851265360601246 M13.485716874245554 8.03923670714721 C16.42531228577718 8.073295826697722, 19.79129405366257 8.153191874409094, 22.59296996379271 8.25312223797664 M22.84008621238172 8.801557878032327 C22.99565962087363 23.661885259673, 21.9254256201908 38.10483326204121, 21.539845636114478 48.88870088197291 M22.08867158461362 7.26606088411063 C23.205881646871568 16.689850038848817, 22.347245118618012 26.406542140059173, 22.02579300571233 48.05417873989791 M22.902473296038806 48.28847308922559 C21.622536396607757 47.21877917743288, 17.872593508102 48.488406122690066, 12.558775241486728 47.639681805856526 M23.074091280344874 48.46019352739677 C20.92131046904251 48.03285875293426, 19.05358910979703 47.68122957023792, 12.722212175372988 47.90391742950305 M11.425025096163154 46.38641689158976 C11.71805499587208 36.93142696283758, 14.06661753449589 24.40781253762543, 14.853830387815833 6.246650258079171 M12.834079225547612 48.83829640876502 C12.410119256749748 36.38237278070301, 12.461072495952248 23.836966845206913, 13.107391824014485 7.910737003199756" stroke="#111111" stroke-width="4" fill="none"/></g><g><path d="M31.771452613174915 8.789090566337109 L41.19072765856981 8.614806823432446 L44.34017390757799 47.534692697227 L32.15118784457445 46.988445453345776" stroke="none" stroke-width="0" fill="#ffffff"/><path d="M33.43411859497428 7.338698003441095 C35.29546004533768 8.530770523138344, 36.242582593113184 7.437303645201027, 43.4946458004415 7.047433111816645 M32.66138409264386 7.671536011621356 C36.35855747573078 7.879925451166928, 40.76152805425227 7.674985191710293, 42.802782820537686 8.129530174657702 M42.37679045647383 9.052124448120594 C42.24528225407004 15.592235647141933, 41.8665841434896 23.864227034151554, 44.930393390357494 46.019345946609974 M43.38634929433465 7.466786827892065 C42.25605617046356 19.565562676638365, 42.42095110893249 30.905515130609274, 43.43266985192895 47.40642246231437 M42.42887410148978 47.181753013283014 C40.98102580755949 48.121513014547524, 37.71734728291631 47.1193776185438, 32.477003540843725 48.437920067459345 M43.1023779977113 47.888327522203326 C39.618247946724296 47.60278027769178, 35.43329888023436 48.1154189061746, 32.69168703444302 48.42483959905803 M32.70442097634077 48.104948945343494 C35.05561603978276 33.93067341297865, 31.67174519971013 15.643063224852085, 33.445630721747875 7.040569491684437 M32.05203614011407 48.836519446223974 C32.74209858924151 38.17778347060084, 33.299106259644034 26.83517527207732, 32.54813239350915 7.898767080157995" stroke="#111111" stroke-width="4" fill="none"/></g></svg>
