<?xml version="1.0" encoding="UTF-8"?>
<svg xmlns="http://www.w3.org/2000/svg" width="64" height="64" viewBox="0 0 64 64"><g><path d="M6.809344115476836 11.219324506206224 C6.809344115476836 11.219324506206224, 6.809344115476836 11.219324506206224, 6.809344115476836 11.219324506206224 M6.809344115476836 11.219324506206224 C6.809344115476836 11.219324506206224, 6.809344115476836 11.219324506206224, 6.809344115476836 11.219324506206224 M5.374644752385297 33.50670574832676 C13.729481192610443 25.011234979705577, 19.30687665867776 15.021631128512354, 23.804936325639886 11.468494852629298 M6.947420443387905 32.962086135185935 C13.148411756098776 25.824062904015484, 19.562410684882657 18.508315991772772, 24.780493574679298 11.392463234063976 M7.578918842301212 51.741343170554856 C23.43538471560755 37.000386557324674, 37.01048125337276 21.728631603862866, 44.77497728600821 10.553188377053608 M9.70895473666533 51.50400002092264 C20.05302985963947 38.33630873833513, 30.4811051246757 26.395081994763718, 43.604150176641554 10.357792139233222 M27.380412980710286 52.48249188067069 C36.0849590279613 42.15718651089488, 46.22952909290804 29.7609009328806, 57.54965470207694 17.045214825287676 M27.837776674871463 51.485372734830285 C34.539107828277075 43.79402269116393, 40.61137646358785 35.73157413662239, 56.597115322927266 17.816843891307926 M45.33595426071603 51.073212603881544 C47.625999342994625 48.03378638131518, 51.69463001286796 45.42171150502284, 57.66703214921124 38.03230247914242 M46.12979807153512 51.347804652146586 C48.84884117990922 48.81819090291101, 50.80228408215831 45.73582961922093, 57.48327404443241 39.12482670042115" stroke="transparent" stroke-width="1.7" fill="none"/><path d="M7.706069974601268 10.503743977844715 C17.472982987202705 11.930366629250349, 28.54597967900336 9.935209911949933, 57.44122198075056 10.02623281031847 M6.305252931267023 10.864245190471411 C22.842048254422842 11.006701045893134, 37.707942851260306 10.845963745974005, 56.63282043710351 11.675319423526526 M57.19567640274763 10.095637030899525 C57.0243004835546 22.387038453668357, 58.55555873283743 35.87345483005047, 58.12446091622114 51.45288691073656 M57.64799740090966 10.482539310306311 C56.3494595823288 20.672327341139315, 56.32157116508484 29.330708969384432, 56.88081164136529 51.25874034389854 M55.512911920249465 50.17130236178637 C42.791678751073775 50.62220026921481, 26.92018160484731 51.67523385953158, 6.593873862922192 50.08523711711168 M57.749595782905814 50.73803664669394 C40.68922225702554 50.77485393170267, 25.196278082951903 51.35166698578745, 7.094712422043085 51.66332444176078 M6.962024573981762 51.488210673630235 C5.6123042121231554 39.53867254927754, 7.577549888163805 27.242059534788133, 7.69589636772871 12.213566632568837 M6.991127178817988 51.500048723071814 C7.294111324608326 36.82786408960819, 6.3160993111729615 22.62266172543168, 7.797008130699396 11.379476990550756" stroke="#222222" stroke-width="3.4" fill="none"/></g><g><path d="M39.35673668952838 20.962159314444214 C39.35673668952838 20.962159314444214, 39.35673668952838 20.962159314444214, 39.35673668952838 20.962159314444214 M39.35673668952838 20.962159314444214 C39.35673668952838 20.962159314444214, 39.35673668952838 20.962159314444214, 39.35673668952838 20.962159314444214" stroke="transparent" stroke-width="1.7" fill="none"/><path d="M41.83336485323979 18.213135962944783 C42.4766609795038 17.991642449165504, 43.54073097585631 18.714421553217957, 44.41046564062084 19.13140417048512 C45.28020030538537 19.548386787752282, 46.64131458359383 19.944481355510995, 47.05177284182695 20.715031666547755 C47.46223110006007 21.485581977584516, 47.341115835673996 22.788360879429653, 46.873215190019565 23.754706036705684 C46.40531454436513 24.721051193981715, 45.050857328436024 26.05210576424241, 44.244368967900364 26.513102610203937 C43.437880607364704 26.974099456165465, 42.66120198572091 26.566082067216477, 42.034285026805584 26.52068711247485 C41.40736806789026 26.47529215773322, 40.97803710641373 26.79846937579855, 40.482867214408415 26.24073288175417 C39.9876973224031 25.68299638770979, 39.27732105245075 24.02369869525632, 39.06326567477371 23.17426814820856 C38.84921029709667 22.3248376011608, 38.73276415548977 21.73047464085041, 39.19853494834616 21.144149599467603 C39.66430574120255 20.557824558084796, 41.22369450508935 20.130464013539804, 41.85789043191205 19.656317899911716 C42.492086358734745 19.18217178628363, 42.95456090572976 18.482547814796614, 43.00371050928236 18.29927291769908 M41.80827796785744 19.423515621545558 C42.77877351673524 19.10783561369205, 43.91739878448043 18.502547132445216, 44.654449525878505 18.77245101634023 C45.39150026727658 19.042354900235246, 45.82836077355643 20.222347791011764, 46.23058241624589 21.042938924915642 C46.63280405893534 21.86353005881952, 47.03222423630655 22.744890858791855, 47.06777938201524 23.695997819763495 C47.10333452772393 24.647104780735134, 47.11114421957812 26.12824391950824, 46.44391329049802 26.749580690745468 C45.77668236141791 27.370917461982696, 43.91282197335693 27.627729655232947, 43.06439380753462 27.424018447186857 C42.215965641712316 27.220307239140766, 41.95038592510252 25.94398910984737, 41.353344295564206 25.527313442468923 C40.75630266602589 25.110637775090478, 39.67683799337571 25.615336097136716, 39.48214403030472 24.923964442916187 C39.28745006723372 24.23259278869566, 39.86243098472424 22.18836243220413, 40.18518051713825 21.37908351714575 C40.50793004955226 20.569804602087373, 41.381731321172595 20.569894521326127, 41.41864122478875 20.068290952565913 C41.455551128404906 19.5666873838057, 40.53123987080645 18.553407109207395, 40.406639938835184 18.369462104584464" stroke="#222222" stroke-width="3.4" fill="none"/></g><g><path d="M9.491599821666748 45.888754493132204 C12.560579198513187 42.499975150639926, 15.050791624389358 39.797918634331424, 23.83948730344976 31.868744417990897 M10.418882338144929 44.55515838455346 C13.509293190108695 42.193798897477244, 17.60210875378645 39.21794387377103, 24.044919480965415 30.51171090747464 M24.82862787175038 31.21096995196578 C27.09932220987095 34.42318484725674, 32.24649893470724 38.95891647077855, 34.98930612307232 40.632292609234405 M24.337184156804742 31.315386482158154 C26.730885558958562 33.06634231516067, 29.209821806638228 35.808897423359554, 34.16533606339675 41.24714104064386 M34.18133877628415 41.666626857498365 C35.22319570810022 38.8199789206895, 36.25639018855526 38.227282584851345, 40.41041852061133 34.17241179581107 M33.713483011304454 41.32080451627442 C36.95832047927668 38.05844120301569, 39.483917288175235 35.87972871016789, 40.901832187646214 33.63578633025292 M40.727100791716516 33.20684814606418 C45.218163487036946 37.31004082799488, 48.352811139944535 39.45620527272926, 54.30935876548173 45.73547573892389 M40.48276304222789 34.451823621790915 C45.098669886371745 38.449677444695055, 49.34639057767325 43.20077588208915, 53.7357766278121 47.296014533500106" stroke="#222222" stroke-width="3.4" fill="none"/></g></svg>
