<?xml version="1.0" encoding="UTF-8"?>
<svg xmlns="http://www.w3.org/2000/svg" width="64" height="64" viewBox="0 0 64 64"><g><path d="M28.795257268846036 9.463624466955661 C29.649657394133506 16.47595321517438, 30.152573777876793 23.586025188490748, 28.985695873200893 41.72549528032541 M28.823684711009264 10.484685128182173 C29.370888307459655 20.0045309105888, 28.40618968284875 27.65474092029035, 29.51804098561406 40.95641657635569" stroke="#222222" stroke-width="4.2" fill="none"/></g><g><path d="M52.338500301539895 12.548055632412433 C52.73545842777268 17.602025893796235, 52.469191271171724 25.65734655801207, 53.646192972362044 42.78096888810396 M52.3479549087584 11.331400676816703 C53.371494402428716 23.04857075093314, 52.877003087540714 34.116029979102315, 53.2608432687819 44.76542737111449" stroke="#222222" stroke-width="4.2" fill="none"/></g><g><path d="M29.25336485058069 10.774702380597592 C35.286342608183624 10.136895703190564, 38.69402892291546 10.466965483540296, 53.036938621103765 11.664179299771785 M28.43436020538211 11.001473999768496 C36.64991175085306 10.168800308465958, 42.95920032635331 11.444110800981521, 53.67504669353366 10.578943563252688" stroke="#222222" stroke-width="4.2" fill="none"/></g><g><path d="M12.250705483336052 39.79966165923041 C12.250705483336052 39.79966165923041, 12.250705483336052 39.79966165923041, 12.250705483336052 39.79966165923041 M12.250705483336052 39.79966165923041 C12.250705483336052 39.79966165923041, 12.250705483336052 39.79966165923041, 12.250705483336052 39.79966165923041" stroke="transparent" stroke-width="2.1" fill="none"/><path d="M22.832326481040422 38.19019948862401 C24.504405335383794 38.26945360095426, 26.13590804750236 38.81728605350802, 26.980573944182208 39.727469767749625 C27.825239840862054 40.63765348199123, 28.146189500018853 42.52042294545773, 27.900321861119494 43.65130177407362 C27.654454222220135 44.782180602689515, 26.806654606922187 45.772240909907076, 25.50536811078605 46.512742739444974 C24.204081614649915 47.25324456898287, 21.88098304213247 47.86150822813008, 20.092602884302668 48.094312751301025 C18.304222726472865 48.32711727447197, 16.17159815663996 48.64300236471139, 14.775087163807244 47.90956987847067 C13.37857617097453 47.17613739222995, 12.125272723849417 45.05571617342855, 11.713536927306382 43.69371783385667 C11.301801130763348 42.33171949428478, 11.406082725716896 40.69024656146126, 12.30467238454904 39.73757984103937 C13.203262043381184 38.78491312061748, 15.252961833675034 38.276252098696936, 17.10507488029925 37.977717511325324 C18.957187926923464 37.67918292395371, 22.194086153605372 37.919782302554, 23.417350664294332 37.94637231680971 C24.640615174983292 37.97296233106542, 24.585085208295837 38.01550178932375, 24.444661944433 38.13725759685956 M23.854559036584995 38.58612974870003 C25.670690715277615 38.67493857855225, 27.097224410186428 39.154406104600355, 27.806054131595985 39.999720406153685 C28.514883853005543 40.845034707707015, 28.306939457735368 42.630442903014895, 28.10753736504234 43.65801555801999 C27.908135272349313 44.685588213025085, 28.15016558689952 45.240164368019194, 26.60964157543781 46.16515633618423 C25.0691175639761 47.09014830434927, 20.84142749097712 48.90190156044139, 18.864393296272077 49.20796736701022 C16.887359101567032 49.51403317357905, 15.940368999733584 48.784509358959625, 14.747436407207532 48.00155117559724 C13.55450381468148 47.21859299223486, 12.097018065887584 45.89195466304166, 11.706797741115766 44.51021826683595 C11.316577416343948 43.12848187063024, 11.401775015092994 40.69136695473724, 12.406114458576624 39.711132798362975 C13.410453902060254 38.73089864198871, 16.154262894193327 39.03576382785528, 17.73283440201754 38.62881332859034 C19.311405909841756 38.2218628293254, 20.837760246416195 37.44770555747156, 21.877543505521913 37.26942980277337 C22.91732676462763 37.091154048075175, 23.918796773252627 37.35202684961223, 23.97153395665184 37.55915880040121" stroke="#222222" stroke-width="4.2" fill="none"/></g><g><path d="M37.50818482840476 36.58040661093849 C37.50818482840476 36.58040661093849, 37.50818482840476 36.58040661093849, 37.50818482840476 36.58040661093849 M37.50818482840476 36.58040661093849 C37.50818482840476 36.58040661093849, 37.50818482840476 36.58040661093849, 37.50818482840476 36.58040661093849" stroke="transparent" stroke-width="2.1" fill="none"/><path d="M43.298749315628825 34.82762615516698 C44.79373455371676 34.634738314678444, 46.42147089970618 35.988686132501854, 47.965259107713976 36.80147955417022 C49.50904731572177 37.61427297583859, 51.86718534389861 38.719404651943464, 52.561478563675585 39.7043866851772 C53.25577178345256 40.68936871841093, 52.9869926851738 41.63500475241384, 52.13101842637583 42.71137175357261 C51.27504416757786 43.78773875473137, 48.95756853557555 45.62511221007456, 47.42563301088775 46.162588692129795 C45.893697486199954 46.70006517418503, 44.690222210672346 46.22901627288162, 42.93940527824905 45.936230645904025 C41.18858834582575 45.64344501892643, 38.116312390407295 45.24751633317008, 36.92073141634796 44.40587493026422 C35.72515044228863 43.564233527358354, 35.687044048861296 42.16873139174701, 35.765919433893046 40.88638222846886 C35.8447948189248 39.60403306519071, 36.0602484552239 37.53956179900007, 37.39398372653845 36.711779950595314 C38.727718997853 35.88399810219056, 42.74720923808145 36.20021764236484, 43.76833106178037 35.91969113804035 C44.78945288547929 35.63916463371586, 43.49069155208428 35.119607355729144, 43.52071466873198 35.02862092464836 M41.54068931700959 34.61276552029326 C43.327995641595486 34.11118770542089, 45.27458033709914 36.11292078430374, 46.72411350134221 36.79920844890559 C48.17364666558528 37.48549611350744, 49.17697426335675 38.03381459206896, 50.237888302468036 38.73049150790436 C51.298802341579325 39.427168423739765, 53.270367389219444 39.75160982325664, 53.08959773600993 40.979269943918005 C52.90882808280041 42.20693006457937, 50.779567548196916 45.10088379467675, 49.15327038321095 46.09645223187254 C47.52697321822499 47.09202066906833, 45.05036800891692 47.13514418778813, 43.331814746094146 46.952680567092756 C41.61326148327137 46.77021694639738, 40.27998888764732 45.67477000988616, 38.841950806274305 45.00167050770028 C37.40391272490129 44.328571005514405, 35.11153591878384 44.10910216140183, 34.70358625785604 42.91408355397751 C34.29563659692824 41.719064946553196, 35.203922722392306 39.223598741679865, 36.39425284070752 37.83155886315437 C37.58458295902274 36.439518984628876, 41.16759703835902 34.84903541264305, 41.845566967747345 34.561844282824545 C42.52353689713567 34.27465315300604, 40.54888780166796 35.66382265101793, 40.46207241703748 36.10841208424336" stroke="#222222" stroke-width="4.2" fill="none"/></g></svg>
