<?xml version="1.0" encoding="UTF-8"?>
<svg xmlns="http://www.w3.org/2000/svg" width="360" height="400" viewBox="0 0 360 400"><g><path d="M17.76580664024495 58.30124006392661 C84.6991624935191 60.46608068476132, 146.4127259623084 63.243377473081864, 340.7492623992274 58.295564306622616 M19.726788300597914 60.126710961813686 C114.36131056137273 62.18698157853859, 210.64270574456577 62.269576844159204, 340.6991516109535 60.69241713543333 M338.3666656480342 60.58661625786468 C338.76649690326326 169.1022271832694, 339.9362749827833 275.67912448241685, 340.4513392776099 381.6654439078971 M339.4427928997093 59.362186666575 C339.8584802019621 148.21895581984285, 340.96533398137626 234.6426638732511, 340.099480876819 379.7695585297881 M338.0039075495612 381.15970566880713 C258.79317967571285 384.08688439098677, 173.92764645722337 380.9196733692243, 19.02697678840207 381.1781849562541 M339.3012562969713 381.0787815006271 C214.96136728763958 379.399374692232, 91.94995233705419 380.069650149027, 20.488165449624212 380.84830681026966 M19.702800036622893 377.9598702237071 C20.68704083004935 303.30761410792684, 19.83342591613677 224.31245268854553, 18.71836461090077 59.26600479114677 M20.17268289961048 381.0363494973684 C17.460487640335213 290.46011820697015, 16.625338195957887 201.04371569913417, 19.452469242845684 60.55690140402636" stroke="#222222" stroke-width="2" fill="none"/></g><g><path d="M43.06693763618596 83.79039185256985 C95.08884598838124 77.10669757388263, 152.4011450795328 81.54423798344536, 320.3204233438729 83.07695752973459 M42.132859613201376 81.23009316354423 C130.9134196693039 81.29852720653255, 217.2557206500982 80.68493454084147, 316.8170479031369 82.45913136067017 M315.62230597589655 82.95809978192483 C317.5740838999708 180.43228000688887, 319.72204774504974 278.4238410858458, 317.744568715782 356.2897607922231 M318.9899955127623 81.54371206819566 C316.9199945512872 174.90203362189686, 316.93466006348064 269.2201930977129, 317.37604738358095 356.94396067724114 M319.57192052517865 356.542580338759 C242.78064837703755 359.46622233793596, 166.30997314636838 360.2437740973351, 40.722678504645394 356.3278103779331 M317.29804125272295 357.77670091064067 C217.74345311806215 360.3362440556702, 117.21692541321026 360.7408724483226, 42.46377773292094 357.7516869465471 M43.25462564610261 357.8724100591272 C42.49835180955609 264.0184384275168, 44.36090272140024 173.97213661513368, 43.79085035378347 82.17139612166913 M41.223173256735784 359.1427360531644 C41.24273262688365 291.0742510527676, 40.94620784587033 223.55169362749348, 43.177693884184116 82.60044153149825" stroke="#222222" stroke-width="2" fill="none"/></g><g><path d="M16.808103686571123 57.57305447459221 C52.851408947706226 51.407936489880086, 81.52876494646071 47.36818881213665, 181.0704390823841 17.564945763349535 M19.609674152731895 60.18102652132511 C66.9922377461195 49.031346813738345, 116.35130447685721 37.27816882371902, 180.99884794652462 20.989226689934732" stroke="#222222" stroke-width="2" fill="none"/></g><g><path d="M336.80810368657114 57.57305447459221 C308.7909882557392 48.90717563897371, 273.4079235625267 44.86742796123028, 181.0704390823841 17.564945763349535 M339.6096741527319 60.18102652132511 C292.022811293006 44.58750332504511, 246.41245157063008 32.83432533502579, 180.99884794652462 20.989226689934732" stroke="#222222" stroke-width="2" fill="none"/></g><g><path d="M191.1376193793645 3.325788492037507 C192.33128843994294 3.2208026862178816, 192.3348362115481 2.49236263954422, 193.15731748742223 3.6805354550499763 C193.97979876329637 4.868708270555732, 195.9372632827827 8.676509218975164, 196.07250703460934 10.454825385072045 C196.20775078643598 12.233141551168925, 194.77909335548136 13.31220232677824, 193.96877999838208 14.350432451631262 C193.15846664128279 15.388662576484284, 192.35196761553107 16.306780949762686, 191.21062689201366 16.684206134190177 C190.06928616849626 17.061631318617668, 188.56425247303378 17.612756838314986, 187.12073565727758 16.6149835581962 C185.67721884152138 15.617210278077414, 183.21573139602452 12.18263858661297, 182.54952599747656 10.697566453477457 C181.8833205989286 9.212494320341943, 182.4121379818598 9.28758237086829, 183.12350326598988 7.704550759383123 C183.83486855011998 6.121519147897956, 185.15067369550323 1.9349735868579936, 186.81771770225714 1.1993767845664554 C188.48476170901105 0.46377998227491724, 192.26722561765334 2.8448822943511085, 193.12576730651335 3.2909699456338943 C193.98430899537337 3.73705759691668, 192.12761072365242 3.663049312544119, 191.96896783541726 3.8759026922631694 M188.97722115522842 -0.2864824301497242 C190.28218669101182 -0.5537297588777346, 190.7694033053185 1.1951441481216318, 191.57460873639383 1.8229376457707067 C192.37981416746916 2.4507311434197816, 192.91092951229322 1.9659449071844006, 193.80845374168038 3.480278555744726 C194.70597797106754 4.994612204305051, 196.72893564058108 8.843810117284518, 196.95975411271675 10.90893953713266 C197.19057258485242 12.974068956980803, 196.58600794961643 14.78190903151048, 195.19336457449444 15.871055074833578 C193.80072119937245 16.960201118156675, 190.1336983762341 17.61401942246184, 188.60389386198477 17.44381579707124 C187.07408934773545 17.273612171680643, 186.8879618365641 16.20609912087674, 186.01453748899854 14.849833322489985 C185.14111314143298 13.493567524103232, 183.4816897664741 10.926351255883294, 183.36334777659133 9.306221006750722 C183.24500578670856 7.68609075761815, 184.390878875527 6.567043335391867, 185.3044855497019 5.129051827694552 C186.2180922238768 3.691060319997236, 188.5173584820671 0.9973166166650806, 188.84498782164076 0.6782719605668284 C189.17261716121442 0.35922730446857615, 187.32670998006265 2.8463440307006795, 187.2702615871439 3.2147838911050384" stroke="#222222" stroke-width="2" fill="none"/></g><g><path d="M182.81298240800632 12.039244398233697 C185.23009698590565 16.36064053112874, 178.49919293022123 15.982624691883757, 173.44295346947087 30.543470948314166 M186.24484366037112 12.85698607058979 C180.2592865757736 19.249919717159948, 176.10182706439446 25.222949094972183, 172.82044170563975 27.81054072507925" stroke="#222222" stroke-width="2" fill="none"/></g></svg>
