<?xml version="1.0" encoding="UTF-8"?>
<svg xmlns="http://www.w3.org/2000/svg" width="360" height="400" viewBox="0 0 360 400"><g><path d="M17.905443725229638 58.4074125599312 C84.6592411309221 60.43695064196374, 146.51948317616 63.04066638101425, 340.7024334992757 58.4020915374587 M19.743864031810542 60.11879152670033 C114.39931780460653 62.05029522987993, 210.5987149421696 62.12772829139925, 340.6554546352689 60.64914106446875 M338.46874904503204 60.549952741748136 C338.8435908468093 168.98527528353682, 339.9402577963594 275.6030538007093, 340.4231305727593 381.5613536636535 M339.47761834347745 59.40204999991406 C339.86732518933945 148.15770510308224, 340.9050006075403 234.63236542513204, 340.09326332201783 379.7839611216764 M338.12866332771364 381.0872240645067 C258.7037256888809 383.83145411655016, 173.97740803944717 380.8621937836478, 19.08779073912694 381.1045483964882 M339.3449277784106 381.0113576568379 C215.00971213952062 379.4369137739675, 91.9199409307053 380.06529701471277, 20.457655109022696 380.7952876346278 M19.721375034333963 378.08737833472543 C20.644100778171264 303.18106137961166, 19.84383679637822 224.20327070237187, 18.798466822719472 59.3118794917001 M20.161890218384823 380.97157765378284 C17.619207162814263 290.49269570841665, 16.836254558710518 201.10115324670252, 19.48668991516783 60.52209506627471" stroke="#111111" stroke-width="3" fill="none"/></g><g><path d="M43.00025403392434 83.67849236178424 C95.22412771591296 77.41252897551497, 152.4077427156731 81.57272310948002, 320.17539688488085 83.00964768412616 M42.12455588737629 81.2782123408227 C130.84409671910907 81.34236925612426, 217.27776966774042 80.76712613203885, 316.8909824091908 82.43043565062828 M315.770911852403 82.89821854555453 C317.60070365622255 180.36259821086037, 319.6144197609841 278.3120224267846, 317.7605331710456 356.39665074270914 M318.92812079321465 81.57223006393343 C316.9874948918317 174.97820763457992, 317.0012438095131 269.2840332572091, 317.41504442210714 357.00996313491356 M319.47367549235497 356.6336690675866 C242.75679841215862 359.374583441815, 166.3404809420922 360.1035382162517, 40.80251109810506 356.43232222931226 M317.3419136744278 357.7906571037256 C217.7263288820918 360.19022880219075, 117.19955074270169 360.5695679203024, 42.434791624613375 357.76720651238793 M43.1762115432212 357.8803844304318 C42.46720482145884 264.1514746407457, 44.21334630131272 173.99225530658512, 43.678922206672 82.16068386406481 M41.2717249281898 359.07131504984164 C41.29006183770342 291.0834810812544, 41.01206985550344 223.6074542143446, 43.10408801642261 82.5629139357796" stroke="#111111" stroke-width="2" fill="none"/></g><g><path d="M17.007597206160426 57.724738569930196 C52.80008403509855 51.44446842260659, 81.68699343055486 47.15673293806613, 181.0035366397351 17.717136653140187 M19.634069518186152 60.16971236374229 C67.02301746364684 48.97493899371475, 116.26493710037323 37.21438598390668, 180.93641994986683 20.92740002181381" stroke="#111111" stroke-width="2" fill="none"/></g><g><path d="M337.0075972061604 57.724738569930196 C308.73966334313155 49.10000512488186, 273.56615204662086 44.8122696403414, 181.0035366397351 17.717136653140187 M339.63406951818615 60.16971236374229 C292.0535910105333 44.80883572306484, 246.32608419414612 33.04828271325677, 180.93641994986683 20.92740002181381" stroke="#111111" stroke-width="2" fill="none"/></g><g><path d="M191.00991951497758 3.2370080686739975 C192.21905942442766 3.132518606557603, 192.34337987924607 2.497391688893904, 193.18621579711123 3.672047930252125 C194.0290517149764 4.846704171610346, 195.92493838558818 8.524283332387853, 196.0669350221686 10.284945516823326 C196.208931658749 12.045607701258799, 194.84632775035698 13.180188338594725, 194.0381956165937 14.236021036864962 C193.23006348283042 15.291853735135199, 192.37760494464686 16.233211365434123, 191.21814221958897 16.61994170644475 C190.05867949453108 17.006672047455375, 188.52330715156114 17.523910604121898, 187.08141926624637 16.55640308292871 C185.6395313809316 15.588895561735523, 183.2376557602604 12.289218436417501, 182.56681490770043 10.814896579285625 C181.89597405514047 9.340574722153749, 182.37177312198742 9.28820253333622, 183.0563741508865 7.710471940137448 C183.7409751797856 6.132741346938676, 185.04985001012483 2.113290981050647, 186.6744210810951 1.3485130200929953 C188.29899215206535 0.5837350591353436, 191.965661582699 2.7590113416121715, 192.80380057670806 3.1218041743915377 C193.6419395707171 3.484597007170904, 191.85091431498415 3.316953637455244, 191.7032550451495 3.5252700167691913 M188.96392920670962 -0.16648491592389458 C190.2798586075249 -0.42283496421312555, 190.86353152592326 1.2670157113945755, 191.6951978921214 1.919040386090848 C192.52686425831953 2.5710650607871206, 193.0924467161444 2.2288126564959754, 193.9539274038984 3.74566313225374 C194.81540809165242 5.2625136080115045, 196.69375495407922 8.998690817638824, 196.86408201864543 11.020143240637434 C197.03440908321164 13.041595663636045, 196.3721207404326 14.819635361770354, 194.9758897912957 15.874377670245405 C193.57965884215884 16.929119978720458, 190.01367262499352 17.54197437770909, 188.48669632382416 17.348597091487743 C186.9597200226548 17.1552198052664, 186.6843937322345 16.07108308265544, 185.81403198427964 14.714113952917327 C184.94367023632478 13.357144823179214, 183.36162994121509 10.822790585130761, 183.26452583609498 9.206782313059062 C183.16742173097487 7.590774040987362, 184.302168250163 6.4295326517681595, 185.23140735355904 5.018064320487128 C186.16064645695508 3.606595989206097, 188.4845368613716 1.0534563099531258, 188.8399604564712 0.7379723253728736 C189.1953840515708 0.4224883407926215, 187.41662403207945 2.772074583248887, 187.36394892415674 3.1251604130056156" stroke="#111111" stroke-width="2" fill="none"/></g><g><path d="M182.94967100750594 12.099291623344092 C185.06556419821857 16.33829015551819, 178.60518991994644 16.171589963811016, 173.41526887762893 30.38450401404453 M186.16704093159794 12.865924441177928 C180.28495481487758 19.197582672225153, 176.11671017304946 25.135580651311827, 172.83166409903725 27.822381929761796" stroke="#111111" stroke-width="2" fill="none"/></g></svg>
